Aikya-Bold.ufo
<glyph name="BASE" format="1">
  <advance width="680"/>
  <outline>
    <contour>
      <point x="303" y="508"/>
      <point x="320" y="525"/>
      <point x="340" y="525" type="curve" smooth="yes"/>
      <point x="361" y="525"/>
      <point x="378" y="508"/>
      <point x="378" y="487" type="curve" smooth="yes"/>
      <point x="378" y="466"/>
      <point x="361" y="449"/>
      <point x="340" y="449" type="curve" smooth="yes"/>
      <point x="320" y="449"/>
      <point x="303" y="466"/>
      <point x="303" y="487" type="curve" smooth="yes"/>
    </contour>
    <contour>
      <point x="303" y="44"/>
      <point x="320" y="61"/>
      <point x="340" y="61" type="curve" smooth="yes"/>
      <point x="361" y="61"/>
      <point x="378" y="44"/>
      <point x="378" y="23" type="curve" smooth="yes"/>
      <point x="378" y="2"/>
      <point x="361" y="-15"/>
      <point x="340" y="-15" type="curve" smooth="yes"/>
      <point x="320" y="-15"/>
      <point x="303" y="2"/>
      <point x="303" y="23" type="curve" smooth="yes"/>
    </contour>
    <contour>
      <point x="70" y="276"/>
      <point x="87" y="293"/>
      <point x="108" y="293" type="curve" smooth="yes"/>
      <point x="129" y="293"/>
      <point x="146" y="276"/>
      <point x="146" y="255" type="curve" smooth="yes"/>
      <point x="146" y="234"/>
      <point x="129" y="217"/>
      <point x="108" y="217" type="curve" smooth="yes"/>
      <point x="87" y="217"/>
      <point x="70" y="234"/>
      <point x="70" y="255" type="curve" smooth="yes"/>
    </contour>
    <contour>
      <point x="535" y="276"/>
      <point x="552" y="293"/>
      <point x="572" y="293" type="curve" smooth="yes"/>
      <point x="593" y="293"/>
      <point x="610" y="276"/>
      <point x="610" y="255" type="curve" smooth="yes"/>
      <point x="610" y="234"/>
      <point x="593" y="217"/>
      <point x="572" y="217" type="curve" smooth="yes"/>
      <point x="552" y="217"/>
      <point x="535" y="234"/>
      <point x="535" y="255" type="curve" smooth="yes"/>
    </contour>
    <contour>
      <point x="102" y="160"/>
      <point x="119" y="177"/>
      <point x="140" y="177" type="curve" smooth="yes"/>
      <point x="161" y="177"/>
      <point x="178" y="160"/>
      <point x="178" y="139" type="curve" smooth="yes"/>
      <point x="178" y="118"/>
      <point x="161" y="101"/>
      <point x="140" y="101" type="curve" smooth="yes"/>
      <point x="119" y="101"/>
      <point x="102" y="118"/>
      <point x="102" y="139" type="curve" smooth="yes"/>
    </contour>
    <contour>
      <point x="504" y="392"/>
      <point x="521" y="409"/>
      <point x="542" y="409" type="curve" smooth="yes"/>
      <point x="562" y="409"/>
      <point x="579" y="392"/>
      <point x="579" y="371" type="curve" smooth="yes"/>
      <point x="579" y="350"/>
      <point x="562" y="333"/>
      <point x="542" y="333" type="curve" smooth="yes"/>
      <point x="521" y="333"/>
      <point x="504" y="350"/>
      <point x="504" y="371" type="curve" smooth="yes"/>
    </contour>
    <contour>
      <point x="419" y="477"/>
      <point x="436" y="494"/>
      <point x="456" y="494" type="curve" smooth="yes"/>
      <point x="477" y="494"/>
      <point x="494" y="477"/>
      <point x="494" y="456" type="curve" smooth="yes"/>
      <point x="494" y="436"/>
      <point x="477" y="419"/>
      <point x="456" y="419" type="curve" smooth="yes"/>
      <point x="436" y="419"/>
      <point x="419" y="436"/>
      <point x="419" y="456" type="curve" smooth="yes"/>
    </contour>
    <contour>
      <point x="186" y="75"/>
      <point x="203" y="92"/>
      <point x="224" y="92" type="curve" smooth="yes"/>
      <point x="245" y="92"/>
      <point x="262" y="75"/>
      <point x="262" y="55" type="curve" smooth="yes"/>
      <point x="262" y="34"/>
      <point x="245" y="16"/>
      <point x="224" y="16" type="curve" smooth="yes"/>
      <point x="203" y="16"/>
      <point x="186" y="34"/>
      <point x="186" y="55" type="curve" smooth="yes"/>
    </contour>
    <contour>
      <point x="102" y="392"/>
      <point x="119" y="409"/>
      <point x="140" y="409" type="curve" smooth="yes"/>
      <point x="161" y="409"/>
      <point x="178" y="392"/>
      <point x="178" y="371" type="curve" smooth="yes"/>
      <point x="178" y="350"/>
      <point x="161" y="333"/>
      <point x="140" y="333" type="curve" smooth="yes"/>
      <point x="119" y="333"/>
      <point x="102" y="350"/>
      <point x="102" y="371" type="curve" smooth="yes"/>
    </contour>
    <contour>
      <point x="504" y="160"/>
      <point x="521" y="177"/>
      <point x="542" y="177" type="curve" smooth="yes"/>
      <point x="562" y="177"/>
      <point x="579" y="160"/>
      <point x="579" y="139" type="curve" smooth="yes"/>
      <point x="579" y="118"/>
      <point x="562" y="101"/>
      <point x="542" y="101" type="curve" smooth="yes"/>
      <point x="521" y="101"/>
      <point x="504" y="118"/>
      <point x="504" y="139" type="curve" smooth="yes"/>
    </contour>
    <contour>
      <point x="186" y="477"/>
      <point x="203" y="494"/>
      <point x="224" y="494" type="curve" smooth="yes"/>
      <point x="245" y="494"/>
      <point x="262" y="477"/>
      <point x="262" y="456" type="curve" smooth="yes"/>
      <point x="262" y="436"/>
      <point x="245" y="419"/>
      <point x="224" y="419" type="curve" smooth="yes"/>
      <point x="203" y="419"/>
      <point x="186" y="436"/>
      <point x="186" y="456" type="curve" smooth="yes"/>
    </contour>
    <contour>
      <point x="419" y="75"/>
      <point x="436" y="92"/>
      <point x="456" y="92" type="curve" smooth="yes"/>
      <point x="477" y="92"/>
      <point x="494" y="75"/>
      <point x="494" y="55" type="curve" smooth="yes"/>
      <point x="494" y="34"/>
      <point x="477" y="16"/>
      <point x="456" y="16" type="curve" smooth="yes"/>
      <point x="436" y="16"/>
      <point x="419" y="34"/>
      <point x="419" y="55" type="curve" smooth="yes"/>
    </contour>
  </outline>
</glyph>
<glyph name="Danda" format="1">
  <advance width="240"/>
  <outline>
    <contour>
      <point x="210" y="521" type="line"/>
      <point x="210" y="-20" type="line"/>
      <point x="130" y="-20" type="line"/>
      <point x="130" y="521" type="line"/>
    </contour>
  </outline>
</glyph>
<glyph name="ZWJ" format="1">
  <advance width="0"/>
  <outline>
    <contour>
      <point x="0" y="748" type="line"/>
      <point x="212" y="748" type="line"/>
      <point x="212" y="713" type="line"/>
      <point x="40" y="713" type="line"/>
      <point x="40" y="-243" type="line"/>
      <point x="0" y="-243" type="line"/>
    </contour>
  </outline>
</glyph>
<glyph name="bAuMark" format="1">
  <advance width="193"/>
  <outline>
    <contour>
      <point x="130" y="599"/>
      <point x="77" y="669"/>
      <point x="-31" y="669" type="curve" smooth="yes"/>
      <point x="-83" y="669"/>
      <point x="-182" y="653"/>
      <point x="-234" y="653" type="curve" smooth="yes"/>
      <point x="-280" y="653"/>
      <point x="-302" y="666"/>
      <point x="-302" y="689" type="curve" smooth="yes"/>
      <point x="-302" y="703"/>
      <point x="-294" y="721"/>
      <point x="-281" y="738" type="curve"/>
      <point x="-325" y="764" type="line"/>
      <point x="-344" y="740"/>
      <point x="-360" y="712"/>
      <point x="-360" y="678" type="curve" smooth="yes"/>
      <point x="-360" y="610"/>
      <point x="-296" y="564"/>
      <point x="-205" y="564" type="curve" smooth="yes"/>
      <point x="-152" y="564"/>
      <point x="-15" y="580"/>
      <point x="26" y="580" type="curve" smooth="yes"/>
      <point x="60" y="580"/>
      <point x="71" y="569"/>
      <point x="71" y="545" type="curve" smooth="yes"/>
      <point x="71" y="535"/>
      <point x="69" y="525"/>
      <point x="64" y="516" type="curve"/>
      <point x="140" y="515" type="line"/>
    </contour>
    <contour>
      <point x="63" y="0" type="line"/>
      <point x="143" y="0" type="line"/>
      <point x="143" y="467" type="line"/>
      <point x="63" y="467" type="line"/>
    </contour>
    <contour>
      <point x="223" y="456" type="line"/>
      <point x="223" y="521" type="line"/>
      <point x="-30" y="521" type="line"/>
      <point x="-30" y="456" type="line"/>
    </contour>
  </outline>
</glyph>
<glyph name="bBBa" format="1">
  <advance width="734"/>
  <outline>
    <contour>
      <point x="684" y="0" type="line"/>
      <point x="684" y="466" type="line"/>
      <point x="604" y="466" type="line"/>
      <point x="604" y="72" type="line"/>
      <point x="653" y="39" type="line"/>
      <point x="609" y="157"/>
      <point x="509" y="251"/>
      <point x="391" y="281" type="curve"/>
      <point x="404" y="215" type="line"/>
      <point x="478" y="268"/>
      <point x="573" y="312"/>
      <point x="668" y="338" type="curve"/>
      <point x="632" y="444" type="line"/>
      <point x="538" y="423"/>
      <point x="409" y="359"/>
      <point x="313" y="294" type="curve"/>
      <point x="404" y="166" type="line"/>
      <point x="511" y="151"/>
      <point x="591" y="106"/>
      <point x="624" y="0" type="curve"/>
    </contour>
    <contour>
      <point x="378" y="20" type="line"/>
      <point x="378" y="466" type="line"/>
      <point x="298" y="466" type="line"/>
      <point x="298" y="82" type="line"/>
      <point x="337" y="49" type="line"/>
      <point x="307" y="170"/>
      <point x="203" y="253"/>
      <point x="81" y="277" type="curve"/>
      <point x="88" y="213" type="line"/>
      <point x="165" y="268"/>
      <point x="263" y="312"/>
      <point x="362" y="338" type="curve"/>
      <point x="326" y="444" type="line"/>
      <point x="229" y="424"/>
      <point x="93" y="364"/>
      <point x="-5" y="293" type="curve"/>
      <point x="74" y="171" type="line"/>
      <point x="215" y="157"/>
      <point x="289" y="105"/>
      <point x="318" y="20" type="curve"/>
    </contour>
    <contour>
      <point x="458" y="456" type="line"/>
      <point x="458" y="521" type="line"/>
      <point x="-30" y="521" type="line"/>
      <point x="-30" y="456" type="line"/>
    </contour>
    <contour>
      <point x="764" y="456" type="line"/>
      <point x="764" y="521" type="line"/>
      <point x="410" y="521" type="line"/>
      <point x="410" y="456" type="line"/>
    </contour>
  </outline>
</glyph>
<glyph name="bBDRa" format="1">
  <advance width="682"/>
  <outline>
    <contour>
      <point x="593" y="-67" type="line"/>
      <point x="581" y="-10"/>
      <point x="576" y="44"/>
      <point x="576" y="89" type="curve" smooth="yes"/>
      <point x="576" y="179"/>
      <point x="596" y="248"/>
      <point x="657" y="330" type="curve"/>
      <point x="560" y="417" type="line"/>
      <point x="464" y="382"/>
      <point x="379" y="301"/>
      <point x="329" y="207" type="curve"/>
      <point x="374" y="150" type="line"/>
      <point x="374" y="467" type="line"/>
      <point x="294" y="467" type="line"/>
      <point x="294" y="143" type="line"/>
      <point x="381" y="103" type="line"/>
      <point x="438" y="203"/>
      <point x="511" y="269"/>
      <point x="582" y="305" type="curve"/>
      <point x="557" y="375" type="line"/>
      <point x="520" y="326"/>
      <point x="504" y="234"/>
      <point x="504" y="152" type="curve" smooth="yes"/>
      <point x="504" y="88"/>
      <point x="514" y="31"/>
      <point x="527" y="-31" type="curve"/>
      <point x="548" y="-20" type="line"/>
      <point x="520" y="35"/>
      <point x="458" y="73"/>
      <point x="393" y="73" type="curve" smooth="yes"/>
      <point x="361" y="73"/>
      <point x="226" y="64"/>
      <point x="183" y="64" type="curve" smooth="yes"/>
      <point x="117" y="64"/>
      <point x="89" y="85"/>
      <point x="89" y="126" type="curve" smooth="yes"/>
      <point x="89" y="142"/>
      <point x="93" y="161"/>
      <point x="98" y="174" type="curve"/>
      <point x="52" y="189" type="line"/>
      <point x="42" y="168"/>
      <point x="36" y="142"/>
      <point x="36" y="118" type="curve" smooth="yes"/>
      <point x="36" y="35"/>
      <point x="108" y="-32"/>
      <point x="222" y="-32" type="curve" smooth="yes"/>
      <point x="279" y="-32"/>
      <point x="390" y="-15"/>
      <point x="447" y="-15" type="curve" smooth="yes"/>
      <point x="494" y="-15"/>
      <point x="524" y="-27"/>
      <point x="535" y="-76" type="curve"/>
    </contour>
    <contour>
      <point x="331" y="163" type="line"/>
      <point x="285" y="255"/>
      <point x="197" y="316"/>
      <point x="85" y="334" type="curve"/>
      <point x="133" y="272" type="line"/>
      <point x="216" y="317"/>
      <point x="271" y="338"/>
      <point x="346" y="351" type="curve"/>
      <point x="323" y="443" type="line"/>
      <point x="256" y="432"/>
      <point x="153" y="400"/>
      <point x="51" y="348" type="curve"/>
      <point x="111" y="243" type="line"/>
      <point x="203" y="223"/>
      <point x="258" y="197"/>
      <point x="294" y="143" type="curve"/>
    </contour>
    <contour>
      <point x="493" y="456" type="line"/>
      <point x="493" y="521" type="line"/>
      <point x="-30" y="521" type="line"/>
      <point x="-30" y="456" type="line"/>
    </contour>
    <contour>
      <point x="712" y="456" type="line"/>
      <point x="712" y="521" type="line"/>
      <point x="220" y="521" type="line"/>
      <point x="220" y="456" type="line"/>
    </contour>
  </outline>
</glyph>
<glyph name="bBhBa" format="1">
  <advance width="413"/>
  <outline>
    <contour>
      <point x="443" y="456" type="line"/>
      <point x="443" y="521" type="line"/>
      <point x="-30" y="521" type="line"/>
      <point x="-30" y="456" type="line"/>
    </contour>
    <contour>
      <point x="373" y="169" type="line"/>
      <point x="373" y="240" type="line" smooth="yes"/>
      <point x="373" y="317"/>
      <point x="336" y="379"/>
      <point x="290" y="410" type="curve"/>
      <point x="242" y="359"/>
      <point x="188" y="320"/>
      <point x="138" y="320" type="curve" smooth="yes"/>
      <point x="127" y="320"/>
      <point x="114" y="322"/>
      <point x="104" y="327" type="curve"/>
      <point x="138" y="266" type="line"/>
      <point x="160" y="282"/>
      <point x="173" y="305"/>
      <point x="173" y="334" type="curve" smooth="yes"/>
      <point x="173" y="385"/>
      <point x="135" y="413"/>
      <point x="96" y="413" type="curve" smooth="yes"/>
      <point x="52" y="413"/>
      <point x="13" y="377"/>
      <point x="13" y="329" type="curve" smooth="yes"/>
      <point x="13" y="275"/>
      <point x="61" y="221"/>
      <point x="141" y="221" type="curve" smooth="yes"/>
      <point x="218" y="221"/>
      <point x="302" y="271"/>
      <point x="341" y="323" type="curve"/>
      <point x="266" y="326" type="line"/>
      <point x="278" y="317"/>
      <point x="293" y="294"/>
      <point x="293" y="260" type="curve" smooth="yes"/>
      <point x="293" y="169" type="line"/>
    </contour>
    <contour>
      <point x="373" y="-120" type="line"/>
      <point x="373" y="208" type="line"/>
      <point x="293" y="207" type="line"/>
      <point x="293" y="-60" type="line"/>
      <point x="341" y="-97" type="line"/>
      <point x="308" y="2"/>
      <point x="208" y="85"/>
      <point x="93" y="104" type="curve"/>
      <point x="138" y="47" type="line"/>
      <point x="207" y="87"/>
      <point x="287" y="122"/>
      <point x="361" y="147" type="curve"/>
      <point x="328" y="240" type="line"/>
      <point x="265" y="218"/>
      <point x="162" y="178"/>
      <point x="53" y="115" type="curve"/>
      <point x="118" y="13" type="line"/>
      <point x="218" y="-2"/>
      <point x="287" y="-46"/>
      <point x="313" y="-120" type="curve"/>
    </contour>
  </outline>
</glyph>
<glyph name="bBhRa" format="1">
  <advance width="526"/>
  <outline>
    <contour>
      <point x="486" y="-35" type="line"/>
      <point x="486" y="240" type="line" smooth="yes"/>
      <point x="486" y="317"/>
      <point x="449" y="379"/>
      <point x="403" y="410" type="curve"/>
      <point x="358" y="359"/>
      <point x="308" y="320"/>
      <point x="260" y="320" type="curve" smooth="yes"/>
      <point x="250" y="320"/>
      <point x="237" y="322"/>
      <point x="227" y="327" type="curve"/>
      <point x="261" y="266" type="line"/>
      <point x="283" y="282"/>
      <point x="296" y="305"/>
      <point x="296" y="334" type="curve" smooth="yes"/>
      <point x="296" y="385"/>
      <point x="258" y="413"/>
      <point x="219" y="413" type="curve" smooth="yes"/>
      <point x="175" y="413"/>
      <point x="136" y="377"/>
      <point x="136" y="329" type="curve" smooth="yes"/>
      <point x="136" y="275"/>
      <point x="184" y="221"/>
      <point x="265" y="221" type="curve" smooth="yes"/>
      <point x="343" y="221"/>
      <point x="417" y="271"/>
      <point x="454" y="323" type="curve"/>
      <point x="379" y="326" type="line"/>
      <point x="391" y="317"/>
      <point x="406" y="294"/>
      <point x="406" y="260" type="curve" smooth="yes"/>
      <point x="406" y="46" type="line"/>
      <point x="447" y="-2" type="line"/>
      <point x="425" y="76"/>
      <point x="375" y="125"/>
      <point x="301" y="125" type="curve" smooth="yes"/>
      <point x="275" y="125"/>
      <point x="186" y="119"/>
      <point x="157" y="119" type="curve" smooth="yes"/>
      <point x="103" y="119"/>
      <point x="70" y="140"/>
      <point x="70" y="195" type="curve" smooth="yes"/>
      <point x="70" y="226"/>
      <point x="81" y="262"/>
      <point x="95" y="288" type="curve"/>
      <point x="50" y="312" type="line"/>
      <point x="24" y="273"/>
      <point x="11" y="231"/>
      <point x="11" y="189" type="curve" smooth="yes"/>
      <point x="11" y="90"/>
      <point x="81" y="18"/>
      <point x="190" y="18" type="curve" smooth="yes"/>
      <point x="231" y="18"/>
      <point x="309" y="28"/>
      <point x="347" y="28" type="curve" smooth="yes"/>
      <point x="403" y="28"/>
      <point x="424" y="6"/>
      <point x="426" y="-35" type="curve"/>
    </contour>
    <contour>
      <point x="556" y="456" type="line"/>
      <point x="556" y="521" type="line"/>
      <point x="-30" y="521" type="line"/>
      <point x="-30" y="456" type="line"/>
    </contour>
  </outline>
</glyph>
<glyph name="bCBa" format="1">
  <advance width="397"/>
  <outline>
    <contour>
      <point x="254" y="40"/>
      <point x="378" y="145"/>
      <point x="378" y="225" type="curve" smooth="yes"/>
      <point x="378" y="264"/>
      <point x="352" y="301"/>
      <point x="333" y="323" type="curve" smooth="yes"/>
      <point x="280" y="385"/>
      <point x="241" y="383"/>
      <point x="202" y="394" type="curve" smooth="yes"/>
      <point x="174" y="402"/>
      <point x="132" y="415"/>
      <point x="132" y="467" type="curve"/>
      <point x="52" y="467" type="line"/>
      <point x="52" y="197" type="line" smooth="yes"/>
      <point x="52" y="103"/>
      <point x="121" y="40"/>
      <point x="177" y="40" type="curve" smooth="yes"/>
    </contour>
    <contour>
      <point x="139" y="133"/>
      <point x="132" y="138"/>
      <point x="132" y="162" type="curve" smooth="yes"/>
      <point x="132" y="413" type="line"/>
      <point x="92" y="440" type="line"/>
      <point x="117" y="338"/>
      <point x="158" y="298"/>
      <point x="242" y="281" type="curve" smooth="yes"/>
      <point x="269" y="276"/>
      <point x="276" y="273"/>
      <point x="276" y="260" type="curve" smooth="yes"/>
      <point x="276" y="217"/>
      <point x="193" y="133"/>
      <point x="150" y="133" type="curve" smooth="yes"/>
    </contour>
    <contour>
      <point x="312" y="-121" type="line"/>
      <point x="312" y="119" type="line"/>
      <point x="257" y="166" type="line"/>
      <point x="171" y="124"/>
      <point x="117" y="98"/>
      <point x="29" y="47" type="curve"/>
      <point x="98" y="-54" type="line"/>
      <point x="178" y="-67"/>
      <point x="232" y="-82"/>
      <point x="252" y="-121" type="curve"/>
    </contour>
    <contour>
      <point x="276" y="-89" type="line"/>
      <point x="246" y="-32"/>
      <point x="185" y="11"/>
      <point x="86" y="33" type="curve"/>
      <point x="121" y="-9" type="line"/>
      <point x="184" y="31"/>
      <point x="243" y="59"/>
      <point x="294" y="82" type="curve"/>
      <point x="242" y="94" type="line"/>
      <point x="242" y="-60" type="line"/>
    </contour>
    <contour>
      <point x="427" y="456" type="line"/>
      <point x="427" y="521" type="line"/>
      <point x="-30" y="521" type="line"/>
      <point x="-30" y="456" type="line"/>
    </contour>
  </outline>
</glyph>
<glyph name="bCRa" format="1">
  <advance width="447"/>
  <outline>
    <contour>
      <point x="304" y="40"/>
      <point x="428" y="145"/>
      <point x="428" y="225" type="curve" smooth="yes"/>
      <point x="428" y="264"/>
      <point x="402" y="301"/>
      <point x="383" y="323" type="curve" smooth="yes"/>
      <point x="330" y="385"/>
      <point x="291" y="383"/>
      <point x="252" y="394" type="curve" smooth="yes"/>
      <point x="224" y="402"/>
      <point x="182" y="415"/>
      <point x="182" y="467" type="curve"/>
      <point x="102" y="467" type="line"/>
      <point x="102" y="197" type="line" smooth="yes"/>
      <point x="102" y="103"/>
      <point x="171" y="40"/>
      <point x="227" y="40" type="curve" smooth="yes"/>
    </contour>
    <contour>
      <point x="189" y="133"/>
      <point x="182" y="138"/>
      <point x="182" y="162" type="curve" smooth="yes"/>
      <point x="182" y="413" type="line"/>
      <point x="142" y="440" type="line"/>
      <point x="167" y="338"/>
      <point x="208" y="298"/>
      <point x="292" y="281" type="curve" smooth="yes"/>
      <point x="319" y="276"/>
      <point x="326" y="273"/>
      <point x="326" y="260" type="curve" smooth="yes"/>
      <point x="326" y="217"/>
      <point x="243" y="133"/>
      <point x="200" y="133" type="curve" smooth="yes"/>
    </contour>
    <contour>
      <point x="372" y="-121" type="line"/>
      <point x="372" y="167" type="line"/>
      <point x="302" y="167" type="line"/>
      <point x="302" y="-67" type="line"/>
      <point x="332" y="-94" type="line"/>
      <point x="314" y="-27"/>
      <point x="267" y="17"/>
      <point x="199" y="17" type="curve" smooth="yes"/>
      <point x="185" y="17"/>
      <point x="130" y="15"/>
      <point x="120" y="15" type="curve" smooth="yes"/>
      <point x="87" y="15"/>
      <point x="69" y="36"/>
      <point x="69" y="69" type="curve" smooth="yes"/>
      <point x="69" y="90"/>
      <point x="76" y="116"/>
      <point x="82" y="133" type="curve"/>
      <point x="35" y="151" type="line"/>
      <point x="24" y="129"/>
      <point x="16" y="98"/>
      <point x="16" y="67" type="curve" smooth="yes"/>
      <point x="16" y="-15"/>
      <point x="73" y="-77"/>
      <point x="151" y="-77" type="curve" smooth="yes"/>
      <point x="171" y="-77"/>
      <point x="230" y="-73"/>
      <point x="250" y="-73" type="curve" smooth="yes"/>
      <point x="284" y="-73"/>
      <point x="306" y="-84"/>
      <point x="312" y="-121" type="curve"/>
    </contour>
    <contour>
      <point x="477" y="456" type="line"/>
      <point x="477" y="521" type="line"/>
      <point x="-30" y="521" type="line"/>
      <point x="-30" y="456" type="line"/>
    </contour>
  </outline>
</glyph>
<glyph name="bCa" format="1">
  <advance width="398"/>
  <outline>
    <contour>
      <point x="258" y="0"/>
      <point x="379" y="128"/>
      <point x="379" y="209" type="curve" smooth="yes"/>
      <point x="379" y="252"/>
      <point x="356" y="287"/>
      <point x="333" y="313" type="curve" smooth="yes"/>
      <point x="300" y="351"/>
      <point x="276" y="369"/>
      <point x="202" y="384" type="curve" smooth="yes"/>
      <point x="147" y="394"/>
      <point x="122" y="430"/>
      <point x="122" y="467" type="curve"/>
      <point x="42" y="467" type="line"/>
      <point x="42" y="167" type="line" smooth="yes"/>
      <point x="42" y="68"/>
      <point x="116" y="0"/>
      <point x="168" y="0" type="curve" smooth="yes"/>
    </contour>
    <contour>
      <point x="129" y="97"/>
      <point x="122" y="104"/>
      <point x="122" y="132" type="curve" smooth="yes"/>
      <point x="122" y="413" type="line"/>
      <point x="82" y="440" type="line"/>
      <point x="105" y="340"/>
      <point x="152" y="286"/>
      <point x="242" y="271" type="curve" smooth="yes"/>
      <point x="270" y="266"/>
      <point x="276" y="263"/>
      <point x="276" y="246" type="curve" smooth="yes"/>
      <point x="276" y="200"/>
      <point x="187" y="97"/>
      <point x="139" y="97" type="curve" smooth="yes"/>
    </contour>
    <contour>
      <point x="428" y="456" type="line"/>
      <point x="428" y="521" type="line"/>
      <point x="-30" y="521" type="line"/>
      <point x="-30" y="456" type="line"/>
    </contour>
  </outline>
</glyph>
<glyph name="bCandrabindu" format="1">
  <advance width="0"/>
  <outline>
    <contour>
      <point x="-20" y="686"/>
      <point x="-53" y="662"/>
      <point x="-94" y="662" type="curve" smooth="yes"/>
      <point x="-132" y="662"/>
      <point x="-168" y="683"/>
      <point x="-195" y="737" type="curve"/>
      <point x="-239" y="712" type="line"/>
      <point x="-196" y="619"/>
      <point x="-151" y="580"/>
      <point x="-88" y="580" type="curve" smooth="yes"/>
      <point x="-19" y="580"/>
      <point x="19" y="625"/>
      <point x="52" y="706" type="curve"/>
      <point x="3" y="733" type="line"/>
    </contour>
    <contour>
      <point x="-67" y="697"/>
      <point x="-46" y="718"/>
      <point x="-46" y="744" type="curve" smooth="yes"/>
      <point x="-46" y="770"/>
      <point x="-67" y="791"/>
      <point x="-93" y="791" type="curve" smooth="yes"/>
      <point x="-120" y="791"/>
      <point x="-141" y="770"/>
      <point x="-141" y="744" type="curve" smooth="yes"/>
      <point x="-141" y="718"/>
      <point x="-120" y="697"/>
      <point x="-93" y="697" type="curve" smooth="yes"/>
    </contour>
  </outline>
</glyph>
<glyph name="bDBhRa" format="1">
  <advance width="486"/>
  <outline>
    <contour>
      <point x="472" y="-156" type="line"/>
      <point x="472" y="55" type="line" smooth="yes"/>
      <point x="472" y="123"/>
      <point x="433" y="185"/>
      <point x="394" y="218" type="curve"/>
      <point x="350" y="160"/>
      <point x="302" y="125"/>
      <point x="258" y="125" type="curve" smooth="yes"/>
      <point x="248" y="125"/>
      <point x="230" y="127"/>
      <point x="217" y="132" type="curve"/>
      <point x="224" y="86" type="line"/>
      <point x="256" y="101"/>
      <point x="270" y="119"/>
      <point x="270" y="146" type="curve" smooth="yes"/>
      <point x="270" y="184"/>
      <point x="241" y="211"/>
      <point x="206" y="211" type="curve" smooth="yes"/>
      <point x="168" y="211"/>
      <point x="140" y="178"/>
      <point x="140" y="139" type="curve" smooth="yes"/>
      <point x="140" y="87"/>
      <point x="191" y="36"/>
      <point x="270" y="36" type="curve" smooth="yes"/>
      <point x="347" y="36"/>
      <point x="407" y="88"/>
      <point x="435" y="137" type="curve"/>
      <point x="363" y="146" type="line"/>
      <point x="378" y="136"/>
      <point x="392" y="112"/>
      <point x="392" y="83" type="curve" smooth="yes"/>
      <point x="392" y="-75" type="line"/>
      <point x="433" y="-123" type="line"/>
      <point x="413" y="-49"/>
      <point x="369" y="4"/>
      <point x="298" y="4" type="curve" smooth="yes"/>
      <point x="273" y="4"/>
      <point x="201" y="-2"/>
      <point x="170" y="-2" type="curve" smooth="yes"/>
      <point x="112" y="-2"/>
      <point x="75" y="20"/>
      <point x="75" y="75" type="curve" smooth="yes"/>
      <point x="75" y="105"/>
      <point x="86" y="141"/>
      <point x="100" y="167" type="curve"/>
      <point x="55" y="191" type="line"/>
      <point x="29" y="152"/>
      <point x="16" y="110"/>
      <point x="16" y="68" type="curve" smooth="yes"/>
      <point x="16" y="-31"/>
      <point x="91" y="-103"/>
      <point x="203" y="-103" type="curve" smooth="yes"/>
      <point x="245" y="-103"/>
      <point x="307" y="-93"/>
      <point x="344" y="-93" type="curve" smooth="yes"/>
      <point x="395" y="-93"/>
      <point x="410" y="-118"/>
      <point x="412" y="-156" type="curve"/>
    </contour>
    <contour>
      <point x="363" y="136"/>
      <point x="359" y="158"/>
      <point x="359" y="194" type="curve" smooth="yes"/>
      <point x="359" y="265"/>
      <point x="375" y="302"/>
      <point x="423" y="357" type="curve"/>
      <point x="327" y="435" type="line"/>
      <point x="248" y="412"/>
      <point x="187" y="374"/>
      <point x="131" y="317" type="curve"/>
      <point x="176" y="280" type="line"/>
      <point x="176" y="467" type="line"/>
      <point x="96" y="467" type="line"/>
      <point x="96" y="299" type="line"/>
      <point x="183" y="226" type="line"/>
      <point x="242" y="287"/>
      <point x="291" y="315"/>
      <point x="350" y="334" type="curve"/>
      <point x="330" y="385" type="line"/>
      <point x="304" y="355"/>
      <point x="292" y="300"/>
      <point x="292" y="243" type="curve" smooth="yes"/>
      <point x="292" y="200"/>
      <point x="299" y="156"/>
      <point x="313" y="109" type="curve"/>
      <point x="369" y="102" type="line"/>
    </contour>
    <contour>
      <point x="516" y="456" type="line"/>
      <point x="516" y="521" type="line"/>
      <point x="-30" y="521" type="line"/>
      <point x="-30" y="456" type="line"/>
    </contour>
  </outline>
</glyph>
<glyph name="bDDBa" format="1">
  <advance width="594"/>
  <outline>
    <contour>
      <point x="518" y="-119" type="line"/>
      <point x="506" y="-49"/>
      <point x="502" y="23"/>
      <point x="502" y="59" type="curve" smooth="yes"/>
      <point x="502" y="144"/>
      <point x="523" y="189"/>
      <point x="579" y="256" type="curve"/>
      <point x="484" y="337" type="line"/>
      <point x="396" y="299"/>
      <point x="318" y="221"/>
      <point x="269" y="134" type="curve"/>
      <point x="309" y="142" type="line"/>
      <point x="309" y="219"/>
      <point x="328" y="274"/>
      <point x="385" y="347" type="curve"/>
      <point x="289" y="425" type="line"/>
      <point x="204" y="388"/>
      <point x="127" y="317"/>
      <point x="79" y="237" type="curve"/>
      <point x="124" y="190" type="line"/>
      <point x="124" y="467" type="line"/>
      <point x="44" y="467" type="line"/>
      <point x="44" y="209" type="line"/>
      <point x="131" y="128" type="line"/>
      <point x="183" y="219"/>
      <point x="248" y="281"/>
      <point x="312" y="314" type="curve"/>
      <point x="292" y="375" type="line"/>
      <point x="254" y="339"/>
      <point x="237" y="277"/>
      <point x="237" y="207" type="curve" smooth="yes"/>
      <point x="237" y="183"/>
      <point x="239" y="155"/>
      <point x="243" y="126" type="curve"/>
      <point x="321" y="65" type="line"/>
      <point x="374" y="139"/>
      <point x="440" y="198"/>
      <point x="506" y="229" type="curve"/>
      <point x="486" y="290" type="line"/>
      <point x="448" y="243"/>
      <point x="433" y="188"/>
      <point x="433" y="120" type="curve" smooth="yes"/>
      <point x="433" y="59"/>
      <point x="445" y="-36"/>
      <point x="463" y="-128" type="curve"/>
    </contour>
    <contour>
      <point x="487" y="-96" type="line"/>
      <point x="461" y="-54"/>
      <point x="407" y="-21"/>
      <point x="320" y="-5" type="curve"/>
      <point x="355" y="-37" type="line"/>
      <point x="407" y="-4"/>
      <point x="455" y="20"/>
      <point x="498" y="34" type="curve"/>
      <point x="461" y="118" type="line"/>
      <point x="387" y="83"/>
      <point x="339" y="56"/>
      <point x="263" y="9" type="curve"/>
      <point x="332" y="-82" type="line"/>
      <point x="400" y="-84"/>
      <point x="446" y="-101"/>
      <point x="463" y="-128" type="curve"/>
    </contour>
    <contour>
      <point x="624" y="456" type="line"/>
      <point x="624" y="521" type="line"/>
      <point x="-30" y="521" type="line"/>
      <point x="-30" y="456" type="line"/>
    </contour>
  </outline>
</glyph>
<glyph name="bDDRa" format="1">
  <advance width="645"/>
  <outline>
    <contour>
      <point x="572" y="-95" type="line"/>
      <point x="559" y="-38"/>
      <point x="554" y="18"/>
      <point x="554" y="56" type="curve" smooth="yes"/>
      <point x="554" y="135"/>
      <point x="576" y="187"/>
      <point x="630" y="256" type="curve"/>
      <point x="535" y="337" type="line"/>
      <point x="447" y="299"/>
      <point x="370" y="220"/>
      <point x="321" y="132" type="curve"/>
      <point x="358" y="135" type="line"/>
      <point x="358" y="215"/>
      <point x="378" y="272"/>
      <point x="436" y="347" type="curve"/>
      <point x="340" y="425" type="line"/>
      <point x="255" y="388"/>
      <point x="178" y="317"/>
      <point x="130" y="237" type="curve"/>
      <point x="175" y="190" type="line"/>
      <point x="175" y="467" type="line"/>
      <point x="95" y="467" type="line"/>
      <point x="95" y="209" type="line"/>
      <point x="182" y="128" type="line"/>
      <point x="234" y="219"/>
      <point x="299" y="281"/>
      <point x="363" y="314" type="curve"/>
      <point x="343" y="375" type="line"/>
      <point x="305" y="338"/>
      <point x="288" y="273"/>
      <point x="288" y="201" type="curve" smooth="yes"/>
      <point x="288" y="176"/>
      <point x="290" y="148"/>
      <point x="294" y="119" type="curve"/>
      <point x="384" y="63" type="line"/>
      <point x="434" y="144"/>
      <point x="495" y="200"/>
      <point x="557" y="230" type="curve"/>
      <point x="537" y="290" type="line"/>
      <point x="499" y="239"/>
      <point x="482" y="164"/>
      <point x="482" y="100" type="curve" smooth="yes"/>
      <point x="482" y="56"/>
      <point x="490" y="8"/>
      <point x="503" y="-44" type="curve"/>
      <point x="522" y="-45" type="line"/>
      <point x="494" y="5"/>
      <point x="430" y="38"/>
      <point x="367" y="38" type="curve" smooth="yes"/>
      <point x="338" y="38"/>
      <point x="214" y="31"/>
      <point x="175" y="31" type="curve" smooth="yes"/>
      <point x="101" y="31"/>
      <point x="69" y="57"/>
      <point x="69" y="106" type="curve" smooth="yes"/>
      <point x="69" y="126"/>
      <point x="74" y="145"/>
      <point x="80" y="160" type="curve"/>
      <point x="35" y="178" type="line"/>
      <point x="23" y="153"/>
      <point x="16" y="124"/>
      <point x="16" y="97" type="curve" smooth="yes"/>
      <point x="16" y="8"/>
      <point x="92" y="-65"/>
      <point x="212" y="-65" type="curve" smooth="yes"/>
      <point x="267" y="-65"/>
      <point x="376" y="-50"/>
      <point x="430" y="-50" type="curve" smooth="yes"/>
      <point x="480" y="-50"/>
      <point x="503" y="-63"/>
      <point x="514" y="-104" type="curve"/>
    </contour>
    <contour>
      <point x="675" y="456" type="line"/>
      <point x="675" y="521" type="line"/>
      <point x="-30" y="521" type="line"/>
      <point x="-30" y="456" type="line"/>
    </contour>
  </outline>
</glyph>
<glyph name="bDRa_bSignU" format="1">
  <advance width="700"/>
  <outline>
    <contour>
      <point x="440" y="-25" type="line"/>
      <point x="426" y="39"/>
      <point x="420" y="101"/>
      <point x="420" y="145" type="curve" smooth="yes"/>
      <point x="420" y="221"/>
      <point x="438" y="275"/>
      <point x="493" y="340" type="curve"/>
      <point x="396" y="427" type="line"/>
      <point x="296" y="396"/>
      <point x="207" y="327"/>
      <point x="155" y="247" type="curve"/>
      <point x="200" y="200" type="line"/>
      <point x="200" y="467" type="line"/>
      <point x="120" y="467" type="line"/>
      <point x="120" y="219" type="line"/>
      <point x="207" y="138" type="line"/>
      <point x="267" y="225"/>
      <point x="343" y="284"/>
      <point x="418" y="315" type="curve"/>
      <point x="393" y="385" type="line"/>
      <point x="362" y="346"/>
      <point x="348" y="275"/>
      <point x="348" y="206" type="curve" smooth="yes"/>
      <point x="348" y="140"/>
      <point x="361" y="69"/>
      <point x="379" y="-4" type="curve"/>
      <point x="403" y="-11" type="line"/>
      <point x="378" y="69"/>
      <point x="320" y="111"/>
      <point x="251" y="111" type="curve" smooth="yes"/>
      <point x="225" y="111"/>
      <point x="177" y="105"/>
      <point x="150" y="105" type="curve" smooth="yes"/>
      <point x="97" y="105"/>
      <point x="69" y="129"/>
      <point x="69" y="176" type="curve" smooth="yes"/>
      <point x="69" y="198"/>
      <point x="75" y="222"/>
      <point x="83" y="240" type="curve"/>
      <point x="38" y="259" type="line"/>
      <point x="23" y="232"/>
      <point x="16" y="198"/>
      <point x="16" y="169" type="curve" smooth="yes"/>
      <point x="16" y="79"/>
      <point x="85" y="11"/>
      <point x="183" y="11" type="curve" smooth="yes"/>
      <point x="220" y="11"/>
      <point x="267" y="21"/>
      <point x="303" y="21" type="curve" smooth="yes"/>
      <point x="355" y="21"/>
      <point x="372" y="1"/>
      <point x="382" y="-34" type="curve"/>
    </contour>
    <contour>
      <point x="627" y="92"/>
      <point x="674" y="140"/>
      <point x="674" y="209" type="curve" smooth="yes"/>
      <point x="674" y="281"/>
      <point x="622" y="345"/>
      <point x="561" y="345" type="curve" smooth="yes"/>
      <point x="521" y="345"/>
      <point x="493" y="318"/>
      <point x="493" y="283" type="curve" smooth="yes"/>
      <point x="493" y="248"/>
      <point x="521" y="222"/>
      <point x="555" y="222" type="curve" smooth="yes"/>
      <point x="586" y="222"/>
      <point x="609" y="245"/>
      <point x="609" y="273" type="curve" smooth="yes"/>
      <point x="609" y="283"/>
      <point x="606" y="294"/>
      <point x="601" y="300" type="curve"/>
      <point x="572" y="267" type="line"/>
      <point x="579" y="269"/>
      <point x="587" y="270"/>
      <point x="592" y="270" type="curve" smooth="yes"/>
      <point x="610" y="270"/>
      <point x="620" y="255"/>
      <point x="620" y="237" type="curve" smooth="yes"/>
      <point x="620" y="206"/>
      <point x="591" y="182"/>
      <point x="551" y="182" type="curve" smooth="yes"/>
      <point x="509" y="182"/>
      <point x="461" y="208"/>
      <point x="434" y="284" type="curve"/>
      <point x="406" y="258" type="line"/>
      <point x="440" y="150"/>
      <point x="496" y="92"/>
      <point x="565" y="92" type="curve" smooth="yes"/>
    </contour>
    <contour>
      <point x="730" y="456" type="line"/>
      <point x="730" y="521" type="line"/>
      <point x="-30" y="521" type="line"/>
      <point x="-30" y="456" type="line"/>
    </contour>
  </outline>
</glyph>
<glyph name="bDRa_bSignUu" format="1">
  <advance width="614"/>
  <outline>
    <contour>
      <point x="440" y="-25" type="line"/>
      <point x="426" y="39"/>
      <point x="420" y="101"/>
      <point x="420" y="145" type="curve" smooth="yes"/>
      <point x="420" y="225"/>
      <point x="437" y="292"/>
      <point x="489" y="350" type="curve"/>
      <point x="396" y="427" type="line"/>
      <point x="296" y="396"/>
      <point x="207" y="327"/>
      <point x="155" y="247" type="curve"/>
      <point x="200" y="200" type="line"/>
      <point x="200" y="467" type="line"/>
      <point x="120" y="467" type="line"/>
      <point x="120" y="219" type="line"/>
      <point x="207" y="138" type="line"/>
      <point x="267" y="225"/>
      <point x="343" y="284"/>
      <point x="418" y="315" type="curve"/>
      <point x="393" y="385" type="line"/>
      <point x="362" y="346"/>
      <point x="348" y="275"/>
      <point x="348" y="206" type="curve" smooth="yes"/>
      <point x="348" y="140"/>
      <point x="361" y="69"/>
      <point x="379" y="-4" type="curve"/>
      <point x="403" y="-11" type="line"/>
      <point x="378" y="69"/>
      <point x="320" y="111"/>
      <point x="251" y="111" type="curve" smooth="yes"/>
      <point x="225" y="111"/>
      <point x="177" y="105"/>
      <point x="150" y="105" type="curve" smooth="yes"/>
      <point x="97" y="105"/>
      <point x="69" y="129"/>
      <point x="69" y="176" type="curve" smooth="yes"/>
      <point x="69" y="198"/>
      <point x="75" y="222"/>
      <point x="83" y="240" type="curve"/>
      <point x="38" y="259" type="line"/>
      <point x="23" y="232"/>
      <point x="16" y="198"/>
      <point x="16" y="169" type="curve" smooth="yes"/>
      <point x="16" y="79"/>
      <point x="85" y="11"/>
      <point x="183" y="11" type="curve" smooth="yes"/>
      <point x="220" y="11"/>
      <point x="267" y="21"/>
      <point x="303" y="21" type="curve" smooth="yes"/>
      <point x="355" y="21"/>
      <point x="372" y="1"/>
      <point x="382" y="-34" type="curve"/>
    </contour>
    <contour>
      <point x="587" y="12" type="line"/>
      <point x="571" y="26"/>
      <point x="564" y="43"/>
      <point x="564" y="64" type="curve" smooth="yes"/>
      <point x="564" y="185" type="line" smooth="yes"/>
      <point x="564" y="231"/>
      <point x="511" y="292"/>
      <point x="471" y="292" type="curve" smooth="yes"/>
      <point x="450" y="292"/>
      <point x="420" y="274"/>
      <point x="383" y="223" type="curve"/>
      <point x="408" y="159" type="line"/>
      <point x="436" y="198"/>
      <point x="464" y="216"/>
      <point x="478" y="216" type="curve" smooth="yes"/>
      <point x="484" y="216"/>
      <point x="487" y="214"/>
      <point x="487" y="206" type="curve" smooth="yes"/>
      <point x="487" y="82" type="line" smooth="yes"/>
      <point x="487" y="27"/>
      <point x="515" y="-1"/>
      <point x="554" y="-25" type="curve"/>
    </contour>
    <contour>
      <point x="644" y="456" type="line"/>
      <point x="644" y="521" type="line"/>
      <point x="-30" y="521" type="line"/>
      <point x="-30" y="456" type="line"/>
    </contour>
  </outline>
</glyph>
<glyph name="bDdBa" format="1">
  <advance width="503"/>
  <outline>
    <contour>
      <point x="402" y="44"/>
      <point x="472" y="116"/>
      <point x="472" y="219" type="curve" smooth="yes"/>
      <point x="472" y="309"/>
      <point x="419" y="375"/>
      <point x="370" y="417" type="curve"/>
      <point x="325" y="347"/>
      <point x="279" y="305"/>
      <point x="256" y="305" type="curve" smooth="yes"/>
      <point x="246" y="305"/>
      <point x="243" y="313"/>
      <point x="243" y="324" type="curve" smooth="yes"/>
      <point x="243" y="466" type="line"/>
      <point x="163" y="466" type="line"/>
      <point x="163" y="359" type="line" smooth="yes"/>
      <point x="163" y="285"/>
      <point x="220" y="207"/>
      <point x="283" y="207" type="curve" smooth="yes"/>
      <point x="329" y="207"/>
      <point x="390" y="248"/>
      <point x="422" y="307" type="curve"/>
      <point x="350" y="337" type="line"/>
      <point x="385" y="317"/>
      <point x="402" y="283"/>
      <point x="402" y="251" type="curve" smooth="yes"/>
      <point x="402" y="195"/>
      <point x="348" y="153"/>
      <point x="275" y="153" type="curve" smooth="yes"/>
      <point x="194" y="153"/>
      <point x="107" y="206"/>
      <point x="48" y="422" type="curve"/>
      <point x="-10" y="404" type="line"/>
      <point x="67" y="133"/>
      <point x="176" y="44"/>
      <point x="295" y="44" type="curve" smooth="yes"/>
    </contour>
    <contour>
      <point x="424" y="-128" type="line"/>
      <point x="424" y="112" type="line"/>
      <point x="369" y="159" type="line"/>
      <point x="283" y="117"/>
      <point x="229" y="91"/>
      <point x="141" y="40" type="curve"/>
      <point x="210" y="-61" type="line"/>
      <point x="290" y="-74"/>
      <point x="344" y="-89"/>
      <point x="364" y="-128" type="curve"/>
    </contour>
    <contour>
      <point x="388" y="-96" type="line"/>
      <point x="358" y="-39"/>
      <point x="297" y="4"/>
      <point x="198" y="26" type="curve"/>
      <point x="233" y="-16" type="line"/>
      <point x="296" y="24"/>
      <point x="355" y="52"/>
      <point x="406" y="75" type="curve"/>
      <point x="354" y="87" type="line"/>
      <point x="354" y="-67" type="line"/>
    </contour>
    <contour>
      <point x="533" y="456" type="line"/>
      <point x="533" y="521" type="line"/>
      <point x="-30" y="521" type="line"/>
      <point x="-30" y="456" type="line"/>
    </contour>
  </outline>
</glyph>
<glyph name="bDdMa" format="1">
  <advance width="600"/>
  <outline>
    <contour>
      <point x="504" y="-110" type="line"/>
      <point x="504" y="467" type="line"/>
      <point x="424" y="467" type="line"/>
      <point x="424" y="-45" type="line"/>
      <point x="487" y="-108" type="line"/>
      <point x="463" y="-8"/>
      <point x="387" y="71"/>
      <point x="312" y="71" type="curve" smooth="yes"/>
      <point x="262" y="71"/>
      <point x="215" y="36"/>
      <point x="215" y="-16" type="curve" smooth="yes"/>
      <point x="215" y="-62"/>
      <point x="252" y="-96"/>
      <point x="297" y="-96" type="curve" smooth="yes"/>
      <point x="344" y="-96"/>
      <point x="378" y="-60"/>
      <point x="378" y="-15" type="curve" smooth="yes"/>
      <point x="378" y="5"/>
      <point x="371" y="30"/>
      <point x="346" y="49" type="curve"/>
      <point x="341" y="-38" type="line"/>
      <point x="352" y="-30"/>
      <point x="363" y="-27"/>
      <point x="375" y="-27" type="curve" smooth="yes"/>
      <point x="413" y="-27"/>
      <point x="435" y="-63"/>
      <point x="444" y="-110" type="curve"/>
    </contour>
    <contour>
      <point x="354" y="73"/>
      <point x="317" y="117"/>
      <point x="277" y="132" type="curve"/>
      <point x="227" y="111" type="line"/>
      <point x="260" y="100"/>
      <point x="286" y="77"/>
      <point x="294" y="42" type="curve"/>
      <point x="366" y="36" type="line"/>
    </contour>
    <contour>
      <point x="328" y="90"/>
      <point x="378" y="157"/>
      <point x="378" y="233" type="curve" smooth="yes"/>
      <point x="378" y="295"/>
      <point x="345" y="346"/>
      <point x="305" y="383" type="curve"/>
      <point x="275" y="343"/>
      <point x="242" y="320"/>
      <point x="226" y="320" type="curve" smooth="yes"/>
      <point x="216" y="320"/>
      <point x="213" y="328"/>
      <point x="213" y="339" type="curve" smooth="yes"/>
      <point x="213" y="466" type="line"/>
      <point x="133" y="466" type="line"/>
      <point x="133" y="364" type="line" smooth="yes"/>
      <point x="133" y="304"/>
      <point x="184" y="235"/>
      <point x="242" y="235" type="curve" smooth="yes"/>
      <point x="283" y="235"/>
      <point x="317" y="268"/>
      <point x="351" y="304" type="curve"/>
      <point x="300" y="307" type="line"/>
      <point x="309" y="294"/>
      <point x="313" y="277"/>
      <point x="313" y="263" type="curve" smooth="yes"/>
      <point x="313" y="218"/>
      <point x="273" y="188"/>
      <point x="224" y="188" type="curve" smooth="yes"/>
      <point x="162" y="188"/>
      <point x="94" y="235"/>
      <point x="48" y="422" type="curve"/>
      <point x="-10" y="404" type="line"/>
      <point x="48" y="175"/>
      <point x="142" y="90"/>
      <point x="241" y="90" type="curve" smooth="yes"/>
    </contour>
    <contour>
      <point x="403" y="456" type="line"/>
      <point x="403" y="521" type="line"/>
      <point x="-30" y="521" type="line"/>
      <point x="-30" y="456" type="line"/>
    </contour>
    <contour>
      <point x="584" y="456" type="line"/>
      <point x="584" y="521" type="line"/>
      <point x="196" y="521" type="line"/>
      <point x="196" y="456" type="line"/>
    </contour>
  </outline>
</glyph>
<glyph name="bDdhRa" format="1">
  <advance width="477"/>
  <outline>
    <contour>
      <point x="320" y="39"/>
      <point x="442" y="176"/>
      <point x="442" y="282" type="curve" smooth="yes"/>
      <point x="442" y="344"/>
      <point x="400" y="399"/>
      <point x="340" y="399" type="curve" smooth="yes"/>
      <point x="290" y="399"/>
      <point x="253" y="360"/>
      <point x="253" y="315" type="curve" smooth="yes"/>
      <point x="253" y="270"/>
      <point x="290" y="234"/>
      <point x="339" y="234" type="curve" smooth="yes"/>
      <point x="358" y="234"/>
      <point x="373" y="239"/>
      <point x="385" y="250" type="curve"/>
      <point x="341" y="304" type="line"/>
      <point x="341" y="240"/>
      <point x="252" y="135"/>
      <point x="200" y="135" type="curve" smooth="yes"/>
      <point x="187" y="135"/>
      <point x="182" y="142"/>
      <point x="182" y="170" type="curve" smooth="yes"/>
      <point x="182" y="467" type="line"/>
      <point x="102" y="467" type="line"/>
      <point x="102" y="207" type="line" smooth="yes"/>
      <point x="102" y="109"/>
      <point x="170" y="39"/>
      <point x="233" y="39" type="curve" smooth="yes"/>
    </contour>
    <contour>
      <point x="372" y="-121" type="line"/>
      <point x="372" y="167" type="line"/>
      <point x="302" y="167" type="line"/>
      <point x="302" y="-67" type="line"/>
      <point x="332" y="-94" type="line"/>
      <point x="314" y="-27"/>
      <point x="267" y="17"/>
      <point x="199" y="17" type="curve" smooth="yes"/>
      <point x="185" y="17"/>
      <point x="130" y="15"/>
      <point x="120" y="15" type="curve" smooth="yes"/>
      <point x="87" y="15"/>
      <point x="69" y="36"/>
      <point x="69" y="69" type="curve" smooth="yes"/>
      <point x="69" y="90"/>
      <point x="76" y="116"/>
      <point x="82" y="133" type="curve"/>
      <point x="35" y="151" type="line"/>
      <point x="24" y="129"/>
      <point x="16" y="98"/>
      <point x="16" y="67" type="curve" smooth="yes"/>
      <point x="16" y="-15"/>
      <point x="73" y="-77"/>
      <point x="151" y="-77" type="curve" smooth="yes"/>
      <point x="171" y="-77"/>
      <point x="230" y="-73"/>
      <point x="250" y="-73" type="curve" smooth="yes"/>
      <point x="284" y="-73"/>
      <point x="306" y="-84"/>
      <point x="312" y="-121" type="curve"/>
    </contour>
    <contour>
      <point x="507" y="456" type="line"/>
      <point x="507" y="521" type="line"/>
      <point x="-30" y="521" type="line"/>
      <point x="-30" y="456" type="line"/>
    </contour>
  </outline>
</glyph>
<glyph name="bDoubleDandaPoetic" format="1">
  <advance width="466"/>
  <outline>
    <contour>
      <point x="238" y="429" type="line"/>
      <point x="238" y="486"/>
      <point x="207" y="528"/>
      <point x="162" y="528" type="curve" smooth="yes"/>
      <point x="129" y="528"/>
      <point x="100" y="504"/>
      <point x="100" y="468" type="curve" smooth="yes"/>
      <point x="100" y="432"/>
      <point x="129" y="404"/>
      <point x="165" y="404" type="curve" smooth="yes"/>
      <point x="185" y="404"/>
      <point x="207" y="412"/>
      <point x="223" y="434" type="curve"/>
      <point x="158" y="453" type="line"/>
      <point x="158" y="72" type="line"/>
      <point x="158" y="15"/>
      <point x="189" y="-27"/>
      <point x="234" y="-27" type="curve" smooth="yes"/>
      <point x="267" y="-27"/>
      <point x="296" y="-3"/>
      <point x="296" y="33" type="curve" smooth="yes"/>
      <point x="296" y="69"/>
      <point x="267" y="97"/>
      <point x="231" y="97" type="curve" smooth="yes"/>
      <point x="211" y="97"/>
      <point x="189" y="89"/>
      <point x="173" y="67" type="curve"/>
      <point x="238" y="48" type="line"/>
    </contour>
    <contour>
      <point x="398" y="429" type="line"/>
      <point x="398" y="486"/>
      <point x="367" y="528"/>
      <point x="322" y="528" type="curve" smooth="yes"/>
      <point x="289" y="528"/>
      <point x="260" y="504"/>
      <point x="260" y="468" type="curve" smooth="yes"/>
      <point x="260" y="432"/>
      <point x="289" y="404"/>
      <point x="325" y="404" type="curve" smooth="yes"/>
      <point x="345" y="404"/>
      <point x="367" y="412"/>
      <point x="383" y="434" type="curve"/>
      <point x="318" y="453" type="line"/>
      <point x="318" y="72" type="line"/>
      <point x="318" y="15"/>
      <point x="349" y="-27"/>
      <point x="394" y="-27" type="curve" smooth="yes"/>
      <point x="427" y="-27"/>
      <point x="456" y="-3"/>
      <point x="456" y="33" type="curve" smooth="yes"/>
      <point x="456" y="69"/>
      <point x="427" y="97"/>
      <point x="391" y="97" type="curve" smooth="yes"/>
      <point x="371" y="97"/>
      <point x="349" y="89"/>
      <point x="333" y="67" type="curve"/>
      <point x="398" y="48" type="line"/>
    </contour>
  </outline>
</glyph>
<glyph name="bEight" format="1">
  <advance width="514"/>
  <outline>
    <contour>
      <point x="270" y="-9"/>
      <point x="370" y="90"/>
      <point x="370" y="170" type="curve" smooth="yes"/>
      <point x="370" y="240"/>
      <point x="297" y="323"/>
      <point x="222" y="323" type="curve" smooth="yes"/>
      <point x="189" y="323"/>
      <point x="135" y="306"/>
      <point x="94" y="289" type="curve"/>
      <point x="122" y="210" type="line"/>
      <point x="159" y="226"/>
      <point x="209" y="236"/>
      <point x="237" y="236" type="curve" smooth="yes"/>
      <point x="265" y="236"/>
      <point x="278" y="223"/>
      <point x="278" y="201" type="curve" smooth="yes"/>
      <point x="278" y="147"/>
      <point x="195" y="69"/>
      <point x="155" y="69" type="curve" smooth="yes"/>
      <point x="143" y="69"/>
      <point x="138" y="77"/>
      <point x="138" y="96" type="curve" smooth="yes"/>
      <point x="138" y="419" type="line" smooth="yes"/>
      <point x="138" y="482"/>
      <point x="107" y="528"/>
      <point x="62" y="528" type="curve" smooth="yes"/>
      <point x="29" y="528"/>
      <point x="0" y="504"/>
      <point x="0" y="468" type="curve" smooth="yes"/>
      <point x="0" y="432"/>
      <point x="29" y="404"/>
      <point x="65" y="404" type="curve" smooth="yes"/>
      <point x="85" y="404"/>
      <point x="107" y="412"/>
      <point x="123" y="434" type="curve"/>
      <point x="65" y="455" type="line"/>
      <point x="65" y="120" type="line" smooth="yes"/>
      <point x="65" y="52"/>
      <point x="119" y="-9"/>
      <point x="184" y="-9" type="curve" smooth="yes"/>
    </contour>
    <contour>
      <point x="340" y="246"/>
      <point x="354" y="251"/>
      <point x="369" y="251" type="curve" smooth="yes"/>
      <point x="396" y="251"/>
      <point x="407" y="237"/>
      <point x="436" y="237" type="curve" smooth="yes"/>
      <point x="481" y="237"/>
      <point x="501" y="280"/>
      <point x="514" y="317" type="curve"/>
      <point x="472" y="339" type="line"/>
      <point x="465" y="327"/>
      <point x="457" y="320"/>
      <point x="443" y="320" type="curve" smooth="yes"/>
      <point x="427" y="320"/>
      <point x="410" y="330"/>
      <point x="380" y="330" type="curve" smooth="yes"/>
      <point x="348" y="330"/>
      <point x="321" y="315"/>
      <point x="294" y="262" type="curve"/>
      <point x="326" y="232" type="line"/>
    </contour>
  </outline>
</glyph>
<glyph name="bFive" format="1">
  <advance width="466"/>
  <outline>
    <contour>
      <point x="333" y="0"/>
      <point x="381" y="17"/>
      <point x="425" y="40" type="curve"/>
      <point x="397" y="101" type="line"/>
      <point x="329" y="103"/>
      <point x="307" y="142"/>
      <point x="307" y="170" type="curve" smooth="yes"/>
      <point x="307" y="204"/>
      <point x="338" y="249"/>
      <point x="436" y="316" type="curve"/>
      <point x="379" y="384" type="line"/>
      <point x="367" y="380"/>
      <point x="358" y="379"/>
      <point x="351" y="379" type="curve" smooth="yes"/>
      <point x="318" y="379"/>
      <point x="296" y="398"/>
      <point x="296" y="419" type="curve" smooth="yes"/>
      <point x="296" y="432"/>
      <point x="304" y="446"/>
      <point x="315" y="456" type="curve"/>
      <point x="243" y="531" type="line"/>
      <point x="117" y="446"/>
      <point x="35" y="352"/>
      <point x="35" y="237" type="curve" smooth="yes"/>
      <point x="35" y="102"/>
      <point x="149" y="0"/>
      <point x="280" y="0" type="curve" smooth="yes"/>
    </contour>
    <contour>
      <point x="182" y="67"/>
      <point x="121" y="122"/>
      <point x="121" y="207" type="curve" smooth="yes"/>
      <point x="121" y="292"/>
      <point x="182" y="365"/>
      <point x="284" y="437" type="curve"/>
      <point x="240" y="503" type="line"/>
      <point x="227" y="480"/>
      <point x="221" y="458"/>
      <point x="221" y="440" type="curve" smooth="yes"/>
      <point x="221" y="355"/>
      <point x="296" y="311"/>
      <point x="374" y="311" type="curve" smooth="yes"/>
      <point x="394" y="311"/>
      <point x="412" y="314"/>
      <point x="427" y="317" type="curve"/>
      <point x="350" y="370" type="line"/>
      <point x="251" y="307"/>
      <point x="220" y="250"/>
      <point x="220" y="197" type="curve" smooth="yes"/>
      <point x="220" y="127"/>
      <point x="273" y="62"/>
      <point x="389" y="54" type="curve"/>
      <point x="377" y="87" type="line"/>
      <point x="337" y="73"/>
      <point x="301" y="67"/>
      <point x="271" y="67" type="curve" smooth="yes"/>
    </contour>
  </outline>
</glyph>
<glyph name="bFour" format="1">
  <advance width="437"/>
  <outline>
    <contour>
      <point x="314" y="-15"/>
      <point x="402" y="36"/>
      <point x="402" y="132" type="curve" smooth="yes"/>
      <point x="402" y="299"/>
      <point x="133" y="296"/>
      <point x="133" y="392" type="curve" smooth="yes"/>
      <point x="133" y="427"/>
      <point x="170" y="451"/>
      <point x="216" y="451" type="curve" smooth="yes"/>
      <point x="272" y="451"/>
      <point x="308" y="416"/>
      <point x="308" y="381" type="curve" smooth="yes"/>
      <point x="308" y="349"/>
      <point x="277" y="317"/>
      <point x="223" y="291" type="curve"/>
      <point x="266" y="240" type="line"/>
      <point x="348" y="286"/>
      <point x="392" y="332"/>
      <point x="392" y="390" type="curve" smooth="yes"/>
      <point x="392" y="467"/>
      <point x="316" y="529"/>
      <point x="225" y="529" type="curve" smooth="yes"/>
      <point x="145" y="529"/>
      <point x="54" y="482"/>
      <point x="54" y="376" type="curve" smooth="yes"/>
      <point x="54" y="197"/>
      <point x="315" y="206"/>
      <point x="315" y="121" type="curve" smooth="yes"/>
      <point x="315" y="86"/>
      <point x="272" y="65"/>
      <point x="229" y="65" type="curve" smooth="yes"/>
      <point x="178" y="65"/>
      <point x="139" y="93"/>
      <point x="139" y="130" type="curve" smooth="yes"/>
      <point x="139" y="162"/>
      <point x="169" y="191"/>
      <point x="228" y="219" type="curve"/>
      <point x="188" y="271" type="line"/>
      <point x="86" y="213"/>
      <point x="50" y="170"/>
      <point x="50" y="118" type="curve" smooth="yes"/>
      <point x="50" y="46"/>
      <point x="119" y="-15"/>
      <point x="221" y="-15" type="curve" smooth="yes"/>
    </contour>
  </outline>
</glyph>
<glyph name="bGDa" format="1">
  <advance width="717"/>
  <outline>
    <contour>
      <point x="241" y="171"/>
      <point x="279" y="219"/>
      <point x="279" y="275" type="curve" smooth="yes"/>
      <point x="279" y="336"/>
      <point x="234" y="404"/>
      <point x="161" y="404" type="curve" smooth="yes"/>
      <point x="127" y="404"/>
      <point x="101" y="389"/>
      <point x="63" y="349" type="curve"/>
      <point x="117" y="307" type="line"/>
      <point x="112" y="320"/>
      <point x="109" y="336"/>
      <point x="109" y="351" type="curve" smooth="yes"/>
      <point x="109" y="397"/>
      <point x="137" y="443"/>
      <point x="195" y="443" type="curve" smooth="yes"/>
      <point x="276" y="443"/>
      <point x="334" y="353"/>
      <point x="334" y="244" type="curve" smooth="yes"/>
      <point x="334" y="220" type="line"/>
      <point x="414" y="220" type="line"/>
      <point x="414" y="456" type="line"/>
      <point x="494" y="456" type="line"/>
      <point x="494" y="521" type="line"/>
      <point x="334" y="521" type="line"/>
      <point x="334" y="294" type="line"/>
      <point x="383" y="296" type="line"/>
      <point x="350" y="430"/>
      <point x="279" y="530"/>
      <point x="167" y="530" type="curve" smooth="yes"/>
      <point x="74" y="530"/>
      <point x="10" y="462"/>
      <point x="10" y="382" type="curve" smooth="yes"/>
      <point x="10" y="316"/>
      <point x="53" y="282"/>
      <point x="91" y="282" type="curve" smooth="yes"/>
      <point x="135" y="282"/>
      <point x="165" y="326"/>
      <point x="190" y="326" type="curve" smooth="yes"/>
      <point x="201" y="326"/>
      <point x="204" y="319"/>
      <point x="204" y="314" type="curve" smooth="yes"/>
      <point x="204" y="295"/>
      <point x="169" y="251"/>
      <point x="80" y="206" type="curve"/>
      <point x="168" y="126" type="line"/>
    </contour>
    <contour>
      <point x="622" y="-4" type="line"/>
      <point x="613" y="49"/>
      <point x="609" y="99"/>
      <point x="609" y="134" type="curve" smooth="yes"/>
      <point x="609" y="211"/>
      <point x="629" y="265"/>
      <point x="692" y="330" type="curve"/>
      <point x="595" y="417" type="line"/>
      <point x="501" y="386"/>
      <point x="418" y="317"/>
      <point x="369" y="237" type="curve"/>
      <point x="414" y="190" type="line"/>
      <point x="414" y="467" type="line"/>
      <point x="334" y="467" type="line"/>
      <point x="334" y="209" type="line"/>
      <point x="421" y="118" type="line"/>
      <point x="477" y="210"/>
      <point x="547" y="272"/>
      <point x="617" y="305" type="curve"/>
      <point x="602" y="365" type="line"/>
      <point x="557" y="328"/>
      <point x="537" y="264"/>
      <point x="537" y="189" type="curve" smooth="yes"/>
      <point x="537" y="133"/>
      <point x="548" y="62"/>
      <point x="564" y="-13" type="curve"/>
    </contour>
    <contour>
      <point x="747" y="456" type="line"/>
      <point x="747" y="521" type="line"/>
      <point x="334" y="521" type="line"/>
      <point x="334" y="456" type="line"/>
    </contour>
  </outline>
</glyph>
<glyph name="bGGa" format="1">
  <advance width="448"/>
  <outline>
    <contour>
      <point x="398" y="69" type="line"/>
      <point x="398" y="456" type="line"/>
      <point x="478" y="456" type="line"/>
      <point x="478" y="521" type="line"/>
      <point x="318" y="521" type="line"/>
      <point x="318" y="294" type="line"/>
      <point x="367" y="296" type="line"/>
      <point x="338" y="426"/>
      <point x="275" y="530"/>
      <point x="165" y="530" type="curve" smooth="yes"/>
      <point x="80" y="530"/>
      <point x="18" y="467"/>
      <point x="18" y="394" type="curve" smooth="yes"/>
      <point x="18" y="336"/>
      <point x="58" y="306"/>
      <point x="94" y="306" type="curve" smooth="yes"/>
      <point x="137" y="306"/>
      <point x="168" y="347"/>
      <point x="192" y="347" type="curve" smooth="yes"/>
      <point x="201" y="347"/>
      <point x="203" y="341"/>
      <point x="203" y="338" type="curve" smooth="yes"/>
      <point x="203" y="322"/>
      <point x="155" y="284"/>
      <point x="75" y="258" type="curve"/>
      <point x="147" y="183" type="line"/>
      <point x="220" y="219"/>
      <point x="265" y="264"/>
      <point x="265" y="312" type="curve" smooth="yes"/>
      <point x="265" y="358"/>
      <point x="225" y="415"/>
      <point x="166" y="415" type="curve" smooth="yes"/>
      <point x="139" y="415"/>
      <point x="109" y="404"/>
      <point x="68" y="369" type="curve"/>
      <point x="122" y="327" type="line"/>
      <point x="117" y="340"/>
      <point x="114" y="358"/>
      <point x="114" y="371" type="curve" smooth="yes"/>
      <point x="114" y="413"/>
      <point x="147" y="442"/>
      <point x="194" y="442" type="curve" smooth="yes"/>
      <point x="271" y="442"/>
      <point x="318" y="365"/>
      <point x="318" y="274" type="curve" smooth="yes"/>
      <point x="318" y="69" type="line"/>
    </contour>
    <contour>
      <point x="231" y="-45"/>
      <point x="265" y="-8"/>
      <point x="265" y="35" type="curve" smooth="yes"/>
      <point x="265" y="82"/>
      <point x="225" y="126"/>
      <point x="184" y="126" type="curve" smooth="yes"/>
      <point x="156" y="126"/>
      <point x="120" y="105"/>
      <point x="98" y="84" type="curve"/>
      <point x="157" y="49" type="line"/>
      <point x="150" y="62"/>
      <point x="147" y="75"/>
      <point x="147" y="86" type="curve" smooth="yes"/>
      <point x="147" y="117"/>
      <point x="175" y="145"/>
      <point x="217" y="145" type="curve" smooth="yes"/>
      <point x="288" y="145"/>
      <point x="334" y="62"/>
      <point x="338" y="-36" type="curve"/>
      <point x="398" y="-36" type="line"/>
      <point x="398" y="88" type="line"/>
      <point x="328" y="87" type="line"/>
      <point x="378" y="6" type="line"/>
      <point x="349" y="140"/>
      <point x="284" y="225"/>
      <point x="189" y="225" type="curve" smooth="yes"/>
      <point x="112" y="225"/>
      <point x="53" y="169"/>
      <point x="53" y="111" type="curve" smooth="yes"/>
      <point x="53" y="66"/>
      <point x="88" y="35"/>
      <point x="120" y="35" type="curve" smooth="yes"/>
      <point x="154" y="35"/>
      <point x="178" y="69"/>
      <point x="197" y="69" type="curve" smooth="yes"/>
      <point x="203" y="69"/>
      <point x="206" y="66"/>
      <point x="206" y="61" type="curve" smooth="yes"/>
      <point x="206" y="46"/>
      <point x="176" y="18"/>
      <point x="115" y="-9" type="curve"/>
      <point x="182" y="-72" type="line"/>
    </contour>
  </outline>
</glyph>
<glyph name="bGNa" format="1">
  <advance width="461"/>
  <outline>
    <contour>
      <point x="411" y="69" type="line"/>
      <point x="411" y="456" type="line"/>
      <point x="491" y="456" type="line"/>
      <point x="491" y="521" type="line"/>
      <point x="331" y="521" type="line"/>
      <point x="331" y="294" type="line"/>
      <point x="380" y="296" type="line"/>
      <point x="349" y="426"/>
      <point x="282" y="530"/>
      <point x="165" y="530" type="curve" smooth="yes"/>
      <point x="78" y="530"/>
      <point x="15" y="467"/>
      <point x="15" y="391" type="curve" smooth="yes"/>
      <point x="15" y="329"/>
      <point x="58" y="295"/>
      <point x="96" y="295" type="curve" smooth="yes"/>
      <point x="138" y="295"/>
      <point x="167" y="336"/>
      <point x="190" y="336" type="curve" smooth="yes"/>
      <point x="199" y="336"/>
      <point x="201" y="330"/>
      <point x="201" y="326" type="curve" smooth="yes"/>
      <point x="201" y="308"/>
      <point x="158" y="272"/>
      <point x="85" y="246" type="curve"/>
      <point x="157" y="161" type="line"/>
      <point x="233" y="205"/>
      <point x="269" y="253"/>
      <point x="269" y="300" type="curve" smooth="yes"/>
      <point x="269" y="348"/>
      <point x="228" y="407"/>
      <point x="166" y="407" type="curve" smooth="yes"/>
      <point x="139" y="407"/>
      <point x="109" y="396"/>
      <point x="68" y="359" type="curve"/>
      <point x="122" y="317" type="line"/>
      <point x="117" y="330"/>
      <point x="114" y="348"/>
      <point x="114" y="362" type="curve" smooth="yes"/>
      <point x="114" y="409"/>
      <point x="148" y="442"/>
      <point x="194" y="442" type="curve" smooth="yes"/>
      <point x="282" y="442"/>
      <point x="331" y="357"/>
      <point x="331" y="254" type="curve" smooth="yes"/>
      <point x="331" y="69" type="line"/>
    </contour>
    <contour>
      <point x="411" y="-20" type="line"/>
      <point x="411" y="140" type="line"/>
      <point x="345" y="140" type="line"/>
      <point x="345" y="44" type="line"/>
      <point x="380" y="12" type="line"/>
      <point x="358" y="123"/>
      <point x="278" y="199"/>
      <point x="192" y="199" type="curve" smooth="yes"/>
      <point x="130" y="199"/>
      <point x="82" y="159"/>
      <point x="82" y="104" type="curve" smooth="yes"/>
      <point x="82" y="54"/>
      <point x="122" y="15"/>
      <point x="171" y="15" type="curve" smooth="yes"/>
      <point x="215" y="15"/>
      <point x="250" y="46"/>
      <point x="250" y="87" type="curve" smooth="yes"/>
      <point x="250" y="116"/>
      <point x="233" y="144"/>
      <point x="199" y="158" type="curve"/>
      <point x="198" y="94" type="line"/>
      <point x="210" y="100"/>
      <point x="227" y="103"/>
      <point x="241" y="103" type="curve" smooth="yes"/>
      <point x="295" y="103"/>
      <point x="336" y="66"/>
      <point x="351" y="-20" type="curve"/>
    </contour>
  </outline>
</glyph>
<glyph name="bGRa" format="1">
  <advance width="526"/>
  <outline>
    <contour>
      <point x="476" y="50" type="line"/>
      <point x="476" y="456" type="line"/>
      <point x="556" y="456" type="line"/>
      <point x="556" y="521" type="line"/>
      <point x="396" y="521" type="line"/>
      <point x="396" y="294" type="line"/>
      <point x="445" y="296" type="line"/>
      <point x="411" y="431"/>
      <point x="336" y="530"/>
      <point x="218" y="530" type="curve" smooth="yes"/>
      <point x="121" y="530"/>
      <point x="52" y="463"/>
      <point x="52" y="381" type="curve" smooth="yes"/>
      <point x="52" y="316"/>
      <point x="95" y="282"/>
      <point x="136" y="282" type="curve" smooth="yes"/>
      <point x="182" y="282"/>
      <point x="224" y="326"/>
      <point x="252" y="326" type="curve" smooth="yes"/>
      <point x="263" y="326"/>
      <point x="266" y="319"/>
      <point x="266" y="314" type="curve" smooth="yes"/>
      <point x="266" y="297"/>
      <point x="231" y="257"/>
      <point x="142" y="216" type="curve"/>
      <point x="230" y="136" type="line"/>
      <point x="303" y="178"/>
      <point x="341" y="222"/>
      <point x="341" y="277" type="curve" smooth="yes"/>
      <point x="341" y="336"/>
      <point x="297" y="404"/>
      <point x="220" y="404" type="curve" smooth="yes"/>
      <point x="184" y="404"/>
      <point x="151" y="389"/>
      <point x="105" y="359" type="curve"/>
      <point x="152" y="307" type="line"/>
      <point x="151" y="320"/>
      <point x="151" y="337"/>
      <point x="151" y="348" type="curve" smooth="yes"/>
      <point x="151" y="398"/>
      <point x="192" y="437"/>
      <point x="252" y="437" type="curve" smooth="yes"/>
      <point x="341" y="437"/>
      <point x="396" y="350"/>
      <point x="396" y="244" type="curve" smooth="yes"/>
      <point x="396" y="50" type="line"/>
    </contour>
    <contour>
      <point x="476" y="-40" type="line"/>
      <point x="476" y="143" type="line"/>
      <point x="406" y="143" type="line"/>
      <point x="406" y="41" type="line"/>
      <point x="437" y="-7" type="line"/>
      <point x="414" y="71"/>
      <point x="363" y="115"/>
      <point x="293" y="115" type="curve" smooth="yes"/>
      <point x="267" y="115"/>
      <point x="195" y="109"/>
      <point x="165" y="109" type="curve" smooth="yes"/>
      <point x="104" y="109"/>
      <point x="73" y="133"/>
      <point x="73" y="181" type="curve" smooth="yes"/>
      <point x="73" y="202"/>
      <point x="79" y="226"/>
      <point x="87" y="244" type="curve"/>
      <point x="42" y="263" type="line"/>
      <point x="27" y="236"/>
      <point x="20" y="202"/>
      <point x="20" y="174" type="curve" smooth="yes"/>
      <point x="20" y="83"/>
      <point x="92" y="15"/>
      <point x="197" y="15" type="curve" smooth="yes"/>
      <point x="238" y="15"/>
      <point x="303" y="25"/>
      <point x="339" y="25" type="curve" smooth="yes"/>
      <point x="396" y="25"/>
      <point x="414" y="0"/>
      <point x="416" y="-40" type="curve"/>
    </contour>
  </outline>
</glyph>
<glyph name="bGa_bSignU" format="1">
  <advance width="597"/>
  <outline>
    <contour>
      <point x="507" y="-23"/>
      <point x="567" y="40"/>
      <point x="567" y="113" type="curve" smooth="yes"/>
      <point x="567" y="194"/>
      <point x="492" y="280"/>
      <point x="418" y="280" type="curve" smooth="yes"/>
      <point x="377" y="280"/>
      <point x="346" y="253"/>
      <point x="346" y="214" type="curve" smooth="yes"/>
      <point x="346" y="176"/>
      <point x="377" y="148"/>
      <point x="417" y="148" type="curve" smooth="yes"/>
      <point x="452" y="148"/>
      <point x="490" y="170"/>
      <point x="514" y="205" type="curve"/>
      <point x="463" y="198" type="line"/>
      <point x="474" y="187"/>
      <point x="483" y="172"/>
      <point x="483" y="154" type="curve" smooth="yes"/>
      <point x="483" y="112"/>
      <point x="433" y="86"/>
      <point x="374" y="86" type="curve" smooth="yes"/>
      <point x="278" y="86"/>
      <point x="160" y="152"/>
      <point x="54" y="377" type="curve"/>
      <point x="0" y="350" type="line"/>
      <point x="110" y="97"/>
      <point x="255" y="-23"/>
      <point x="401" y="-23" type="curve" smooth="yes"/>
    </contour>
    <contour>
      <point x="303" y="191"/>
      <point x="339" y="236"/>
      <point x="339" y="289" type="curve" smooth="yes"/>
      <point x="339" y="350"/>
      <point x="291" y="413"/>
      <point x="225" y="413" type="curve" smooth="yes"/>
      <point x="195" y="413"/>
      <point x="162" y="400"/>
      <point x="133" y="375" type="curve"/>
      <point x="195" y="350" type="line"/>
      <point x="194" y="396"/>
      <point x="219" y="434"/>
      <point x="266" y="434" type="curve" smooth="yes"/>
      <point x="317" y="434"/>
      <point x="352" y="389"/>
      <point x="370" y="307" type="curve"/>
      <point x="412" y="307" type="line"/>
      <point x="393" y="436"/>
      <point x="323" y="530"/>
      <point x="230" y="530" type="curve" smooth="yes"/>
      <point x="156" y="530"/>
      <point x="100" y="471"/>
      <point x="100" y="392" type="curve" smooth="yes"/>
      <point x="100" y="356"/>
      <point x="112" y="319"/>
      <point x="134" y="287" type="curve"/>
      <point x="172" y="314"/>
      <point x="221" y="337"/>
      <point x="248" y="337" type="curve" smooth="yes"/>
      <point x="262" y="337"/>
      <point x="269" y="331"/>
      <point x="269" y="323" type="curve" smooth="yes"/>
      <point x="269" y="300"/>
      <point x="221" y="266"/>
      <point x="172" y="249" type="curve"/>
      <point x="250" y="163" type="line"/>
    </contour>
    <contour>
      <point x="514" y="197"/>
      <point x="560" y="240"/>
      <point x="560" y="293" type="curve" smooth="yes"/>
      <point x="560" y="358"/>
      <point x="489" y="410"/>
      <point x="439" y="538" type="curve"/>
      <point x="390" y="496"/>
      <point x="362" y="456"/>
      <point x="334" y="403" type="curve"/>
      <point x="412" y="307" type="line"/>
      <point x="422" y="346"/>
      <point x="463" y="407"/>
      <point x="486" y="429" type="curve"/>
      <point x="421" y="460" type="line"/>
      <point x="447" y="396"/>
      <point x="482" y="370"/>
      <point x="482" y="329" type="curve" smooth="yes"/>
      <point x="482" y="297"/>
      <point x="460" y="269"/>
      <point x="405" y="239" type="curve"/>
      <point x="480" y="177" type="line"/>
    </contour>
  </outline>
</glyph>
<glyph name="bGhNa" format="1">
  <advance width="457"/>
  <outline>
    <contour>
      <point x="407" y="43" type="line"/>
      <point x="407" y="467" type="line"/>
      <point x="327" y="467" type="line"/>
      <point x="327" y="109" type="line"/>
      <point x="381" y="65" type="line"/>
      <point x="345" y="186"/>
      <point x="236" y="249"/>
      <point x="114" y="270" type="curve"/>
      <point x="154" y="205" type="line"/>
      <point x="307" y="320" type="line"/>
      <point x="234" y="405" type="line"/>
      <point x="50" y="267" type="line"/>
      <point x="131" y="174" type="line"/>
      <point x="259" y="166"/>
      <point x="342" y="103"/>
      <point x="342" y="43" type="curve"/>
    </contour>
    <contour>
      <point x="407" y="-59" type="line"/>
      <point x="407" y="43" type="line"/>
      <point x="342" y="43" type="line"/>
      <point x="342" y="-16" type="line"/>
      <point x="367" y="-14" type="line"/>
      <point x="340" y="70"/>
      <point x="268" y="117"/>
      <point x="203" y="117" type="curve" smooth="yes"/>
      <point x="145" y="117"/>
      <point x="104" y="79"/>
      <point x="104" y="28" type="curve" smooth="yes"/>
      <point x="104" y="-20"/>
      <point x="140" y="-55"/>
      <point x="183" y="-55" type="curve" smooth="yes"/>
      <point x="223" y="-55"/>
      <point x="254" y="-26"/>
      <point x="254" y="14" type="curve" smooth="yes"/>
      <point x="254" y="34"/>
      <point x="246" y="56"/>
      <point x="221" y="71" type="curve"/>
      <point x="225" y="23" type="line"/>
      <point x="233" y="28"/>
      <point x="241" y="31"/>
      <point x="253" y="31" type="curve" smooth="yes"/>
      <point x="294" y="31"/>
      <point x="341" y="1"/>
      <point x="347" y="-59" type="curve"/>
    </contour>
    <contour>
      <point x="198" y="307"/>
      <point x="228" y="314"/>
      <point x="254" y="329" type="curve"/>
      <point x="201" y="380" type="line"/>
      <point x="188" y="370"/>
      <point x="174" y="363"/>
      <point x="158" y="363" type="curve" smooth="yes"/>
      <point x="138" y="363"/>
      <point x="121" y="374"/>
      <point x="121" y="394" type="curve" smooth="yes"/>
      <point x="121" y="424"/>
      <point x="159" y="456"/>
      <point x="216" y="456" type="curve"/>
      <point x="69" y="498" type="line"/>
      <point x="41" y="483"/>
      <point x="22" y="454"/>
      <point x="22" y="421" type="curve" smooth="yes"/>
      <point x="22" y="357"/>
      <point x="90" y="307"/>
      <point x="169" y="307" type="curve" smooth="yes"/>
    </contour>
    <contour>
      <point x="487" y="456" type="line"/>
      <point x="487" y="521" type="line"/>
      <point x="-30" y="521" type="line"/>
      <point x="-30" y="456" type="line"/>
    </contour>
  </outline>
</glyph>
<glyph name="bGha" format="1">
  <advance width="447"/>
  <outline>
    <contour>
      <point x="397" y="0" type="line"/>
      <point x="397" y="467" type="line"/>
      <point x="317" y="467" type="line"/>
      <point x="317" y="59" type="line"/>
      <point x="377" y="15" type="line"/>
      <point x="328" y="138"/>
      <point x="226" y="217"/>
      <point x="104" y="245" type="curve"/>
      <point x="137" y="174" type="line"/>
      <point x="297" y="310" type="line"/>
      <point x="221" y="396" type="line"/>
      <point x="33" y="236" type="line"/>
      <point x="114" y="139" type="line"/>
      <point x="237" y="130"/>
      <point x="316" y="67"/>
      <point x="337" y="0" type="curve"/>
    </contour>
    <contour>
      <point x="188" y="297"/>
      <point x="218" y="304"/>
      <point x="244" y="319" type="curve"/>
      <point x="192" y="371" type="line"/>
      <point x="179" y="360"/>
      <point x="164" y="353"/>
      <point x="149" y="353" type="curve" smooth="yes"/>
      <point x="128" y="353"/>
      <point x="111" y="366"/>
      <point x="111" y="388" type="curve" smooth="yes"/>
      <point x="111" y="421"/>
      <point x="148" y="456"/>
      <point x="206" y="456" type="curve"/>
      <point x="59" y="498" type="line"/>
      <point x="31" y="482"/>
      <point x="12" y="451"/>
      <point x="12" y="416" type="curve" smooth="yes"/>
      <point x="12" y="349"/>
      <point x="80" y="297"/>
      <point x="159" y="297" type="curve" smooth="yes"/>
    </contour>
    <contour>
      <point x="477" y="456" type="line"/>
      <point x="477" y="521" type="line"/>
      <point x="-30" y="521" type="line"/>
      <point x="-30" y="456" type="line"/>
    </contour>
  </outline>
</glyph>
<glyph name="bHNa" format="1">
  <advance width="447"/>
  <outline>
    <contour>
      <point x="455" y="11" type="line"/>
      <point x="317" y="104"/>
      <point x="247" y="137"/>
      <point x="163" y="166" type="curve"/>
      <point x="203" y="101" type="line"/>
      <point x="319" y="101"/>
      <point x="408" y="164"/>
      <point x="408" y="258" type="curve" smooth="yes"/>
      <point x="408" y="351"/>
      <point x="320" y="432"/>
      <point x="200" y="432" type="curve" smooth="yes"/>
      <point x="106" y="432"/>
      <point x="41" y="382"/>
      <point x="41" y="321" type="curve" smooth="yes"/>
      <point x="41" y="275"/>
      <point x="78" y="239"/>
      <point x="129" y="239" type="curve" smooth="yes"/>
      <point x="188" y="239"/>
      <point x="237" y="286"/>
      <point x="237" y="343" type="curve" smooth="yes"/>
      <point x="237" y="357"/>
      <point x="234" y="373"/>
      <point x="221" y="390" type="curve"/>
      <point x="202" y="329" type="line"/>
      <point x="224" y="340"/>
      <point x="238" y="348"/>
      <point x="264" y="348" type="curve" smooth="yes"/>
      <point x="306" y="348"/>
      <point x="328" y="326"/>
      <point x="328" y="295" type="curve" smooth="yes"/>
      <point x="328" y="241"/>
      <point x="260" y="196"/>
      <point x="151" y="196" type="curve" smooth="yes"/>
      <point x="108" y="196"/>
      <point x="58" y="203"/>
      <point x="19" y="212" type="curve"/>
      <point x="85" y="85" type="line"/>
      <point x="214" y="65"/>
      <point x="286" y="43"/>
      <point x="425" y="-35" type="curve"/>
    </contour>
    <contour>
      <point x="477" y="456" type="line"/>
      <point x="477" y="521" type="line"/>
      <point x="-30" y="521" type="line"/>
      <point x="-30" y="456" type="line"/>
    </contour>
    <contour>
      <point x="294" y="-87" type="line"/>
      <point x="313" y="-82" type="line"/>
      <point x="283" y="-19"/>
      <point x="228" y="23"/>
      <point x="167" y="23" type="curve" smooth="yes"/>
      <point x="109" y="23"/>
      <point x="75" y="-16"/>
      <point x="75" y="-59" type="curve" smooth="yes"/>
      <point x="75" y="-103"/>
      <point x="110" y="-136"/>
      <point x="151" y="-136" type="curve" smooth="yes"/>
      <point x="191" y="-136"/>
      <point x="221" y="-106"/>
      <point x="221" y="-67" type="curve" smooth="yes"/>
      <point x="221" y="-48"/>
      <point x="214" y="-33"/>
      <point x="201" y="-21" type="curve"/>
      <point x="189" y="-67" type="line"/>
      <point x="197" y="-64"/>
      <point x="205" y="-63"/>
      <point x="212" y="-63" type="curve" smooth="yes"/>
      <point x="246" y="-63"/>
      <point x="296" y="-89"/>
      <point x="304" y="-158" type="curve"/>
      <point x="364" y="-158" type="line"/>
      <point x="364" y="49" type="line"/>
      <point x="294" y="49" type="line"/>
    </contour>
  </outline>
</glyph>
<glyph name="bHa_bSignU" format="1">
  <advance width="466"/>
  <outline>
    <contour>
      <point x="480" y="-10" type="line"/>
      <point x="339" y="84"/>
      <point x="268" y="117"/>
      <point x="182" y="146" type="curve"/>
      <point x="222" y="81" type="line"/>
      <point x="338" y="81"/>
      <point x="427" y="150"/>
      <point x="427" y="246" type="curve" smooth="yes"/>
      <point x="427" y="314"/>
      <point x="382" y="358"/>
      <point x="319" y="438" type="curve"/>
      <point x="276" y="401"/>
      <point x="245" y="367"/>
      <point x="225" y="329" type="curve"/>
      <point x="281" y="284" type="line"/>
      <point x="260" y="375"/>
      <point x="209" y="428"/>
      <point x="145" y="428" type="curve" smooth="yes"/>
      <point x="86" y="428"/>
      <point x="39" y="382"/>
      <point x="39" y="319" type="curve" smooth="yes"/>
      <point x="39" y="250"/>
      <point x="97" y="203"/>
      <point x="151" y="203" type="curve" smooth="yes"/>
      <point x="191" y="203"/>
      <point x="216" y="228"/>
      <point x="216" y="258" type="curve" smooth="yes"/>
      <point x="216" y="287"/>
      <point x="193" y="310"/>
      <point x="163" y="310" type="curve" smooth="yes"/>
      <point x="132" y="310"/>
      <point x="111" y="285"/>
      <point x="110" y="251" type="curve"/>
      <point x="139" y="249" type="line"/>
      <point x="119" y="259"/>
      <point x="106" y="273"/>
      <point x="106" y="292" type="curve" smooth="yes"/>
      <point x="106" y="317"/>
      <point x="129" y="343"/>
      <point x="168" y="343" type="curve" smooth="yes"/>
      <point x="212" y="343"/>
      <point x="243" y="311"/>
      <point x="254" y="247" type="curve"/>
      <point x="282" y="247" type="line"/>
      <point x="302" y="293"/>
      <point x="323" y="323"/>
      <point x="352" y="354" type="curve"/>
      <point x="305" y="364" type="line"/>
      <point x="329" y="339"/>
      <point x="347" y="309"/>
      <point x="347" y="280" type="curve" smooth="yes"/>
      <point x="347" y="223"/>
      <point x="281" y="174"/>
      <point x="170" y="174" type="curve" smooth="yes"/>
      <point x="131" y="174"/>
      <point x="80" y="180"/>
      <point x="41" y="190" type="curve"/>
      <point x="106" y="61" type="line"/>
      <point x="233" y="43"/>
      <point x="306" y="20"/>
      <point x="444" y="-55" type="curve"/>
    </contour>
    <contour>
      <point x="496" y="456" type="line"/>
      <point x="496" y="521" type="line"/>
      <point x="-30" y="521" type="line"/>
      <point x="-30" y="456" type="line"/>
    </contour>
  </outline>
</glyph>
<glyph name="bI" format="1">
  <advance width="446"/>
  <outline>
    <contour>
      <point x="460" y="-10" type="line"/>
      <point x="319" y="90"/>
      <point x="248" y="125"/>
      <point x="162" y="156" type="curve"/>
      <point x="202" y="91" type="line"/>
      <point x="318" y="91"/>
      <point x="407" y="159"/>
      <point x="407" y="256" type="curve" smooth="yes"/>
      <point x="407" y="352"/>
      <point x="319" y="432"/>
      <point x="200" y="432" type="curve" smooth="yes"/>
      <point x="105" y="432"/>
      <point x="40" y="382"/>
      <point x="40" y="321" type="curve" smooth="yes"/>
      <point x="40" y="275"/>
      <point x="77" y="239"/>
      <point x="128" y="239" type="curve" smooth="yes"/>
      <point x="187" y="239"/>
      <point x="236" y="286"/>
      <point x="236" y="343" type="curve" smooth="yes"/>
      <point x="236" y="357"/>
      <point x="233" y="373"/>
      <point x="220" y="390" type="curve"/>
      <point x="201" y="329" type="line"/>
      <point x="223" y="340"/>
      <point x="237" y="348"/>
      <point x="263" y="348" type="curve" smooth="yes"/>
      <point x="305" y="348"/>
      <point x="327" y="326"/>
      <point x="327" y="294" type="curve" smooth="yes"/>
      <point x="327" y="236"/>
      <point x="259" y="186"/>
      <point x="148" y="186" type="curve" smooth="yes"/>
      <point x="109" y="186"/>
      <point x="58" y="192"/>
      <point x="19" y="202" type="curve"/>
      <point x="86" y="71" type="line"/>
      <point x="213" y="51"/>
      <point x="286" y="27"/>
      <point x="424" y="-55" type="curve"/>
    </contour>
    <contour>
      <point x="476" y="456" type="line"/>
      <point x="476" y="521" type="line"/>
      <point x="-30" y="521" type="line"/>
      <point x="-30" y="456" type="line"/>
    </contour>
    <contour>
      <point x="382" y="596"/>
      <point x="325" y="665"/>
      <point x="224" y="665" type="curve" smooth="yes"/>
      <point x="182" y="665"/>
      <point x="115" y="653"/>
      <point x="80" y="653" type="curve" smooth="yes"/>
      <point x="43" y="653"/>
      <point x="29" y="667"/>
      <point x="29" y="688" type="curve" smooth="yes"/>
      <point x="29" y="704"/>
      <point x="37" y="721"/>
      <point x="50" y="738" type="curve"/>
      <point x="6" y="764" type="line"/>
      <point x="-13" y="740"/>
      <point x="-29" y="712"/>
      <point x="-29" y="678" type="curve" smooth="yes"/>
      <point x="-29" y="610"/>
      <point x="32" y="564"/>
      <point x="114" y="564" type="curve" smooth="yes"/>
      <point x="156" y="564"/>
      <point x="246" y="576"/>
      <point x="279" y="576" type="curve" smooth="yes"/>
      <point x="311" y="576"/>
      <point x="322" y="565"/>
      <point x="322" y="545" type="curve" smooth="yes"/>
      <point x="322" y="535"/>
      <point x="319" y="525"/>
      <point x="312" y="516" type="curve"/>
      <point x="391" y="515" type="line"/>
    </contour>
  </outline>
</glyph>
<glyph name="bIsshar" format="1">
  <advance width="491"/>
  <outline>
    <contour>
      <point x="120" y="332" type="line"/>
      <point x="109" y="307"/>
      <point x="105" y="285"/>
      <point x="105" y="268" type="curve" smooth="yes"/>
      <point x="105" y="215"/>
      <point x="143" y="183"/>
      <point x="195" y="183" type="curve" smooth="yes"/>
      <point x="274" y="183"/>
      <point x="340" y="256"/>
      <point x="413" y="384" type="curve"/>
      <point x="471" y="351" type="line"/>
      <point x="395" y="209"/>
      <point x="322" y="79"/>
      <point x="200" y="79" type="curve" smooth="yes"/>
      <point x="103" y="79"/>
      <point x="40" y="162"/>
      <point x="40" y="261" type="curve" smooth="yes"/>
      <point x="40" y="298"/>
      <point x="49" y="329"/>
      <point x="63" y="356" type="curve"/>
    </contour>
    <contour>
      <point x="241" y="233"/>
      <point x="262" y="254"/>
      <point x="262" y="280" type="curve" smooth="yes"/>
      <point x="262" y="306"/>
      <point x="241" y="327"/>
      <point x="215" y="327" type="curve" smooth="yes"/>
      <point x="188" y="327"/>
      <point x="167" y="306"/>
      <point x="167" y="280" type="curve" smooth="yes"/>
      <point x="167" y="254"/>
      <point x="188" y="233"/>
      <point x="215" y="233" type="curve" smooth="yes"/>
    </contour>
  </outline>
</glyph>
<glyph name="bJBa" format="1">
  <advance width="608"/>
  <outline>
    <contour>
      <point x="522" y="-99" type="line"/>
      <point x="509" y="-29"/>
      <point x="506" y="50"/>
      <point x="506" y="85" type="curve" smooth="yes"/>
      <point x="506" y="170"/>
      <point x="524" y="241"/>
      <point x="581" y="320" type="curve"/>
      <point x="494" y="424" type="line"/>
      <point x="470" y="411"/>
      <point x="440" y="405"/>
      <point x="419" y="405" type="curve" smooth="yes"/>
      <point x="375" y="405"/>
      <point x="331" y="432"/>
      <point x="300" y="494" type="curve"/>
      <point x="248" y="490" type="line"/>
      <point x="179" y="452"/>
      <point x="128" y="398"/>
      <point x="128" y="342" type="curve" smooth="yes"/>
      <point x="128" y="283"/>
      <point x="183" y="196"/>
      <point x="262" y="196" type="curve" smooth="yes"/>
      <point x="301" y="196"/>
      <point x="350" y="217"/>
      <point x="383" y="252" type="curve"/>
      <point x="311" y="275" type="line"/>
      <point x="326" y="264"/>
      <point x="338" y="237"/>
      <point x="338" y="217" type="curve" smooth="yes"/>
      <point x="338" y="179"/>
      <point x="297" y="153"/>
      <point x="248" y="153" type="curve" smooth="yes"/>
      <point x="142" y="153"/>
      <point x="84" y="274"/>
      <point x="59" y="421" type="curve"/>
      <point x="4" y="407" type="line"/>
      <point x="44" y="171"/>
      <point x="144" y="50"/>
      <point x="268" y="50" type="curve" smooth="yes"/>
      <point x="355" y="50"/>
      <point x="412" y="109"/>
      <point x="412" y="180" type="curve" smooth="yes"/>
      <point x="412" y="237"/>
      <point x="376" y="298"/>
      <point x="326" y="338" type="curve"/>
      <point x="277" y="299"/>
      <point x="246" y="283"/>
      <point x="225" y="283" type="curve" smooth="yes"/>
      <point x="213" y="283"/>
      <point x="204" y="288"/>
      <point x="204" y="301" type="curve" smooth="yes"/>
      <point x="204" y="319"/>
      <point x="219" y="354"/>
      <point x="318" y="419" type="curve"/>
      <point x="283" y="425" type="line"/>
      <point x="335" y="345"/>
      <point x="380" y="313"/>
      <point x="447" y="313" type="curve" smooth="yes"/>
      <point x="478" y="313"/>
      <point x="505" y="320"/>
      <point x="534" y="335" type="curve"/>
      <point x="496" y="385" type="line"/>
      <point x="455" y="327"/>
      <point x="437" y="234"/>
      <point x="437" y="142" type="curve" smooth="yes"/>
      <point x="437" y="77"/>
      <point x="446" y="-6"/>
      <point x="467" y="-108" type="curve"/>
    </contour>
    <contour>
      <point x="491" y="-76" type="line"/>
      <point x="465" y="-34"/>
      <point x="411" y="-1"/>
      <point x="324" y="15" type="curve"/>
      <point x="359" y="-17" type="line"/>
      <point x="411" y="16"/>
      <point x="459" y="40"/>
      <point x="502" y="54" type="curve"/>
      <point x="465" y="138" type="line"/>
      <point x="391" y="103"/>
      <point x="343" y="76"/>
      <point x="267" y="29" type="curve"/>
      <point x="336" y="-62" type="line"/>
      <point x="404" y="-64"/>
      <point x="450" y="-81"/>
      <point x="467" y="-108" type="curve"/>
    </contour>
    <contour>
      <point x="638" y="456" type="line"/>
      <point x="638" y="521" type="line"/>
      <point x="-30" y="521" type="line"/>
      <point x="-30" y="456" type="line"/>
    </contour>
  </outline>
</glyph>
<glyph name="bJJBa" format="1">
  <advance width="846"/>
  <outline>
    <contour>
      <point x="759" y="-141" type="line"/>
      <point x="746" y="-71"/>
      <point x="743" y="8"/>
      <point x="743" y="43" type="curve" smooth="yes"/>
      <point x="743" y="128"/>
      <point x="761" y="199"/>
      <point x="818" y="278" type="curve"/>
      <point x="731" y="382" type="line"/>
      <point x="707" y="369"/>
      <point x="679" y="363"/>
      <point x="653" y="363" type="curve" smooth="yes"/>
      <point x="602" y="363"/>
      <point x="553" y="385"/>
      <point x="504" y="434" type="curve"/>
      <point x="419" y="383"/>
      <point x="385" y="334"/>
      <point x="385" y="285" type="curve" smooth="yes"/>
      <point x="385" y="229"/>
      <point x="431" y="158"/>
      <point x="499" y="158" type="curve" smooth="yes"/>
      <point x="539" y="158"/>
      <point x="587" y="182"/>
      <point x="620" y="210" type="curve"/>
      <point x="548" y="233" type="line"/>
      <point x="563" y="222"/>
      <point x="575" y="195"/>
      <point x="575" y="174" type="curve" smooth="yes"/>
      <point x="575" y="137"/>
      <point x="538" y="112"/>
      <point x="493" y="112" type="curve" smooth="yes"/>
      <point x="437" y="112"/>
      <point x="394" y="150"/>
      <point x="367" y="214" type="curve"/>
      <point x="316" y="188" type="line"/>
      <point x="363" y="70"/>
      <point x="443" y="12"/>
      <point x="518" y="12" type="curve" smooth="yes"/>
      <point x="595" y="12"/>
      <point x="648" y="72"/>
      <point x="648" y="137" type="curve" smooth="yes"/>
      <point x="648" y="189"/>
      <point x="615" y="240"/>
      <point x="566" y="290" type="curve"/>
      <point x="520" y="255"/>
      <point x="490" y="241"/>
      <point x="471" y="241" type="curve" smooth="yes"/>
      <point x="462" y="241"/>
      <point x="456" y="245"/>
      <point x="456" y="254" type="curve" smooth="yes"/>
      <point x="456" y="270"/>
      <point x="471" y="300"/>
      <point x="565" y="357" type="curve"/>
      <point x="510" y="363" type="line"/>
      <point x="565" y="297"/>
      <point x="614" y="271"/>
      <point x="681" y="271" type="curve" smooth="yes"/>
      <point x="716" y="271"/>
      <point x="742" y="278"/>
      <point x="771" y="293" type="curve"/>
      <point x="733" y="343" type="line"/>
      <point x="692" y="285"/>
      <point x="674" y="192"/>
      <point x="674" y="100" type="curve" smooth="yes"/>
      <point x="674" y="35"/>
      <point x="683" y="-48"/>
      <point x="704" y="-150" type="curve"/>
    </contour>
    <contour>
      <point x="327" y="64"/>
      <point x="377" y="124"/>
      <point x="377" y="196" type="curve" smooth="yes"/>
      <point x="377" y="253"/>
      <point x="346" y="302"/>
      <point x="299" y="352" type="curve"/>
      <point x="253" y="317"/>
      <point x="223" y="303"/>
      <point x="204" y="303" type="curve" smooth="yes"/>
      <point x="193" y="303"/>
      <point x="186" y="308"/>
      <point x="186" y="319" type="curve" smooth="yes"/>
      <point x="186" y="335"/>
      <point x="201" y="364"/>
      <point x="298" y="419" type="curve"/>
      <point x="263" y="425" type="line"/>
      <point x="312" y="366"/>
      <point x="363" y="333"/>
      <point x="432" y="333" type="curve" smooth="yes"/>
      <point x="487" y="333"/>
      <point x="527" y="354"/>
      <point x="550" y="377" type="curve"/>
      <point x="504" y="434" type="line"/>
      <point x="474" y="418"/>
      <point x="436" y="411"/>
      <point x="410" y="411" type="curve" smooth="yes"/>
      <point x="362" y="411"/>
      <point x="313" y="436"/>
      <point x="280" y="494" type="curve"/>
      <point x="228" y="490" type="line"/>
      <point x="164" y="455"/>
      <point x="115" y="407"/>
      <point x="115" y="350" type="curve" smooth="yes"/>
      <point x="115" y="294"/>
      <point x="162" y="220"/>
      <point x="232" y="220" type="curve" smooth="yes"/>
      <point x="272" y="220"/>
      <point x="320" y="244"/>
      <point x="353" y="272" type="curve"/>
      <point x="281" y="295" type="line"/>
      <point x="293" y="284"/>
      <point x="303" y="257"/>
      <point x="303" y="236" type="curve" smooth="yes"/>
      <point x="303" y="199"/>
      <point x="269" y="174"/>
      <point x="226" y="174" type="curve" smooth="yes"/>
      <point x="137" y="174"/>
      <point x="81" y="281"/>
      <point x="59" y="421" type="curve"/>
      <point x="4" y="407" type="line"/>
      <point x="43" y="169"/>
      <point x="140" y="64"/>
      <point x="246" y="64" type="curve" smooth="yes"/>
    </contour>
    <contour>
      <point x="728" y="-118" type="line"/>
      <point x="702" y="-76"/>
      <point x="648" y="-43"/>
      <point x="561" y="-27" type="curve"/>
      <point x="596" y="-59" type="line"/>
      <point x="648" y="-26"/>
      <point x="696" y="-2"/>
      <point x="739" y="12" type="curve"/>
      <point x="702" y="96" type="line"/>
      <point x="628" y="61"/>
      <point x="580" y="34"/>
      <point x="504" y="-13" type="curve"/>
      <point x="573" y="-104" type="line"/>
      <point x="641" y="-106"/>
      <point x="687" y="-123"/>
      <point x="704" y="-150" type="curve"/>
    </contour>
    <contour>
      <point x="876" y="456" type="line"/>
      <point x="876" y="521" type="line"/>
      <point x="-30" y="521" type="line"/>
      <point x="-30" y="456" type="line"/>
    </contour>
  </outline>
</glyph>
<glyph name="bJJa" format="1">
  <advance width="846"/>
  <outline>
    <contour>
      <point x="755" y="-26" type="line"/>
      <point x="745" y="31"/>
      <point x="743" y="94"/>
      <point x="743" y="125" type="curve" smooth="yes"/>
      <point x="743" y="179"/>
      <point x="761" y="226"/>
      <point x="818" y="278" type="curve"/>
      <point x="731" y="382" type="line"/>
      <point x="707" y="369"/>
      <point x="679" y="363"/>
      <point x="653" y="363" type="curve" smooth="yes"/>
      <point x="602" y="363"/>
      <point x="553" y="385"/>
      <point x="504" y="434" type="curve"/>
      <point x="419" y="383"/>
      <point x="385" y="334"/>
      <point x="385" y="285" type="curve" smooth="yes"/>
      <point x="385" y="229"/>
      <point x="431" y="158"/>
      <point x="499" y="158" type="curve" smooth="yes"/>
      <point x="539" y="158"/>
      <point x="587" y="182"/>
      <point x="620" y="210" type="curve"/>
      <point x="548" y="233" type="line"/>
      <point x="563" y="222"/>
      <point x="575" y="195"/>
      <point x="575" y="174" type="curve" smooth="yes"/>
      <point x="575" y="137"/>
      <point x="538" y="112"/>
      <point x="493" y="112" type="curve" smooth="yes"/>
      <point x="437" y="112"/>
      <point x="394" y="150"/>
      <point x="367" y="214" type="curve"/>
      <point x="316" y="188" type="line"/>
      <point x="363" y="62"/>
      <point x="434" y="2"/>
      <point x="515" y="2" type="curve" smooth="yes"/>
      <point x="596" y="2"/>
      <point x="649" y="62"/>
      <point x="649" y="134" type="curve" smooth="yes"/>
      <point x="649" y="191"/>
      <point x="616" y="240"/>
      <point x="566" y="290" type="curve"/>
      <point x="520" y="255"/>
      <point x="490" y="241"/>
      <point x="471" y="241" type="curve" smooth="yes"/>
      <point x="462" y="241"/>
      <point x="456" y="245"/>
      <point x="456" y="254" type="curve" smooth="yes"/>
      <point x="456" y="270"/>
      <point x="471" y="300"/>
      <point x="565" y="357" type="curve"/>
      <point x="510" y="363" type="line"/>
      <point x="565" y="297"/>
      <point x="614" y="271"/>
      <point x="681" y="271" type="curve" smooth="yes"/>
      <point x="716" y="271"/>
      <point x="742" y="278"/>
      <point x="771" y="293" type="curve"/>
      <point x="733" y="343" type="line"/>
      <point x="694" y="305"/>
      <point x="674" y="247"/>
      <point x="674" y="173" type="curve" smooth="yes"/>
      <point x="674" y="126"/>
      <point x="682" y="52"/>
      <point x="700" y="-35" type="curve"/>
    </contour>
    <contour>
      <point x="327" y="64"/>
      <point x="377" y="124"/>
      <point x="377" y="196" type="curve" smooth="yes"/>
      <point x="377" y="253"/>
      <point x="346" y="302"/>
      <point x="299" y="352" type="curve"/>
      <point x="253" y="317"/>
      <point x="223" y="303"/>
      <point x="204" y="303" type="curve" smooth="yes"/>
      <point x="193" y="303"/>
      <point x="186" y="308"/>
      <point x="186" y="319" type="curve" smooth="yes"/>
      <point x="186" y="335"/>
      <point x="201" y="364"/>
      <point x="298" y="419" type="curve"/>
      <point x="263" y="425" type="line"/>
      <point x="313" y="365"/>
      <point x="363" y="333"/>
      <point x="433" y="333" type="curve" smooth="yes"/>
      <point x="486" y="333"/>
      <point x="527" y="354"/>
      <point x="550" y="377" type="curve"/>
      <point x="504" y="434" type="line"/>
      <point x="474" y="418"/>
      <point x="436" y="411"/>
      <point x="409" y="411" type="curve" smooth="yes"/>
      <point x="362" y="411"/>
      <point x="313" y="436"/>
      <point x="280" y="494" type="curve"/>
      <point x="228" y="490" type="line"/>
      <point x="164" y="455"/>
      <point x="115" y="407"/>
      <point x="115" y="350" type="curve" smooth="yes"/>
      <point x="115" y="294"/>
      <point x="162" y="220"/>
      <point x="232" y="220" type="curve" smooth="yes"/>
      <point x="272" y="220"/>
      <point x="320" y="244"/>
      <point x="353" y="272" type="curve"/>
      <point x="281" y="295" type="line"/>
      <point x="293" y="284"/>
      <point x="303" y="257"/>
      <point x="303" y="236" type="curve" smooth="yes"/>
      <point x="303" y="199"/>
      <point x="269" y="174"/>
      <point x="226" y="174" type="curve" smooth="yes"/>
      <point x="137" y="174"/>
      <point x="81" y="281"/>
      <point x="59" y="421" type="curve"/>
      <point x="4" y="407" type="line"/>
      <point x="43" y="169"/>
      <point x="140" y="64"/>
      <point x="246" y="64" type="curve" smooth="yes"/>
    </contour>
    <contour>
      <point x="876" y="456" type="line"/>
      <point x="876" y="521" type="line"/>
      <point x="-30" y="521" type="line"/>
      <point x="-30" y="456" type="line"/>
    </contour>
  </outline>
</glyph>
<glyph name="bJRa" format="1">
  <advance width="628"/>
  <outline>
    <contour>
      <point x="542" y="-112" type="line"/>
      <point x="529" y="-42"/>
      <point x="526" y="37"/>
      <point x="526" y="73" type="curve" smooth="yes"/>
      <point x="526" y="162"/>
      <point x="544" y="237"/>
      <point x="601" y="320" type="curve"/>
      <point x="514" y="424" type="line"/>
      <point x="490" y="411"/>
      <point x="460" y="405"/>
      <point x="439" y="405" type="curve" smooth="yes"/>
      <point x="395" y="405"/>
      <point x="351" y="432"/>
      <point x="320" y="494" type="curve"/>
      <point x="268" y="490" type="line"/>
      <point x="199" y="452"/>
      <point x="148" y="398"/>
      <point x="148" y="342" type="curve" smooth="yes"/>
      <point x="148" y="283"/>
      <point x="203" y="196"/>
      <point x="282" y="196" type="curve" smooth="yes"/>
      <point x="321" y="196"/>
      <point x="370" y="217"/>
      <point x="403" y="252" type="curve"/>
      <point x="331" y="275" type="line"/>
      <point x="346" y="264"/>
      <point x="358" y="237"/>
      <point x="358" y="217" type="curve" smooth="yes"/>
      <point x="358" y="179"/>
      <point x="317" y="153"/>
      <point x="268" y="153" type="curve" smooth="yes"/>
      <point x="162" y="153"/>
      <point x="104" y="274"/>
      <point x="79" y="421" type="curve"/>
      <point x="24" y="407" type="line"/>
      <point x="64" y="171"/>
      <point x="164" y="50"/>
      <point x="288" y="50" type="curve" smooth="yes"/>
      <point x="375" y="50"/>
      <point x="432" y="109"/>
      <point x="432" y="180" type="curve" smooth="yes"/>
      <point x="432" y="237"/>
      <point x="396" y="298"/>
      <point x="346" y="338" type="curve"/>
      <point x="297" y="299"/>
      <point x="266" y="283"/>
      <point x="245" y="283" type="curve" smooth="yes"/>
      <point x="233" y="283"/>
      <point x="224" y="288"/>
      <point x="224" y="301" type="curve" smooth="yes"/>
      <point x="224" y="319"/>
      <point x="239" y="354"/>
      <point x="338" y="419" type="curve"/>
      <point x="303" y="425" type="line"/>
      <point x="355" y="345"/>
      <point x="400" y="313"/>
      <point x="467" y="313" type="curve" smooth="yes"/>
      <point x="498" y="313"/>
      <point x="525" y="320"/>
      <point x="554" y="335" type="curve"/>
      <point x="516" y="385" type="line"/>
      <point x="475" y="324"/>
      <point x="457" y="226"/>
      <point x="457" y="129" type="curve" smooth="yes"/>
      <point x="457" y="79"/>
      <point x="462" y="18"/>
      <point x="474" y="-54" type="curve"/>
      <point x="493" y="-55" type="line"/>
      <point x="466" y="-14"/>
      <point x="420" y="14"/>
      <point x="370" y="14" type="curve" smooth="yes"/>
      <point x="341" y="14"/>
      <point x="223" y="5"/>
      <point x="183" y="5" type="curve" smooth="yes"/>
      <point x="118" y="5"/>
      <point x="88" y="28"/>
      <point x="88" y="71" type="curve" smooth="yes"/>
      <point x="88" y="89"/>
      <point x="93" y="109"/>
      <point x="99" y="124" type="curve"/>
      <point x="54" y="142" type="line"/>
      <point x="42" y="117"/>
      <point x="35" y="88"/>
      <point x="35" y="62" type="curve" smooth="yes"/>
      <point x="35" y="-22"/>
      <point x="108" y="-89"/>
      <point x="217" y="-89" type="curve" smooth="yes"/>
      <point x="272" y="-89"/>
      <point x="379" y="-72"/>
      <point x="421" y="-72" type="curve" smooth="yes"/>
      <point x="461" y="-72"/>
      <point x="478" y="-87"/>
      <point x="487" y="-121" type="curve"/>
    </contour>
    <contour>
      <point x="658" y="456" type="line"/>
      <point x="658" y="521" type="line"/>
      <point x="-30" y="521" type="line"/>
      <point x="-30" y="456" type="line"/>
    </contour>
  </outline>
</glyph>
<glyph name="bJha" format="1">
  <advance width="576"/>
  <outline>
    <contour>
      <point x="384" y="0" type="line"/>
      <point x="384" y="466" type="line"/>
      <point x="304" y="466" type="line"/>
      <point x="304" y="72" type="line"/>
      <point x="353" y="39" type="line"/>
      <point x="307" y="157"/>
      <point x="204" y="251"/>
      <point x="81" y="283" type="curve"/>
      <point x="94" y="213" type="line"/>
      <point x="171" y="268"/>
      <point x="269" y="312"/>
      <point x="368" y="338" type="curve"/>
      <point x="332" y="444" type="line"/>
      <point x="233" y="424"/>
      <point x="95" y="364"/>
      <point x="-5" y="293" type="curve"/>
      <point x="87" y="164" type="line"/>
      <point x="203" y="153"/>
      <point x="288" y="106"/>
      <point x="324" y="0" type="curve"/>
    </contour>
    <contour>
      <point x="384" y="456" type="line"/>
      <point x="384" y="521" type="line"/>
      <point x="-30" y="521" type="line"/>
      <point x="-30" y="456" type="line"/>
    </contour>
    <contour>
      <point x="526" y="51" type="line"/>
      <point x="526" y="456" type="line"/>
      <point x="606" y="456" type="line"/>
      <point x="606" y="521" type="line"/>
      <point x="446" y="521" type="line"/>
      <point x="446" y="126" type="line"/>
      <point x="494" y="83" type="line"/>
      <point x="473" y="158"/>
      <point x="431" y="217"/>
      <point x="367" y="257" type="curve"/>
      <point x="375" y="154" type="line"/>
      <point x="434" y="140"/>
      <point x="462" y="102"/>
      <point x="466" y="51" type="curve"/>
    </contour>
  </outline>
</glyph>
<glyph name="bKBa" format="1">
  <advance width="571"/>
  <outline>
    <contour>
      <point x="601" y="456" type="line"/>
      <point x="601" y="521" type="line"/>
      <point x="-30" y="521" type="line"/>
      <point x="-30" y="456" type="line"/>
    </contour>
    <contour>
      <point x="213" y="427"/>
      <point x="106" y="380"/>
      <point x="1" y="298" type="curve"/>
      <point x="65" y="205" type="line"/>
      <point x="121" y="205"/>
      <point x="169" y="189"/>
      <point x="201" y="157" type="curve"/>
      <point x="231" y="187" type="line"/>
      <point x="176" y="244"/>
      <point x="123" y="278"/>
      <point x="56" y="286" type="curve"/>
      <point x="94" y="228" type="line"/>
      <point x="177" y="299"/>
      <point x="263" y="333"/>
      <point x="341" y="333" type="curve" smooth="yes"/>
      <point x="429" y="333"/>
      <point x="481" y="286"/>
      <point x="481" y="242" type="curve" smooth="yes"/>
      <point x="481" y="220"/>
      <point x="468" y="202"/>
      <point x="448" y="191" type="curve"/>
      <point x="512" y="181" type="line"/>
      <point x="509" y="225"/>
      <point x="484" y="248"/>
      <point x="451" y="248" type="curve" smooth="yes"/>
      <point x="415" y="248"/>
      <point x="387" y="220"/>
      <point x="387" y="183" type="curve" smooth="yes"/>
      <point x="387" y="145"/>
      <point x="417" y="114"/>
      <point x="458" y="114" type="curve" smooth="yes"/>
      <point x="508" y="114"/>
      <point x="544" y="160"/>
      <point x="544" y="223" type="curve" smooth="yes"/>
      <point x="544" y="317"/>
      <point x="462" y="427"/>
      <point x="311" y="427" type="curve" smooth="yes"/>
    </contour>
    <contour>
      <point x="362" y="-60" type="line"/>
      <point x="362" y="468" type="line"/>
      <point x="282" y="467" type="line"/>
      <point x="282" y="20" type="line"/>
      <point x="330" y="-31" type="line"/>
      <point x="299" y="60"/>
      <point x="205" y="137"/>
      <point x="98" y="144" type="curve"/>
      <point x="143" y="82" type="line"/>
      <point x="227" y="147"/>
      <point x="281" y="167"/>
      <point x="350" y="181" type="curve"/>
      <point x="322" y="276" type="line"/>
      <point x="261" y="262"/>
      <point x="163" y="231"/>
      <point x="58" y="145" type="curve"/>
      <point x="123" y="53" type="line"/>
      <point x="215" y="49"/>
      <point x="283" y="9"/>
      <point x="302" y="-60" type="curve"/>
    </contour>
  </outline>
</glyph>
<glyph name="bKLa" format="1">
  <advance width="616"/>
  <outline>
    <contour>
      <point x="381" y="43" type="line"/>
      <point x="381" y="468" type="line"/>
      <point x="301" y="468" type="line"/>
      <point x="301" y="117" type="line"/>
      <point x="358" y="53" type="line"/>
      <point x="323" y="181"/>
      <point x="209" y="279"/>
      <point x="86" y="292" type="curve"/>
      <point x="124" y="233" type="line"/>
      <point x="196" y="292"/>
      <point x="290" y="330"/>
      <point x="374" y="330" type="curve" smooth="yes"/>
      <point x="452" y="330"/>
      <point x="502" y="298"/>
      <point x="502" y="253" type="curve" smooth="yes"/>
      <point x="502" y="231"/>
      <point x="490" y="208"/>
      <point x="475" y="195" type="curve"/>
      <point x="537" y="176" type="line"/>
      <point x="536" y="217"/>
      <point x="515" y="250"/>
      <point x="472" y="250" type="curve" smooth="yes"/>
      <point x="433" y="250"/>
      <point x="407" y="222"/>
      <point x="407" y="184" type="curve" smooth="yes"/>
      <point x="407" y="142"/>
      <point x="439" y="113"/>
      <point x="479" y="113" type="curve" smooth="yes"/>
      <point x="527" y="113"/>
      <point x="567" y="156"/>
      <point x="567" y="229" type="curve" smooth="yes"/>
      <point x="567" y="345"/>
      <point x="466" y="432"/>
      <point x="335" y="432" type="curve" smooth="yes"/>
      <point x="225" y="432"/>
      <point x="101" y="371"/>
      <point x="16" y="299" type="curve"/>
      <point x="98" y="177" type="line"/>
      <point x="222" y="176"/>
      <point x="316" y="107"/>
      <point x="316" y="43" type="curve"/>
    </contour>
    <contour>
      <point x="167" y="-105"/>
      <point x="189" y="-79"/>
      <point x="189" y="-51" type="curve" smooth="yes"/>
      <point x="189" y="-24"/>
      <point x="169" y="-2"/>
      <point x="142" y="-2" type="curve" smooth="yes"/>
      <point x="117" y="-2"/>
      <point x="100" y="-20"/>
      <point x="100" y="-42" type="curve" smooth="yes"/>
      <point x="100" y="-64"/>
      <point x="117" y="-83"/>
      <point x="143" y="-84" type="curve"/>
      <point x="142" y="-42" type="line"/>
      <point x="132" y="-51"/>
      <point x="119" y="-55"/>
      <point x="112" y="-55" type="curve" smooth="yes"/>
      <point x="97" y="-55"/>
      <point x="90" y="-36"/>
      <point x="90" y="-21" type="curve" smooth="yes"/>
      <point x="90" y="8"/>
      <point x="115" y="28"/>
      <point x="145" y="28" type="curve" smooth="yes"/>
      <point x="177" y="28"/>
      <point x="196" y="6"/>
      <point x="206" y="-34" type="curve"/>
      <point x="241" y="-34" type="line"/>
      <point x="241" y="-4"/>
      <point x="254" y="12"/>
      <point x="274" y="12" type="curve" smooth="yes"/>
      <point x="300" y="12"/>
      <point x="319" y="-13"/>
      <point x="321" y="-59" type="curve"/>
      <point x="381" y="-59" type="line"/>
      <point x="381" y="43" type="line"/>
      <point x="316" y="43" type="line"/>
      <point x="316" y="-1" type="line"/>
      <point x="347" y="-48" type="line"/>
      <point x="336" y="27"/>
      <point x="290" y="91"/>
      <point x="245" y="91" type="curve" smooth="yes"/>
      <point x="217" y="91"/>
      <point x="187" y="66"/>
      <point x="187" y="29" type="curve"/>
      <point x="226" y="0" type="line"/>
      <point x="216" y="64"/>
      <point x="176" y="112"/>
      <point x="116" y="112" type="curve" smooth="yes"/>
      <point x="61" y="112"/>
      <point x="15" y="71"/>
      <point x="15" y="13" type="curve" smooth="yes"/>
      <point x="15" y="-50"/>
      <point x="68" y="-105"/>
      <point x="127" y="-105" type="curve" smooth="yes"/>
    </contour>
    <contour>
      <point x="626" y="456" type="line"/>
      <point x="626" y="521" type="line"/>
      <point x="-30" y="521" type="line"/>
      <point x="-30" y="456" type="line"/>
    </contour>
  </outline>
</glyph>
<glyph name="bKMa" format="1">
  <advance width="558"/>
  <outline>
    <contour>
      <point x="508" y="-28" type="line"/>
      <point x="508" y="467" type="line"/>
      <point x="428" y="467" type="line"/>
      <point x="428" y="37" type="line"/>
      <point x="489" y="-16" type="line"/>
      <point x="449" y="103"/>
      <point x="344" y="185"/>
      <point x="251" y="185" type="curve" smooth="yes"/>
      <point x="188" y="185"/>
      <point x="145" y="147"/>
      <point x="145" y="97" type="curve" smooth="yes"/>
      <point x="145" y="49"/>
      <point x="184" y="15"/>
      <point x="228" y="15" type="curve" smooth="yes"/>
      <point x="270" y="15"/>
      <point x="300" y="45"/>
      <point x="300" y="83" type="curve" smooth="yes"/>
      <point x="300" y="102"/>
      <point x="293" y="124"/>
      <point x="268" y="141" type="curve"/>
      <point x="266" y="78" type="line"/>
      <point x="274" y="85"/>
      <point x="287" y="89"/>
      <point x="301" y="89" type="curve" smooth="yes"/>
      <point x="366" y="89"/>
      <point x="429" y="39"/>
      <point x="448" y="-28" type="curve"/>
    </contour>
    <contour>
      <point x="274" y="467" type="line"/>
      <point x="204" y="467" type="line"/>
      <point x="204" y="388" type="line"/>
      <point x="204" y="191" type="line"/>
      <point x="258" y="147" type="line"/>
      <point x="220" y="251"/>
      <point x="138" y="313"/>
      <point x="51" y="326" type="curve"/>
      <point x="88" y="277" type="line"/>
      <point x="134" y="318"/>
      <point x="200" y="349"/>
      <point x="271" y="349" type="curve" smooth="yes"/>
      <point x="318" y="349"/>
      <point x="358" y="335"/>
      <point x="358" y="309" type="curve" smooth="yes"/>
      <point x="358" y="293"/>
      <point x="344" y="276"/>
      <point x="330" y="271" type="curve"/>
      <point x="366" y="229" type="line"/>
      <point x="378" y="241"/>
      <point x="383" y="256"/>
      <point x="383" y="268" type="curve" smooth="yes"/>
      <point x="383" y="291"/>
      <point x="366" y="311"/>
      <point x="339" y="311" type="curve" smooth="yes"/>
      <point x="313" y="311"/>
      <point x="293" y="291"/>
      <point x="293" y="267" type="curve" smooth="yes"/>
      <point x="293" y="242"/>
      <point x="313" y="220"/>
      <point x="344" y="220" type="curve" smooth="yes"/>
      <point x="375" y="220"/>
      <point x="405" y="243"/>
      <point x="405" y="291" type="curve" smooth="yes"/>
      <point x="405" y="360"/>
      <point x="343" y="436"/>
      <point x="231" y="436" type="curve" smooth="yes"/>
      <point x="163" y="436"/>
      <point x="86" y="407"/>
      <point x="-2" y="340" type="curve"/>
      <point x="68" y="235" type="line"/>
      <point x="134" y="228"/>
      <point x="198" y="205"/>
      <point x="225" y="142" type="curve"/>
      <point x="274" y="141" type="line"/>
      <point x="274" y="388" type="line"/>
    </contour>
    <contour>
      <point x="588" y="456" type="line"/>
      <point x="588" y="521" type="line"/>
      <point x="-30" y="521" type="line"/>
      <point x="-30" y="456" type="line"/>
    </contour>
  </outline>
</glyph>
<glyph name="bKRa" format="1">
  <advance width="670"/>
  <outline>
    <contour>
      <point x="452" y="-20" type="line"/>
      <point x="452" y="297" type="line" smooth="yes"/>
      <point x="452" y="366"/>
      <point x="386" y="444"/>
      <point x="318" y="444" type="curve" smooth="yes"/>
      <point x="247" y="444"/>
      <point x="154" y="358"/>
      <point x="154" y="273" type="curve" smooth="yes"/>
      <point x="154" y="217"/>
      <point x="193" y="166"/>
      <point x="250" y="166" type="curve" smooth="yes"/>
      <point x="294" y="166"/>
      <point x="325" y="196"/>
      <point x="325" y="233" type="curve" smooth="yes"/>
      <point x="325" y="270"/>
      <point x="295" y="299"/>
      <point x="261" y="299" type="curve" smooth="yes"/>
      <point x="231" y="299"/>
      <point x="205" y="278"/>
      <point x="195" y="252" type="curve"/>
      <point x="258" y="218" type="line"/>
      <point x="254" y="227"/>
      <point x="251" y="243"/>
      <point x="251" y="253" type="curve" smooth="yes"/>
      <point x="251" y="299"/>
      <point x="328" y="362"/>
      <point x="356" y="362" type="curve" smooth="yes"/>
      <point x="367" y="362"/>
      <point x="372" y="353"/>
      <point x="372" y="342" type="curve" smooth="yes"/>
      <point x="372" y="61" type="line"/>
      <point x="413" y="13" type="line"/>
      <point x="390" y="91"/>
      <point x="341" y="139"/>
      <point x="270" y="139" type="curve" smooth="yes"/>
      <point x="250" y="139"/>
      <point x="194" y="135"/>
      <point x="171" y="135" type="curve" smooth="yes"/>
      <point x="112" y="135"/>
      <point x="79" y="161"/>
      <point x="79" y="211" type="curve" smooth="yes"/>
      <point x="79" y="239"/>
      <point x="89" y="270"/>
      <point x="100" y="294" type="curve"/>
      <point x="55" y="318" type="line"/>
      <point x="33" y="282"/>
      <point x="21" y="242"/>
      <point x="21" y="203" type="curve" smooth="yes"/>
      <point x="21" y="108"/>
      <point x="95" y="36"/>
      <point x="201" y="36" type="curve" smooth="yes"/>
      <point x="238" y="36"/>
      <point x="283" y="45"/>
      <point x="316" y="45" type="curve" smooth="yes"/>
      <point x="368" y="45"/>
      <point x="389" y="22"/>
      <point x="392" y="-20" type="curve"/>
    </contour>
    <contour>
      <point x="601" y="128"/>
      <point x="642" y="173"/>
      <point x="642" y="235" type="curve" smooth="yes"/>
      <point x="642" y="305"/>
      <point x="591" y="366"/>
      <point x="531" y="366" type="curve" smooth="yes"/>
      <point x="491" y="366"/>
      <point x="454" y="339"/>
      <point x="433" y="290" type="curve"/>
      <point x="452" y="181" type="line"/>
      <point x="452" y="249"/>
      <point x="500" y="283"/>
      <point x="541" y="283" type="curve" smooth="yes"/>
      <point x="574" y="283"/>
      <point x="592" y="263"/>
      <point x="592" y="241" type="curve" smooth="yes"/>
      <point x="592" y="216"/>
      <point x="570" y="205"/>
      <point x="549" y="205" type="curve" smooth="yes"/>
      <point x="540" y="205"/>
      <point x="531" y="207"/>
      <point x="523" y="210" type="curve"/>
      <point x="582" y="160" type="line"/>
      <point x="593" y="172"/>
      <point x="597" y="183"/>
      <point x="597" y="194" type="curve" smooth="yes"/>
      <point x="597" y="222"/>
      <point x="574" y="243"/>
      <point x="545" y="243" type="curve" smooth="yes"/>
      <point x="513" y="243"/>
      <point x="489" y="219"/>
      <point x="489" y="188" type="curve" smooth="yes"/>
      <point x="489" y="155"/>
      <point x="516" y="128"/>
      <point x="553" y="128" type="curve" smooth="yes"/>
    </contour>
    <contour>
      <point x="700" y="456" type="line"/>
      <point x="700" y="521" type="line"/>
      <point x="-30" y="521" type="line"/>
      <point x="-30" y="456" type="line"/>
    </contour>
  </outline>
</glyph>
<glyph name="bKSa" format="1">
  <advance width="558"/>
  <outline>
    <contour>
      <point x="254" y="16"/>
      <point x="320" y="101"/>
      <point x="375" y="101" type="curve" smooth="yes"/>
      <point x="398" y="101"/>
      <point x="417" y="88"/>
      <point x="428" y="54" type="curve"/>
      <point x="465" y="65" type="line"/>
      <point x="434" y="152"/>
      <point x="394" y="198"/>
      <point x="342" y="198" type="curve" smooth="yes"/>
      <point x="272" y="198"/>
      <point x="221" y="120"/>
      <point x="155" y="120" type="curve" smooth="yes"/>
      <point x="121" y="120"/>
      <point x="110" y="144"/>
      <point x="101" y="180" type="curve"/>
      <point x="62" y="168" type="line"/>
      <point x="77" y="81"/>
      <point x="126" y="16"/>
      <point x="184" y="16" type="curve" smooth="yes"/>
    </contour>
    <contour>
      <point x="274" y="467" type="line"/>
      <point x="204" y="467" type="line"/>
      <point x="204" y="388" type="line"/>
      <point x="204" y="191" type="line"/>
      <point x="258" y="147" type="line"/>
      <point x="220" y="251"/>
      <point x="138" y="313"/>
      <point x="51" y="326" type="curve"/>
      <point x="88" y="277" type="line"/>
      <point x="134" y="318"/>
      <point x="200" y="349"/>
      <point x="271" y="349" type="curve" smooth="yes"/>
      <point x="318" y="349"/>
      <point x="358" y="335"/>
      <point x="358" y="309" type="curve" smooth="yes"/>
      <point x="358" y="293"/>
      <point x="344" y="276"/>
      <point x="330" y="271" type="curve"/>
      <point x="366" y="229" type="line"/>
      <point x="378" y="241"/>
      <point x="383" y="256"/>
      <point x="383" y="268" type="curve" smooth="yes"/>
      <point x="383" y="291"/>
      <point x="366" y="311"/>
      <point x="339" y="311" type="curve" smooth="yes"/>
      <point x="313" y="311"/>
      <point x="293" y="291"/>
      <point x="293" y="267" type="curve" smooth="yes"/>
      <point x="293" y="242"/>
      <point x="313" y="220"/>
      <point x="344" y="220" type="curve" smooth="yes"/>
      <point x="375" y="220"/>
      <point x="405" y="243"/>
      <point x="405" y="291" type="curve" smooth="yes"/>
      <point x="405" y="360"/>
      <point x="343" y="436"/>
      <point x="231" y="436" type="curve" smooth="yes"/>
      <point x="163" y="436"/>
      <point x="86" y="407"/>
      <point x="-2" y="340" type="curve"/>
      <point x="68" y="235" type="line"/>
      <point x="134" y="228"/>
      <point x="198" y="205"/>
      <point x="225" y="142" type="curve"/>
      <point x="274" y="141" type="line"/>
      <point x="274" y="388" type="line"/>
    </contour>
    <contour>
      <point x="508" y="0" type="line"/>
      <point x="508" y="467" type="line"/>
      <point x="428" y="467" type="line"/>
      <point x="428" y="0" type="line"/>
    </contour>
    <contour>
      <point x="588" y="456" type="line"/>
      <point x="588" y="521" type="line"/>
      <point x="-30" y="521" type="line"/>
      <point x="-30" y="456" type="line"/>
    </contour>
  </outline>
</glyph>
<glyph name="bKSsMa" format="1">
  <advance width="654"/>
  <outline>
    <contour>
      <point x="604" y="-28" type="line"/>
      <point x="604" y="467" type="line"/>
      <point x="524" y="467" type="line"/>
      <point x="524" y="37" type="line"/>
      <point x="585" y="-16" type="line"/>
      <point x="541" y="104"/>
      <point x="428" y="186"/>
      <point x="339" y="186" type="curve" smooth="yes"/>
      <point x="274" y="186"/>
      <point x="230" y="149"/>
      <point x="230" y="99" type="curve" smooth="yes"/>
      <point x="230" y="52"/>
      <point x="268" y="18"/>
      <point x="312" y="18" type="curve" smooth="yes"/>
      <point x="354" y="18"/>
      <point x="383" y="48"/>
      <point x="383" y="86" type="curve" smooth="yes"/>
      <point x="383" y="105"/>
      <point x="376" y="127"/>
      <point x="353" y="144" type="curve"/>
      <point x="340" y="79" type="line"/>
      <point x="352" y="89"/>
      <point x="367" y="95"/>
      <point x="388" y="95" type="curve" smooth="yes"/>
      <point x="451" y="95"/>
      <point x="520" y="47"/>
      <point x="544" y="-28" type="curve"/>
    </contour>
    <contour>
      <point x="236" y="328"/>
      <point x="163" y="433"/>
      <point x="79" y="433" type="curve" smooth="yes"/>
      <point x="30" y="433"/>
      <point x="-5" y="400"/>
      <point x="-5" y="357" type="curve" smooth="yes"/>
      <point x="-5" y="317"/>
      <point x="25" y="286"/>
      <point x="65" y="286" type="curve" smooth="yes"/>
      <point x="100" y="286"/>
      <point x="129" y="311"/>
      <point x="129" y="346" type="curve" smooth="yes"/>
      <point x="129" y="364"/>
      <point x="121" y="387"/>
      <point x="98" y="398" type="curve"/>
      <point x="97" y="342" type="line"/>
      <point x="106" y="347"/>
      <point x="115" y="349"/>
      <point x="124" y="349" type="curve" smooth="yes"/>
      <point x="151" y="349"/>
      <point x="166" y="330"/>
      <point x="166" y="303" type="curve" smooth="yes"/>
      <point x="166" y="286"/>
      <point x="160" y="271"/>
      <point x="147" y="254" type="curve"/>
      <point x="236" y="240" type="line"/>
    </contour>
    <contour>
      <point x="357" y="472" type="line"/>
      <point x="287" y="472" type="line"/>
      <point x="287" y="196" type="line"/>
      <point x="356" y="111" type="line"/>
      <point x="317" y="200"/>
      <point x="254" y="288"/>
      <point x="173" y="288" type="curve" smooth="yes"/>
      <point x="127" y="288"/>
      <point x="93" y="259"/>
      <point x="93" y="219" type="curve" smooth="yes"/>
      <point x="93" y="182"/>
      <point x="122" y="151"/>
      <point x="164" y="151" type="curve" smooth="yes"/>
      <point x="213" y="151"/>
      <point x="237" y="194"/>
      <point x="237" y="236" type="curve"/>
      <point x="188" y="193" type="line"/>
      <point x="199" y="200"/>
      <point x="210" y="202"/>
      <point x="219" y="202" type="curve" smooth="yes"/>
      <point x="265" y="202"/>
      <point x="307" y="161"/>
      <point x="321" y="105" type="curve"/>
      <point x="357" y="99" type="line"/>
    </contour>
    <contour>
      <point x="465" y="201"/>
      <point x="498" y="230"/>
      <point x="498" y="278" type="curve" smooth="yes"/>
      <point x="498" y="339"/>
      <point x="444" y="403"/>
      <point x="377" y="403" type="curve" smooth="yes"/>
      <point x="351" y="403"/>
      <point x="300" y="393"/>
      <point x="275" y="393" type="curve" smooth="yes"/>
      <point x="249" y="393"/>
      <point x="237" y="404"/>
      <point x="237" y="426" type="curve" smooth="yes"/>
      <point x="237" y="442"/>
      <point x="243" y="463"/>
      <point x="254" y="479" type="curve"/>
      <point x="174" y="478" type="line"/>
      <point x="171" y="467"/>
      <point x="170" y="456"/>
      <point x="170" y="448" type="curve" smooth="yes"/>
      <point x="170" y="384"/>
      <point x="246" y="318"/>
      <point x="314" y="318" type="curve" smooth="yes"/>
      <point x="340" y="318"/>
      <point x="381" y="326"/>
      <point x="408" y="326" type="curve" smooth="yes"/>
      <point x="438" y="326"/>
      <point x="451" y="316"/>
      <point x="451" y="298" type="curve" smooth="yes"/>
      <point x="451" y="288"/>
      <point x="447" y="273"/>
      <point x="437" y="259" type="curve"/>
      <point x="472" y="254" type="line"/>
      <point x="468" y="284"/>
      <point x="449" y="300"/>
      <point x="425" y="300" type="curve" smooth="yes"/>
      <point x="398" y="300"/>
      <point x="375" y="281"/>
      <point x="375" y="253" type="curve" smooth="yes"/>
      <point x="375" y="223"/>
      <point x="400" y="201"/>
      <point x="431" y="201" type="curve" smooth="yes"/>
    </contour>
    <contour>
      <point x="684" y="456" type="line"/>
      <point x="684" y="521" type="line"/>
      <point x="-30" y="521" type="line"/>
      <point x="-30" y="456" type="line"/>
    </contour>
  </outline>
</glyph>
<glyph name="bKTBa" format="1">
  <advance width="720"/>
  <outline>
    <contour>
      <point x="750" y="456" type="line"/>
      <point x="750" y="521" type="line"/>
      <point x="-30" y="521" type="line"/>
      <point x="-30" y="456" type="line"/>
    </contour>
    <contour>
      <point x="442" y="178"/>
      <point x="504" y="230"/>
      <point x="504" y="299" type="curve"/>
      <point x="504" y="368"/>
      <point x="440" y="440"/>
      <point x="345" y="440" type="curve" smooth="yes"/>
      <point x="252" y="440"/>
      <point x="158" y="371"/>
      <point x="158" y="293" type="curve" smooth="yes"/>
      <point x="158" y="246"/>
      <point x="192" y="209"/>
      <point x="234" y="209" type="curve" smooth="yes"/>
      <point x="271" y="209"/>
      <point x="301" y="237"/>
      <point x="301" y="274" type="curve" smooth="yes"/>
      <point x="301" y="310"/>
      <point x="274" y="341"/>
      <point x="237" y="341" type="curve" smooth="yes"/>
      <point x="227" y="341"/>
      <point x="217" y="339"/>
      <point x="207" y="335" type="curve"/>
      <point x="258" y="270" type="line"/>
      <point x="281" y="328"/>
      <point x="341" y="360"/>
      <point x="387" y="360" type="curve" smooth="yes"/>
      <point x="416" y="360"/>
      <point x="427" y="347"/>
      <point x="427" y="331" type="curve" smooth="yes"/>
      <point x="427" y="316"/>
      <point x="417" y="300"/>
      <point x="400" y="290" type="curve"/>
      <point x="470" y="256" type="line"/>
      <point x="450" y="284"/>
      <point x="421" y="307"/>
      <point x="387" y="307" type="curve" smooth="yes"/>
      <point x="349" y="307"/>
      <point x="319" y="279"/>
      <point x="319" y="244" type="curve" smooth="yes"/>
      <point x="319" y="208"/>
      <point x="349" y="178"/>
      <point x="390" y="178" type="curve" smooth="yes"/>
    </contour>
    <contour>
      <point x="465" y="23"/>
      <point x="528" y="80"/>
      <point x="528" y="149" type="curve" smooth="yes"/>
      <point x="528" y="201"/>
      <point x="493" y="244"/>
      <point x="469" y="260" type="curve"/>
      <point x="422" y="220" type="line"/>
      <point x="441" y="211"/>
      <point x="446" y="200"/>
      <point x="446" y="188" type="curve" smooth="yes"/>
      <point x="446" y="155"/>
      <point x="413" y="124"/>
      <point x="345" y="124" type="curve" smooth="yes"/>
      <point x="241" y="124"/>
      <point x="137" y="197"/>
      <point x="52" y="424" type="curve"/>
      <point x="-5" y="405" type="line"/>
      <point x="87" y="148"/>
      <point x="221" y="23"/>
      <point x="367" y="23" type="curve" smooth="yes"/>
    </contour>
    <contour>
      <point x="470" y="-144" type="line"/>
      <point x="470" y="76" type="line"/>
      <point x="415" y="123" type="line"/>
      <point x="329" y="94"/>
      <point x="275" y="70"/>
      <point x="187" y="24" type="curve"/>
      <point x="256" y="-77" type="line"/>
      <point x="331" y="-82"/>
      <point x="388" y="-101"/>
      <point x="410" y="-144" type="curve"/>
    </contour>
    <contour>
      <point x="435" y="-112" type="line"/>
      <point x="404" y="-55"/>
      <point x="343" y="-12"/>
      <point x="244" y="10" type="curve"/>
      <point x="279" y="-32" type="line"/>
      <point x="342" y="3"/>
      <point x="400" y="21"/>
      <point x="452" y="39" type="curve"/>
      <point x="400" y="91" type="line"/>
      <point x="400" y="-83" type="line"/>
    </contour>
    <contour>
      <point x="651" y="178"/>
      <point x="692" y="223"/>
      <point x="692" y="284" type="curve" smooth="yes"/>
      <point x="692" y="351"/>
      <point x="644" y="406"/>
      <point x="586" y="406" type="curve" smooth="yes"/>
      <point x="546" y="406"/>
      <point x="508" y="379"/>
      <point x="475" y="330" type="curve"/>
      <point x="493" y="251" type="line"/>
      <point x="516" y="296"/>
      <point x="555" y="323"/>
      <point x="596" y="323" type="curve" smooth="yes"/>
      <point x="626" y="323"/>
      <point x="642" y="308"/>
      <point x="642" y="289" type="curve" smooth="yes"/>
      <point x="642" y="267"/>
      <point x="620" y="255"/>
      <point x="599" y="255" type="curve" smooth="yes"/>
      <point x="590" y="255"/>
      <point x="581" y="257"/>
      <point x="573" y="260" type="curve"/>
      <point x="632" y="210" type="line"/>
      <point x="643" y="222"/>
      <point x="647" y="233"/>
      <point x="647" y="244" type="curve" smooth="yes"/>
      <point x="647" y="272"/>
      <point x="624" y="293"/>
      <point x="595" y="293" type="curve" smooth="yes"/>
      <point x="563" y="293"/>
      <point x="539" y="269"/>
      <point x="539" y="238" type="curve" smooth="yes"/>
      <point x="539" y="205"/>
      <point x="566" y="178"/>
      <point x="603" y="178" type="curve" smooth="yes"/>
    </contour>
  </outline>
</glyph>
<glyph name="bKTa" format="1">
  <advance width="720"/>
  <outline>
    <contour>
      <point x="750" y="456" type="line"/>
      <point x="750" y="521" type="line"/>
      <point x="-30" y="521" type="line"/>
      <point x="-30" y="456" type="line"/>
    </contour>
    <contour>
      <point x="442" y="178"/>
      <point x="504" y="232"/>
      <point x="504" y="299" type="curve"/>
      <point x="504" y="368"/>
      <point x="440" y="440"/>
      <point x="345" y="440" type="curve" smooth="yes"/>
      <point x="252" y="440"/>
      <point x="158" y="371"/>
      <point x="158" y="293" type="curve" smooth="yes"/>
      <point x="158" y="246"/>
      <point x="192" y="209"/>
      <point x="234" y="209" type="curve" smooth="yes"/>
      <point x="271" y="209"/>
      <point x="301" y="237"/>
      <point x="301" y="274" type="curve" smooth="yes"/>
      <point x="301" y="310"/>
      <point x="274" y="341"/>
      <point x="237" y="341" type="curve" smooth="yes"/>
      <point x="227" y="341"/>
      <point x="217" y="339"/>
      <point x="207" y="335" type="curve"/>
      <point x="258" y="270" type="line"/>
      <point x="281" y="328"/>
      <point x="341" y="360"/>
      <point x="387" y="360" type="curve" smooth="yes"/>
      <point x="416" y="360"/>
      <point x="427" y="347"/>
      <point x="427" y="331" type="curve" smooth="yes"/>
      <point x="427" y="316"/>
      <point x="417" y="300"/>
      <point x="400" y="290" type="curve"/>
      <point x="470" y="256" type="line"/>
      <point x="450" y="284"/>
      <point x="421" y="307"/>
      <point x="387" y="307" type="curve" smooth="yes"/>
      <point x="349" y="307"/>
      <point x="319" y="279"/>
      <point x="319" y="244" type="curve" smooth="yes"/>
      <point x="319" y="208"/>
      <point x="349" y="178"/>
      <point x="390" y="178" type="curve" smooth="yes"/>
    </contour>
    <contour>
      <point x="441" y="211"/>
      <point x="446" y="200"/>
      <point x="446" y="187" type="curve" smooth="yes"/>
      <point x="446" y="153"/>
      <point x="413" y="121"/>
      <point x="344" y="121" type="curve" smooth="yes"/>
      <point x="242" y="121"/>
      <point x="138" y="191"/>
      <point x="52" y="424" type="curve"/>
      <point x="-5" y="405" type="line"/>
      <point x="87" y="138"/>
      <point x="222" y="8"/>
      <point x="365" y="8" type="curve" smooth="yes"/>
      <point x="465" y="8"/>
      <point x="528" y="72"/>
      <point x="528" y="147" type="curve" smooth="yes"/>
      <point x="528" y="202"/>
      <point x="494" y="243"/>
      <point x="469" y="260" type="curve"/>
      <point x="422" y="220" type="line"/>
    </contour>
    <contour>
      <point x="651" y="178"/>
      <point x="692" y="224"/>
      <point x="692" y="284" type="curve" smooth="yes"/>
      <point x="692" y="351"/>
      <point x="644" y="406"/>
      <point x="586" y="406" type="curve" smooth="yes"/>
      <point x="546" y="406"/>
      <point x="508" y="379"/>
      <point x="475" y="330" type="curve"/>
      <point x="493" y="251" type="line"/>
      <point x="516" y="296"/>
      <point x="555" y="323"/>
      <point x="596" y="323" type="curve" smooth="yes"/>
      <point x="626" y="323"/>
      <point x="642" y="308"/>
      <point x="642" y="289" type="curve" smooth="yes"/>
      <point x="642" y="267"/>
      <point x="620" y="255"/>
      <point x="599" y="255" type="curve" smooth="yes"/>
      <point x="590" y="255"/>
      <point x="581" y="257"/>
      <point x="573" y="260" type="curve"/>
      <point x="632" y="210" type="line"/>
      <point x="643" y="222"/>
      <point x="647" y="233"/>
      <point x="647" y="244" type="curve" smooth="yes"/>
      <point x="647" y="272"/>
      <point x="624" y="293"/>
      <point x="595" y="293" type="curve" smooth="yes"/>
      <point x="563" y="293"/>
      <point x="539" y="269"/>
      <point x="539" y="238" type="curve" smooth="yes"/>
      <point x="539" y="205"/>
      <point x="566" y="178"/>
      <point x="603" y="178" type="curve" smooth="yes"/>
    </contour>
  </outline>
</glyph>
<glyph name="bKTtRa" format="1">
  <advance width="497"/>
  <outline>
    <contour>
      <point x="364" y="-6"/>
      <point x="441" y="45"/>
      <point x="441" y="108" type="curve" smooth="yes"/>
      <point x="441" y="147"/>
      <point x="412" y="180"/>
      <point x="370" y="180" type="curve" smooth="yes"/>
      <point x="330" y="180"/>
      <point x="301" y="151"/>
      <point x="301" y="117" type="curve" smooth="yes"/>
      <point x="301" y="82"/>
      <point x="331" y="53"/>
      <point x="368" y="53" type="curve" smooth="yes"/>
      <point x="385" y="53"/>
      <point x="400" y="59"/>
      <point x="414" y="74" type="curve"/>
      <point x="349" y="127" type="line"/>
      <point x="326" y="100"/>
      <point x="281" y="70"/>
      <point x="234" y="70" type="curve" smooth="yes"/>
      <point x="206" y="70"/>
      <point x="185" y="81"/>
      <point x="185" y="96" type="curve" smooth="yes"/>
      <point x="185" y="117"/>
      <point x="240" y="125"/>
      <point x="271" y="155" type="curve" smooth="yes"/>
      <point x="310" y="192"/>
      <point x="320" y="271"/>
      <point x="319" y="360" type="curve"/>
      <point x="235" y="389" type="line"/>
      <point x="235" y="241"/>
      <point x="223" y="208"/>
      <point x="86" y="159" type="curve"/>
      <point x="97" y="62"/>
      <point x="174" y="-6"/>
      <point x="276" y="-6" type="curve" smooth="yes"/>
    </contour>
    <contour>
      <point x="413" y="-167" type="line"/>
      <point x="413" y="51" type="line"/>
      <point x="343" y="51" type="line"/>
      <point x="343" y="-113" type="line"/>
      <point x="373" y="-140" type="line"/>
      <point x="356" y="-76"/>
      <point x="310" y="-29"/>
      <point x="240" y="-29" type="curve" smooth="yes"/>
      <point x="222" y="-29"/>
      <point x="158" y="-32"/>
      <point x="141" y="-32" type="curve" smooth="yes"/>
      <point x="100" y="-32"/>
      <point x="75" y="-16"/>
      <point x="75" y="18" type="curve" smooth="yes"/>
      <point x="75" y="33"/>
      <point x="80" y="55"/>
      <point x="87" y="71" type="curve"/>
      <point x="41" y="89" type="line"/>
      <point x="30" y="69"/>
      <point x="22" y="39"/>
      <point x="22" y="12" type="curve" smooth="yes"/>
      <point x="22" y="-65"/>
      <point x="85" y="-128"/>
      <point x="169" y="-128" type="curve" smooth="yes"/>
      <point x="201" y="-128"/>
      <point x="262" y="-119"/>
      <point x="292" y="-119" type="curve" smooth="yes"/>
      <point x="331" y="-119"/>
      <point x="347" y="-134"/>
      <point x="353" y="-167" type="curve"/>
    </contour>
    <contour>
      <point x="264" y="189" type="line"/>
      <point x="218" y="264"/>
      <point x="143" y="311"/>
      <point x="77" y="324" type="curve"/>
      <point x="102" y="271" type="line"/>
      <point x="150" y="310"/>
      <point x="226" y="345"/>
      <point x="297" y="345" type="curve" smooth="yes"/>
      <point x="361" y="345"/>
      <point x="409" y="316"/>
      <point x="409" y="285" type="curve" smooth="yes"/>
      <point x="409" y="274"/>
      <point x="403" y="259"/>
      <point x="389" y="247" type="curve"/>
      <point x="429" y="219" type="line"/>
      <point x="445" y="231"/>
      <point x="450" y="242"/>
      <point x="450" y="256" type="curve" smooth="yes"/>
      <point x="450" y="284"/>
      <point x="429" y="308"/>
      <point x="396" y="308" type="curve" smooth="yes"/>
      <point x="363" y="308"/>
      <point x="340" y="283"/>
      <point x="340" y="252" type="curve" smooth="yes"/>
      <point x="340" y="218"/>
      <point x="369" y="195"/>
      <point x="401" y="195" type="curve" smooth="yes"/>
      <point x="434" y="195"/>
      <point x="465" y="220"/>
      <point x="465" y="269" type="curve" smooth="yes"/>
      <point x="465" y="353"/>
      <point x="373" y="436"/>
      <point x="259" y="436" type="curve" smooth="yes"/>
      <point x="183" y="436"/>
      <point x="92" y="399"/>
      <point x="11" y="338" type="curve"/>
      <point x="86" y="232" type="line"/>
      <point x="153" y="225"/>
      <point x="201" y="208"/>
      <point x="238" y="169" type="curve"/>
    </contour>
    <contour>
      <point x="320" y="467" type="line"/>
      <point x="235" y="467" type="line"/>
      <point x="235" y="420" type="line"/>
      <point x="320" y="380" type="line"/>
    </contour>
    <contour>
      <point x="527" y="456" type="line"/>
      <point x="527" y="521" type="line"/>
      <point x="-30" y="521" type="line"/>
      <point x="-30" y="456" type="line"/>
    </contour>
    <contour>
      <point x="429" y="587"/>
      <point x="375" y="665"/>
      <point x="270" y="665" type="curve" smooth="yes"/>
      <point x="229" y="665"/>
      <point x="168" y="653"/>
      <point x="134" y="653" type="curve" smooth="yes"/>
      <point x="98" y="653"/>
      <point x="84" y="667"/>
      <point x="84" y="689" type="curve" smooth="yes"/>
      <point x="84" y="704"/>
      <point x="91" y="719"/>
      <point x="105" y="738" type="curve"/>
      <point x="61" y="764" type="line"/>
      <point x="42" y="740"/>
      <point x="26" y="712"/>
      <point x="26" y="678" type="curve" smooth="yes"/>
      <point x="26" y="610"/>
      <point x="88" y="564"/>
      <point x="168" y="564" type="curve" smooth="yes"/>
      <point x="209" y="564"/>
      <point x="292" y="576"/>
      <point x="325" y="576" type="curve" smooth="yes"/>
      <point x="356" y="576"/>
      <point x="367" y="565"/>
      <point x="367" y="545" type="curve" smooth="yes"/>
      <point x="367" y="535"/>
      <point x="364" y="525"/>
      <point x="357" y="516" type="curve"/>
      <point x="436" y="515" type="line"/>
    </contour>
  </outline>
</glyph>
<glyph name="bKTta" format="1">
  <advance width="482"/>
  <outline>
    <contour>
      <point x="225" y="241"/>
      <point x="213" y="208"/>
      <point x="71" y="159" type="curve"/>
      <point x="81" y="62"/>
      <point x="156" y="-13"/>
      <point x="260" y="-13" type="curve" smooth="yes"/>
      <point x="349" y="-13"/>
      <point x="426" y="41"/>
      <point x="426" y="107" type="curve" smooth="yes"/>
      <point x="426" y="147"/>
      <point x="397" y="180"/>
      <point x="355" y="180" type="curve" smooth="yes"/>
      <point x="315" y="180"/>
      <point x="286" y="151"/>
      <point x="286" y="117" type="curve" smooth="yes"/>
      <point x="286" y="82"/>
      <point x="316" y="53"/>
      <point x="353" y="53" type="curve" smooth="yes"/>
      <point x="370" y="53"/>
      <point x="385" y="59"/>
      <point x="399" y="74" type="curve"/>
      <point x="334" y="127" type="line"/>
      <point x="311" y="98"/>
      <point x="266" y="66"/>
      <point x="218" y="66" type="curve" smooth="yes"/>
      <point x="191" y="66"/>
      <point x="170" y="76"/>
      <point x="170" y="90" type="curve" smooth="yes"/>
      <point x="170" y="111"/>
      <point x="222" y="120"/>
      <point x="256" y="155" type="curve" smooth="yes"/>
      <point x="293" y="193"/>
      <point x="305" y="260"/>
      <point x="305" y="360" type="curve"/>
      <point x="305" y="467" type="line"/>
      <point x="225" y="467" type="line"/>
      <point x="225" y="389" type="line"/>
    </contour>
    <contour>
      <point x="249" y="189" type="line"/>
      <point x="203" y="264"/>
      <point x="128" y="311"/>
      <point x="62" y="324" type="curve"/>
      <point x="87" y="271" type="line"/>
      <point x="135" y="310"/>
      <point x="211" y="345"/>
      <point x="282" y="345" type="curve" smooth="yes"/>
      <point x="346" y="345"/>
      <point x="394" y="316"/>
      <point x="394" y="285" type="curve" smooth="yes"/>
      <point x="394" y="274"/>
      <point x="388" y="259"/>
      <point x="374" y="247" type="curve"/>
      <point x="414" y="219" type="line"/>
      <point x="430" y="231"/>
      <point x="435" y="242"/>
      <point x="435" y="256" type="curve" smooth="yes"/>
      <point x="435" y="284"/>
      <point x="414" y="308"/>
      <point x="381" y="308" type="curve" smooth="yes"/>
      <point x="348" y="308"/>
      <point x="325" y="283"/>
      <point x="325" y="252" type="curve" smooth="yes"/>
      <point x="325" y="218"/>
      <point x="354" y="195"/>
      <point x="386" y="195" type="curve" smooth="yes"/>
      <point x="419" y="195"/>
      <point x="450" y="220"/>
      <point x="450" y="269" type="curve" smooth="yes"/>
      <point x="450" y="353"/>
      <point x="358" y="436"/>
      <point x="244" y="436" type="curve" smooth="yes"/>
      <point x="168" y="436"/>
      <point x="77" y="399"/>
      <point x="-4" y="338" type="curve"/>
      <point x="71" y="232" type="line"/>
      <point x="138" y="225"/>
      <point x="186" y="208"/>
      <point x="223" y="169" type="curve"/>
    </contour>
    <contour>
      <point x="512" y="456" type="line"/>
      <point x="512" y="521" type="line"/>
      <point x="-30" y="521" type="line"/>
      <point x="-30" y="456" type="line"/>
    </contour>
    <contour>
      <point x="414" y="587"/>
      <point x="360" y="665"/>
      <point x="255" y="665" type="curve" smooth="yes"/>
      <point x="214" y="665"/>
      <point x="153" y="653"/>
      <point x="119" y="653" type="curve" smooth="yes"/>
      <point x="83" y="653"/>
      <point x="69" y="667"/>
      <point x="69" y="689" type="curve" smooth="yes"/>
      <point x="69" y="704"/>
      <point x="76" y="719"/>
      <point x="90" y="738" type="curve"/>
      <point x="46" y="764" type="line"/>
      <point x="27" y="740"/>
      <point x="11" y="712"/>
      <point x="11" y="678" type="curve" smooth="yes"/>
      <point x="11" y="610"/>
      <point x="73" y="564"/>
      <point x="153" y="564" type="curve" smooth="yes"/>
      <point x="194" y="564"/>
      <point x="277" y="576"/>
      <point x="310" y="576" type="curve" smooth="yes"/>
      <point x="341" y="576"/>
      <point x="352" y="565"/>
      <point x="352" y="545" type="curve" smooth="yes"/>
      <point x="352" y="535"/>
      <point x="349" y="525"/>
      <point x="342" y="516" type="curve"/>
      <point x="421" y="515" type="line"/>
    </contour>
  </outline>
</glyph>
<glyph name="bKhandTa" format="1">
  <advance width="401"/>
  <outline>
    <contour>
      <point x="145" y="448" type="line"/>
      <point x="168" y="388"/>
      <point x="198" y="366"/>
      <point x="233" y="366" type="curve" smooth="yes"/>
      <point x="262" y="366"/>
      <point x="276" y="382"/>
      <point x="276" y="398" type="curve" smooth="yes"/>
      <point x="276" y="425"/>
      <point x="240" y="442"/>
      <point x="198" y="442" type="curve" smooth="yes"/>
      <point x="134" y="442"/>
      <point x="81" y="403"/>
      <point x="81" y="344" type="curve" smooth="yes"/>
      <point x="81" y="280"/>
      <point x="145" y="250"/>
      <point x="195" y="234" type="curve" smooth="yes"/>
      <point x="313" y="196"/>
      <point x="421" y="138"/>
      <point x="421" y="0" type="curve"/>
      <point x="362" y="0" type="line"/>
      <point x="362" y="74"/>
      <point x="295" y="93"/>
      <point x="173" y="134" type="curve" smooth="yes"/>
      <point x="83" y="163"/>
      <point x="20" y="236"/>
      <point x="20" y="340" type="curve" smooth="yes"/>
      <point x="20" y="475"/>
      <point x="113" y="530"/>
      <point x="196" y="530" type="curve" smooth="yes"/>
      <point x="283" y="530"/>
      <point x="335" y="472"/>
      <point x="335" y="398" type="curve" smooth="yes"/>
      <point x="335" y="330"/>
      <point x="292" y="273"/>
      <point x="230" y="273" type="curve" smooth="yes"/>
      <point x="162" y="273"/>
      <point x="119" y="343"/>
      <point x="99" y="427" type="curve"/>
    </contour>
  </outline>
</glyph>
<glyph name="bLGha" format="1">
  <advance width="757"/>
  <outline>
    <contour>
      <point x="707" y="0" type="line"/>
      <point x="707" y="467" type="line"/>
      <point x="627" y="467" type="line"/>
      <point x="627" y="59" type="line"/>
      <point x="687" y="15" type="line"/>
      <point x="638" y="138"/>
      <point x="536" y="217"/>
      <point x="414" y="245" type="curve"/>
      <point x="447" y="174" type="line"/>
      <point x="607" y="310" type="line"/>
      <point x="531" y="396" type="line"/>
      <point x="343" y="236" type="line"/>
      <point x="424" y="139" type="line"/>
      <point x="547" y="130"/>
      <point x="626" y="67"/>
      <point x="647" y="0" type="curve"/>
    </contour>
    <contour>
      <point x="186" y="101"/>
      <point x="211" y="132"/>
      <point x="211" y="165" type="curve" smooth="yes"/>
      <point x="211" y="197"/>
      <point x="187" y="225"/>
      <point x="153" y="225" type="curve" smooth="yes"/>
      <point x="124" y="225"/>
      <point x="101" y="204"/>
      <point x="101" y="173" type="curve" smooth="yes"/>
      <point x="101" y="139"/>
      <point x="130" y="112"/>
      <point x="163" y="112" type="curve"/>
      <point x="151" y="163" type="line"/>
      <point x="142" y="159"/>
      <point x="133" y="156"/>
      <point x="124" y="156" type="curve" smooth="yes"/>
      <point x="102" y="156"/>
      <point x="85" y="172"/>
      <point x="85" y="199" type="curve" smooth="yes"/>
      <point x="85" y="237"/>
      <point x="118" y="264"/>
      <point x="159" y="264" type="curve" smooth="yes"/>
      <point x="200" y="264"/>
      <point x="236" y="238"/>
      <point x="248" y="188" type="curve"/>
      <point x="284" y="188" type="line"/>
      <point x="285" y="245"/>
      <point x="305" y="263"/>
      <point x="329" y="263" type="curve" smooth="yes"/>
      <point x="349" y="263"/>
      <point x="361" y="254"/>
      <point x="389" y="216" type="curve"/>
      <point x="408" y="249" type="line"/>
      <point x="368" y="304"/>
      <point x="332" y="340"/>
      <point x="293" y="340" type="curve" smooth="yes"/>
      <point x="253" y="340"/>
      <point x="223" y="304"/>
      <point x="220" y="252" type="curve"/>
      <point x="268" y="222" type="line"/>
      <point x="239" y="305"/>
      <point x="194" y="352"/>
      <point x="130" y="352" type="curve" smooth="yes"/>
      <point x="59" y="352"/>
      <point x="8" y="296"/>
      <point x="8" y="231" type="curve" smooth="yes"/>
      <point x="8" y="158"/>
      <point x="71" y="101"/>
      <point x="137" y="101" type="curve" smooth="yes"/>
    </contour>
    <contour>
      <point x="498" y="297"/>
      <point x="528" y="304"/>
      <point x="554" y="319" type="curve"/>
      <point x="502" y="371" type="line"/>
      <point x="489" y="360"/>
      <point x="474" y="353"/>
      <point x="459" y="353" type="curve" smooth="yes"/>
      <point x="438" y="353"/>
      <point x="421" y="366"/>
      <point x="421" y="388" type="curve" smooth="yes"/>
      <point x="421" y="421"/>
      <point x="458" y="456"/>
      <point x="516" y="456" type="curve"/>
      <point x="369" y="498" type="line"/>
      <point x="341" y="482"/>
      <point x="322" y="451"/>
      <point x="322" y="416" type="curve" smooth="yes"/>
      <point x="322" y="349"/>
      <point x="390" y="297"/>
      <point x="469" y="297" type="curve" smooth="yes"/>
    </contour>
    <contour>
      <point x="787" y="456" type="line"/>
      <point x="787" y="521" type="line"/>
      <point x="-30" y="521" type="line"/>
      <point x="-30" y="456" type="line"/>
    </contour>
  </outline>
</glyph>
<glyph name="bLPa" format="1">
  <advance width="503"/>
  <outline>
    <contour>
      <point x="393" y="91" type="line"/>
      <point x="332" y="149" type="line"/>
      <point x="218" y="49" type="line"/>
      <point x="251" y="-5" type="line"/>
      <point x="256" y="6"/>
      <point x="258" y="18"/>
      <point x="258" y="32" type="curve" smooth="yes"/>
      <point x="258" y="90"/>
      <point x="222" y="137"/>
      <point x="161" y="137" type="curve" smooth="yes"/>
      <point x="146" y="137"/>
      <point x="129" y="134"/>
      <point x="112" y="126" type="curve"/>
      <point x="150" y="93" type="line"/>
      <point x="178" y="138"/>
      <point x="215" y="158"/>
      <point x="250" y="158" type="curve" smooth="yes"/>
      <point x="316" y="158"/>
      <point x="384" y="78"/>
      <point x="393" y="-46" type="curve"/>
      <point x="453" y="-46" type="line"/>
      <point x="453" y="78" type="line"/>
      <point x="383" y="77" type="line"/>
      <point x="423" y="34" type="line"/>
      <point x="373" y="188"/>
      <point x="295" y="234"/>
      <point x="223" y="234" type="curve" smooth="yes"/>
      <point x="135" y="234"/>
      <point x="60" y="165"/>
      <point x="60" y="107" type="curve" smooth="yes"/>
      <point x="60" y="72"/>
      <point x="86" y="51"/>
      <point x="111" y="51" type="curve" smooth="yes"/>
      <point x="139" y="51"/>
      <point x="152" y="76"/>
      <point x="180" y="76" type="curve" smooth="yes"/>
      <point x="195" y="76"/>
      <point x="204" y="69"/>
      <point x="204" y="56" type="curve" smooth="yes"/>
      <point x="204" y="48"/>
      <point x="200" y="34"/>
      <point x="173" y="11" type="curve" smooth="yes"/>
      <point x="146" y="-12" type="line"/>
      <point x="228" y="-70" type="line"/>
    </contour>
    <contour>
      <point x="187" y="171"/>
      <point x="221" y="200"/>
      <point x="221" y="235" type="curve" smooth="yes"/>
      <point x="221" y="265"/>
      <point x="196" y="294"/>
      <point x="161" y="294" type="curve" smooth="yes"/>
      <point x="129" y="294"/>
      <point x="106" y="270"/>
      <point x="106" y="241" type="curve" smooth="yes"/>
      <point x="106" y="208"/>
      <point x="135" y="185"/>
      <point x="165" y="185" type="curve"/>
      <point x="153" y="236" type="line"/>
      <point x="144" y="232"/>
      <point x="135" y="229"/>
      <point x="126" y="229" type="curve" smooth="yes"/>
      <point x="104" y="229"/>
      <point x="86" y="247"/>
      <point x="86" y="272" type="curve" smooth="yes"/>
      <point x="86" y="307"/>
      <point x="119" y="334"/>
      <point x="161" y="334" type="curve" smooth="yes"/>
      <point x="199" y="334"/>
      <point x="233" y="312"/>
      <point x="246" y="260" type="curve"/>
      <point x="282" y="260" type="line"/>
      <point x="283" y="316"/>
      <point x="305" y="330"/>
      <point x="325" y="330" type="curve" smooth="yes"/>
      <point x="355" y="330"/>
      <point x="369" y="296"/>
      <point x="376" y="252" type="curve"/>
      <point x="398" y="304" type="line"/>
      <point x="375" y="373"/>
      <point x="343" y="418"/>
      <point x="298" y="418" type="curve" smooth="yes"/>
      <point x="255" y="418"/>
      <point x="221" y="377"/>
      <point x="221" y="311" type="curve"/>
      <point x="268" y="294" type="line"/>
      <point x="239" y="377"/>
      <point x="194" y="424"/>
      <point x="130" y="424" type="curve" smooth="yes"/>
      <point x="63" y="424"/>
      <point x="10" y="374"/>
      <point x="10" y="305" type="curve" smooth="yes"/>
      <point x="10" y="231"/>
      <point x="73" y="171"/>
      <point x="140" y="171" type="curve" smooth="yes"/>
    </contour>
    <contour>
      <point x="403" y="456" type="line"/>
      <point x="403" y="521" type="line"/>
      <point x="-30" y="521" type="line"/>
      <point x="-30" y="456" type="line"/>
    </contour>
    <contour>
      <point x="453" y="70" type="line"/>
      <point x="453" y="456" type="line"/>
      <point x="533" y="456" type="line"/>
      <point x="533" y="521" type="line"/>
      <point x="373" y="521" type="line"/>
      <point x="373" y="70" type="line"/>
    </contour>
  </outline>
</glyph>
<glyph name="bLTtRa" format="1">
  <advance width="754"/>
  <outline>
    <contour>
      <point x="597" y="39"/>
      <point x="719" y="176"/>
      <point x="719" y="282" type="curve" smooth="yes"/>
      <point x="719" y="344"/>
      <point x="677" y="399"/>
      <point x="617" y="399" type="curve" smooth="yes"/>
      <point x="567" y="399"/>
      <point x="530" y="360"/>
      <point x="530" y="315" type="curve" smooth="yes"/>
      <point x="530" y="270"/>
      <point x="567" y="234"/>
      <point x="616" y="234" type="curve" smooth="yes"/>
      <point x="635" y="234"/>
      <point x="650" y="239"/>
      <point x="662" y="250" type="curve"/>
      <point x="618" y="304" type="line"/>
      <point x="618" y="240"/>
      <point x="529" y="135"/>
      <point x="477" y="135" type="curve" smooth="yes"/>
      <point x="464" y="135"/>
      <point x="459" y="142"/>
      <point x="459" y="170" type="curve" smooth="yes"/>
      <point x="459" y="477" type="line"/>
      <point x="379" y="477" type="line"/>
      <point x="379" y="207" type="line" smooth="yes"/>
      <point x="379" y="109"/>
      <point x="447" y="39"/>
      <point x="510" y="39" type="curve" smooth="yes"/>
    </contour>
    <contour>
      <point x="649" y="-121" type="line"/>
      <point x="649" y="167" type="line"/>
      <point x="579" y="167" type="line"/>
      <point x="579" y="-67" type="line"/>
      <point x="609" y="-94" type="line"/>
      <point x="591" y="-26"/>
      <point x="542" y="17"/>
      <point x="477" y="17" type="curve" smooth="yes"/>
      <point x="455" y="17"/>
      <point x="383" y="12"/>
      <point x="365" y="12" type="curve" smooth="yes"/>
      <point x="328" y="12"/>
      <point x="306" y="34"/>
      <point x="306" y="70" type="curve" smooth="yes"/>
      <point x="306" y="90"/>
      <point x="313" y="116"/>
      <point x="319" y="133" type="curve"/>
      <point x="272" y="151" type="line"/>
      <point x="261" y="129"/>
      <point x="253" y="98"/>
      <point x="253" y="67" type="curve" smooth="yes"/>
      <point x="253" y="-17"/>
      <point x="314" y="-80"/>
      <point x="397" y="-80" type="curve" smooth="yes"/>
      <point x="425" y="-80"/>
      <point x="500" y="-73"/>
      <point x="527" y="-73" type="curve" smooth="yes"/>
      <point x="561" y="-73"/>
      <point x="583" y="-84"/>
      <point x="589" y="-121" type="curve"/>
    </contour>
    <contour>
      <point x="189" y="147"/>
      <point x="219" y="179"/>
      <point x="219" y="216" type="curve" smooth="yes"/>
      <point x="219" y="249"/>
      <point x="194" y="277"/>
      <point x="159" y="277" type="curve" smooth="yes"/>
      <point x="128" y="277"/>
      <point x="104" y="254"/>
      <point x="104" y="223" type="curve" smooth="yes"/>
      <point x="104" y="188"/>
      <point x="132" y="161"/>
      <point x="163" y="161" type="curve"/>
      <point x="151" y="212" type="line"/>
      <point x="142" y="208"/>
      <point x="133" y="205"/>
      <point x="124" y="205" type="curve" smooth="yes"/>
      <point x="103" y="205"/>
      <point x="86" y="224"/>
      <point x="86" y="251" type="curve" smooth="yes"/>
      <point x="86" y="289"/>
      <point x="119" y="319"/>
      <point x="162" y="319" type="curve" smooth="yes"/>
      <point x="203" y="319"/>
      <point x="236" y="291"/>
      <point x="248" y="238" type="curve"/>
      <point x="284" y="238" type="line"/>
      <point x="285" y="298"/>
      <point x="304" y="316"/>
      <point x="326" y="316" type="curve" smooth="yes"/>
      <point x="365" y="316"/>
      <point x="379" y="261"/>
      <point x="382" y="202" type="curve"/>
      <point x="421" y="217" type="line"/>
      <point x="399" y="325"/>
      <point x="361" y="406"/>
      <point x="299" y="406" type="curve" smooth="yes"/>
      <point x="255" y="406"/>
      <point x="221" y="365"/>
      <point x="221" y="299" type="curve"/>
      <point x="268" y="282" type="line"/>
      <point x="239" y="365"/>
      <point x="194" y="412"/>
      <point x="130" y="412" type="curve" smooth="yes"/>
      <point x="62" y="412"/>
      <point x="8" y="359"/>
      <point x="8" y="287" type="curve" smooth="yes"/>
      <point x="8" y="210"/>
      <point x="71" y="147"/>
      <point x="140" y="147" type="curve" smooth="yes"/>
    </contour>
    <contour>
      <point x="784" y="456" type="line"/>
      <point x="784" y="521" type="line"/>
      <point x="-30" y="521" type="line"/>
      <point x="-30" y="456" type="line"/>
    </contour>
    <contour>
      <point x="704" y="594"/>
      <point x="657" y="665"/>
      <point x="549" y="665" type="curve" smooth="yes"/>
      <point x="501" y="665"/>
      <point x="368" y="651"/>
      <point x="320" y="651" type="curve" smooth="yes"/>
      <point x="273" y="651"/>
      <point x="256" y="664"/>
      <point x="256" y="688" type="curve" smooth="yes"/>
      <point x="256" y="704"/>
      <point x="264" y="721"/>
      <point x="277" y="738" type="curve"/>
      <point x="233" y="764" type="line"/>
      <point x="213" y="739"/>
      <point x="198" y="711"/>
      <point x="198" y="678" type="curve" smooth="yes"/>
      <point x="198" y="611"/>
      <point x="260" y="565"/>
      <point x="357" y="565" type="curve" smooth="yes"/>
      <point x="404" y="565"/>
      <point x="560" y="576"/>
      <point x="598" y="576" type="curve" smooth="yes"/>
      <point x="628" y="576"/>
      <point x="644" y="569"/>
      <point x="644" y="545" type="curve" smooth="yes"/>
      <point x="644" y="535"/>
      <point x="641" y="525"/>
      <point x="634" y="516" type="curve"/>
      <point x="713" y="515" type="line"/>
    </contour>
  </outline>
</glyph>
<glyph name="bMPRa" format="1">
  <advance width="853"/>
  <outline>
    <contour>
      <point x="333" y="456" type="line"/>
      <point x="279" y="521" type="line"/>
      <point x="-30" y="521" type="line"/>
      <point x="-30" y="456" type="line"/>
    </contour>
    <contour>
      <point x="337" y="262"/>
      <point x="387" y="308"/>
      <point x="387" y="368" type="curve" smooth="yes"/>
      <point x="387" y="426"/>
      <point x="341" y="480"/>
      <point x="279" y="521" type="curve"/>
      <point x="269" y="460" type="line"/>
      <point x="297" y="445"/>
      <point x="310" y="427"/>
      <point x="310" y="404" type="curve" smooth="yes"/>
      <point x="310" y="375"/>
      <point x="289" y="351"/>
      <point x="253" y="351" type="curve" smooth="yes"/>
      <point x="187" y="351"/>
      <point x="156" y="432"/>
      <point x="85" y="432" type="curve" smooth="yes"/>
      <point x="38" y="432"/>
      <point x="2" y="396"/>
      <point x="2" y="354" type="curve" smooth="yes"/>
      <point x="2" y="311"/>
      <point x="38" y="275"/>
      <point x="80" y="275" type="curve" smooth="yes"/>
      <point x="119" y="275"/>
      <point x="151" y="305"/>
      <point x="151" y="344" type="curve" smooth="yes"/>
      <point x="151" y="371"/>
      <point x="135" y="393"/>
      <point x="106" y="402" type="curve"/>
      <point x="69" y="360" type="line"/>
      <point x="79" y="366"/>
      <point x="92" y="370"/>
      <point x="102" y="370" type="curve" smooth="yes"/>
      <point x="157" y="370"/>
      <point x="186" y="262"/>
      <point x="278" y="262" type="curve" smooth="yes"/>
    </contour>
    <contour>
      <point x="692" y="344" type="line"/>
      <point x="628" y="416" type="line"/>
      <point x="479" y="289" type="line"/>
      <point x="528" y="250" type="line"/>
      <point x="533" y="261"/>
      <point x="535" y="273"/>
      <point x="535" y="286" type="curve" smooth="yes"/>
      <point x="535" y="344"/>
      <point x="496" y="394"/>
      <point x="431" y="394" type="curve" smooth="yes"/>
      <point x="415" y="394"/>
      <point x="398" y="391"/>
      <point x="381" y="383" type="curve"/>
      <point x="396" y="342" type="line"/>
      <point x="434" y="408"/>
      <point x="480" y="444"/>
      <point x="531" y="444" type="curve" smooth="yes"/>
      <point x="619" y="444"/>
      <point x="678" y="338"/>
      <point x="728" y="225" type="curve"/>
      <point x="761" y="273" type="line"/>
      <point x="687" y="461"/>
      <point x="596" y="530"/>
      <point x="506" y="530" type="curve" smooth="yes"/>
      <point x="397" y="530"/>
      <point x="312" y="430"/>
      <point x="312" y="372" type="curve" smooth="yes"/>
      <point x="312" y="341"/>
      <point x="336" y="315"/>
      <point x="361" y="299" type="curve"/>
      <point x="379" y="315"/>
      <point x="401" y="334"/>
      <point x="432" y="334" type="curve" smooth="yes"/>
      <point x="458" y="334"/>
      <point x="470" y="321"/>
      <point x="470" y="305" type="curve" smooth="yes"/>
      <point x="470" y="291"/>
      <point x="461" y="271"/>
      <point x="432" y="247" type="curve" smooth="yes"/>
      <point x="400" y="221" type="line"/>
      <point x="489" y="147" type="line"/>
    </contour>
    <contour>
      <point x="126" y="427"/>
      <point x="98" y="464"/>
      <point x="48" y="487" type="curve"/>
      <point x="20" y="460" type="line"/>
      <point x="44" y="451"/>
      <point x="66" y="426"/>
      <point x="71" y="393" type="curve"/>
      <point x="141" y="385" type="line"/>
    </contour>
    <contour>
      <point x="803" y="-40" type="line"/>
      <point x="803" y="143" type="line"/>
      <point x="733" y="143" type="line"/>
      <point x="733" y="41" type="line"/>
      <point x="764" y="-7" type="line"/>
      <point x="739" y="72"/>
      <point x="685" y="116"/>
      <point x="607" y="116" type="curve" smooth="yes"/>
      <point x="564" y="116"/>
      <point x="427" y="103"/>
      <point x="375" y="103" type="curve" smooth="yes"/>
      <point x="310" y="103"/>
      <point x="278" y="124"/>
      <point x="278" y="167" type="curve" smooth="yes"/>
      <point x="278" y="185"/>
      <point x="283" y="205"/>
      <point x="289" y="220" type="curve"/>
      <point x="244" y="239" type="line"/>
      <point x="231" y="215"/>
      <point x="225" y="185"/>
      <point x="225" y="160" type="curve" smooth="yes"/>
      <point x="225" y="73"/>
      <point x="296" y="8"/>
      <point x="411" y="8" type="curve" smooth="yes"/>
      <point x="470" y="8"/>
      <point x="596" y="25"/>
      <point x="652" y="25" type="curve" smooth="yes"/>
      <point x="721" y="25"/>
      <point x="741" y="0"/>
      <point x="743" y="-40" type="curve"/>
    </contour>
    <contour>
      <point x="803" y="30" type="line"/>
      <point x="803" y="456" type="line"/>
      <point x="883" y="456" type="line"/>
      <point x="883" y="521" type="line"/>
      <point x="723" y="521" type="line"/>
      <point x="723" y="30" type="line"/>
    </contour>
  </outline>
</glyph>
<glyph name="bMPa" format="1">
  <advance width="853"/>
  <outline>
    <contour>
      <point x="692" y="344" type="line"/>
      <point x="628" y="416" type="line"/>
      <point x="479" y="289" type="line"/>
      <point x="528" y="250" type="line"/>
      <point x="533" y="261"/>
      <point x="535" y="273"/>
      <point x="535" y="286" type="curve" smooth="yes"/>
      <point x="535" y="344"/>
      <point x="496" y="394"/>
      <point x="431" y="394" type="curve" smooth="yes"/>
      <point x="415" y="394"/>
      <point x="398" y="391"/>
      <point x="381" y="383" type="curve"/>
      <point x="396" y="342" type="line"/>
      <point x="434" y="408"/>
      <point x="480" y="444"/>
      <point x="531" y="444" type="curve" smooth="yes"/>
      <point x="619" y="444"/>
      <point x="678" y="338"/>
      <point x="728" y="225" type="curve"/>
      <point x="761" y="273" type="line"/>
      <point x="687" y="461"/>
      <point x="596" y="530"/>
      <point x="506" y="530" type="curve" smooth="yes"/>
      <point x="397" y="530"/>
      <point x="312" y="430"/>
      <point x="312" y="372" type="curve" smooth="yes"/>
      <point x="312" y="341"/>
      <point x="336" y="315"/>
      <point x="361" y="299" type="curve"/>
      <point x="379" y="315"/>
      <point x="401" y="334"/>
      <point x="432" y="334" type="curve" smooth="yes"/>
      <point x="458" y="334"/>
      <point x="470" y="321"/>
      <point x="470" y="305" type="curve" smooth="yes"/>
      <point x="470" y="291"/>
      <point x="461" y="271"/>
      <point x="432" y="247" type="curve" smooth="yes"/>
      <point x="400" y="221" type="line"/>
      <point x="489" y="147" type="line"/>
    </contour>
    <contour>
      <point x="126" y="427"/>
      <point x="98" y="464"/>
      <point x="48" y="487" type="curve"/>
      <point x="20" y="460" type="line"/>
      <point x="44" y="451"/>
      <point x="66" y="426"/>
      <point x="71" y="393" type="curve"/>
      <point x="141" y="385" type="line"/>
    </contour>
    <contour>
      <point x="337" y="262"/>
      <point x="387" y="308"/>
      <point x="387" y="368" type="curve" smooth="yes"/>
      <point x="387" y="426"/>
      <point x="341" y="480"/>
      <point x="279" y="521" type="curve"/>
      <point x="269" y="460" type="line"/>
      <point x="297" y="445"/>
      <point x="310" y="427"/>
      <point x="310" y="404" type="curve" smooth="yes"/>
      <point x="310" y="375"/>
      <point x="289" y="351"/>
      <point x="253" y="351" type="curve" smooth="yes"/>
      <point x="187" y="351"/>
      <point x="156" y="432"/>
      <point x="85" y="432" type="curve" smooth="yes"/>
      <point x="38" y="432"/>
      <point x="2" y="396"/>
      <point x="2" y="354" type="curve" smooth="yes"/>
      <point x="2" y="311"/>
      <point x="38" y="275"/>
      <point x="80" y="275" type="curve" smooth="yes"/>
      <point x="119" y="275"/>
      <point x="151" y="305"/>
      <point x="151" y="344" type="curve" smooth="yes"/>
      <point x="151" y="371"/>
      <point x="135" y="393"/>
      <point x="106" y="402" type="curve"/>
      <point x="69" y="360" type="line"/>
      <point x="79" y="366"/>
      <point x="92" y="370"/>
      <point x="102" y="370" type="curve" smooth="yes"/>
      <point x="157" y="370"/>
      <point x="186" y="262"/>
      <point x="278" y="262" type="curve" smooth="yes"/>
    </contour>
    <contour>
      <point x="333" y="456" type="line"/>
      <point x="279" y="521" type="line"/>
      <point x="-30" y="521" type="line"/>
      <point x="-30" y="456" type="line"/>
    </contour>
    <contour>
      <point x="803" y="0" type="line"/>
      <point x="803" y="456" type="line"/>
      <point x="883" y="456" type="line"/>
      <point x="883" y="521" type="line"/>
      <point x="723" y="521" type="line"/>
      <point x="723" y="0" type="line"/>
    </contour>
  </outline>
</glyph>
<glyph name="bMa" format="1">
  <advance width="436"/>
  <outline>
    <contour>
      <point x="386" y="0" type="line"/>
      <point x="386" y="467" type="line"/>
      <point x="306" y="467" type="line"/>
      <point x="306" y="82" type="line"/>
      <point x="347" y="46" type="line"/>
      <point x="323" y="130"/>
      <point x="272" y="207"/>
      <point x="203" y="251" type="curve"/>
      <point x="234" y="175" type="line"/>
      <point x="243" y="194"/>
      <point x="249" y="217"/>
      <point x="249" y="244" type="curve" smooth="yes"/>
      <point x="249" y="297"/>
      <point x="226" y="327"/>
      <point x="178" y="371" type="curve" smooth="yes"/>
      <point x="140" y="405"/>
      <point x="117" y="427"/>
      <point x="117" y="475" type="curve"/>
      <point x="-10" y="479" type="line"/>
      <point x="-10" y="420"/>
      <point x="18" y="393"/>
      <point x="83" y="363" type="curve" smooth="yes"/>
      <point x="146" y="334"/>
      <point x="169" y="322"/>
      <point x="169" y="292" type="curve" smooth="yes"/>
      <point x="169" y="274"/>
      <point x="160" y="260"/>
      <point x="150" y="250" type="curve"/>
      <point x="230" y="233" type="line"/>
      <point x="203" y="263"/>
      <point x="170" y="283"/>
      <point x="130" y="283" type="curve" smooth="yes"/>
      <point x="77" y="283"/>
      <point x="36" y="247"/>
      <point x="36" y="194" type="curve" smooth="yes"/>
      <point x="36" y="140"/>
      <point x="78" y="102"/>
      <point x="132" y="102" type="curve" smooth="yes"/>
      <point x="185" y="102"/>
      <point x="222" y="140"/>
      <point x="234" y="173" type="curve"/>
      <point x="185" y="150" type="line"/>
      <point x="262" y="132"/>
      <point x="310" y="73"/>
      <point x="326" y="0" type="curve"/>
    </contour>
    <contour>
      <point x="466" y="456" type="line"/>
      <point x="466" y="521" type="line"/>
      <point x="-30" y="521" type="line"/>
      <point x="-30" y="456" type="line"/>
    </contour>
  </outline>
</glyph>
<glyph name="bNBa" format="1">
  <advance width="433"/>
  <outline>
    <contour>
      <point x="383" y="-40" type="line"/>
      <point x="383" y="468" type="line"/>
      <point x="303" y="467" type="line"/>
      <point x="303" y="20" type="line"/>
      <point x="351" y="-17" type="line"/>
      <point x="318" y="72"/>
      <point x="218" y="147"/>
      <point x="103" y="164" type="curve"/>
      <point x="148" y="104" type="line"/>
      <point x="238" y="165"/>
      <point x="297" y="193"/>
      <point x="371" y="211" type="curve"/>
      <point x="343" y="306" type="line"/>
      <point x="279" y="290"/>
      <point x="174" y="242"/>
      <point x="63" y="165" type="curve"/>
      <point x="128" y="73" type="line"/>
      <point x="228" y="60"/>
      <point x="302" y="24"/>
      <point x="323" y="-40" type="curve"/>
    </contour>
    <contour>
      <point x="140" y="235"/>
      <point x="171" y="267"/>
      <point x="171" y="306" type="curve" smooth="yes"/>
      <point x="171" y="343"/>
      <point x="144" y="371"/>
      <point x="115" y="375" type="curve"/>
      <point x="108" y="314" type="line"/>
      <point x="125" y="332"/>
      <point x="143" y="341"/>
      <point x="170" y="341" type="curve" smooth="yes"/>
      <point x="225" y="341"/>
      <point x="264" y="306"/>
      <point x="291" y="241" type="curve"/>
      <point x="334" y="257" type="line"/>
      <point x="292" y="361"/>
      <point x="219" y="432"/>
      <point x="128" y="432" type="curve" smooth="yes"/>
      <point x="54" y="432"/>
      <point x="8" y="384"/>
      <point x="8" y="328" type="curve" smooth="yes"/>
      <point x="8" y="274"/>
      <point x="51" y="235"/>
      <point x="98" y="235" type="curve" smooth="yes"/>
    </contour>
    <contour>
      <point x="463" y="456" type="line"/>
      <point x="463" y="521" type="line"/>
      <point x="-30" y="521" type="line"/>
      <point x="-30" y="456" type="line"/>
    </contour>
  </outline>
</glyph>
<glyph name="bNDBa" format="1">
  <advance width="662"/>
  <outline>
    <contour>
      <point x="582" y="-67" type="line"/>
      <point x="575" y="-6"/>
      <point x="569" y="51"/>
      <point x="569" y="101" type="curve" smooth="yes"/>
      <point x="569" y="185"/>
      <point x="586" y="252"/>
      <point x="637" y="330" type="curve"/>
      <point x="540" y="417" type="line"/>
      <point x="444" y="386"/>
      <point x="359" y="314"/>
      <point x="309" y="231" type="curve"/>
      <point x="354" y="180" type="line"/>
      <point x="354" y="467" type="line"/>
      <point x="274" y="467" type="line"/>
      <point x="274" y="194" type="line"/>
      <point x="361" y="133" type="line"/>
      <point x="420" y="221"/>
      <point x="492" y="282"/>
      <point x="562" y="317" type="curve"/>
      <point x="537" y="375" type="line"/>
      <point x="509" y="328"/>
      <point x="497" y="241"/>
      <point x="497" y="161" type="curve" smooth="yes"/>
      <point x="497" y="104"/>
      <point x="503" y="52"/>
      <point x="524" y="-76" type="curve"/>
    </contour>
    <contour>
      <point x="318" y="207" type="line"/>
      <point x="304" y="328"/>
      <point x="232" y="421"/>
      <point x="130" y="421" type="curve" smooth="yes"/>
      <point x="56" y="421"/>
      <point x="9" y="372"/>
      <point x="9" y="317" type="curve" smooth="yes"/>
      <point x="9" y="263"/>
      <point x="52" y="225"/>
      <point x="100" y="225" type="curve" smooth="yes"/>
      <point x="143" y="225"/>
      <point x="176" y="257"/>
      <point x="176" y="297" type="curve" smooth="yes"/>
      <point x="176" y="333"/>
      <point x="148" y="362"/>
      <point x="115" y="367" type="curve"/>
      <point x="118" y="304" type="line"/>
      <point x="135" y="319"/>
      <point x="154" y="327"/>
      <point x="177" y="327" type="curve" smooth="yes"/>
      <point x="232" y="327"/>
      <point x="266" y="280"/>
      <point x="274" y="199" type="curve"/>
    </contour>
    <contour>
      <point x="551" y="-46" type="line"/>
      <point x="525" y="-3"/>
      <point x="471" y="37"/>
      <point x="384" y="55" type="curve"/>
      <point x="419" y="23" type="line"/>
      <point x="471" y="61"/>
      <point x="519" y="88"/>
      <point x="562" y="104" type="curve"/>
      <point x="525" y="188" type="line"/>
      <point x="451" y="150"/>
      <point x="403" y="120"/>
      <point x="327" y="69" type="curve"/>
      <point x="396" y="-22" type="line"/>
      <point x="462" y="-24"/>
      <point x="507" y="-44"/>
      <point x="524" y="-76" type="curve"/>
    </contour>
    <contour>
      <point x="473" y="456" type="line"/>
      <point x="473" y="521" type="line"/>
      <point x="-30" y="521" type="line"/>
      <point x="-30" y="456" type="line"/>
    </contour>
    <contour>
      <point x="692" y="456" type="line"/>
      <point x="692" y="521" type="line"/>
      <point x="200" y="521" type="line"/>
      <point x="200" y="456" type="line"/>
    </contour>
  </outline>
</glyph>
<glyph name="bNDdRa" format="1">
  <advance width="632"/>
  <outline>
    <contour>
      <point x="537" y="14"/>
      <point x="616" y="92"/>
      <point x="616" y="204" type="curve" smooth="yes"/>
      <point x="616" y="293"/>
      <point x="567" y="358"/>
      <point x="509" y="407" type="curve"/>
      <point x="464" y="324"/>
      <point x="418" y="273"/>
      <point x="394" y="273" type="curve" smooth="yes"/>
      <point x="386" y="273"/>
      <point x="382" y="279"/>
      <point x="382" y="290" type="curve" smooth="yes"/>
      <point x="382" y="466" type="line"/>
      <point x="302" y="466" type="line"/>
      <point x="302" y="309" type="line" smooth="yes"/>
      <point x="302" y="246"/>
      <point x="359" y="180"/>
      <point x="420" y="180" type="curve" smooth="yes"/>
      <point x="468" y="180"/>
      <point x="529" y="228"/>
      <point x="561" y="297" type="curve"/>
      <point x="499" y="327" type="line"/>
      <point x="531" y="306"/>
      <point x="546" y="274"/>
      <point x="546" y="240" type="curve" smooth="yes"/>
      <point x="546" y="180"/>
      <point x="489" y="122"/>
      <point x="383" y="122" type="curve" smooth="yes"/>
      <point x="270" y="122"/>
      <point x="145" y="187"/>
      <point x="43" y="422" type="curve"/>
      <point x="-10" y="398" type="line"/>
      <point x="108" y="112"/>
      <point x="269" y="14"/>
      <point x="411" y="14" type="curve" smooth="yes"/>
    </contour>
    <contour>
      <point x="548" y="-149" type="line"/>
      <point x="548" y="69" type="line"/>
      <point x="478" y="69" type="line"/>
      <point x="478" y="-95" type="line"/>
      <point x="508" y="-122" type="line"/>
      <point x="498" y="-64"/>
      <point x="451" y="-12"/>
      <point x="372" y="-12" type="curve" smooth="yes"/>
      <point x="350" y="-12"/>
      <point x="240" y="-16"/>
      <point x="218" y="-16" type="curve" smooth="yes"/>
      <point x="173" y="-16"/>
      <point x="145" y="0"/>
      <point x="145" y="36" type="curve" smooth="yes"/>
      <point x="145" y="48"/>
      <point x="148" y="67"/>
      <point x="154" y="83" type="curve"/>
      <point x="106" y="99" type="line"/>
      <point x="98" y="81"/>
      <point x="92" y="55"/>
      <point x="92" y="31" type="curve" smooth="yes"/>
      <point x="92" y="-48"/>
      <point x="156" y="-110"/>
      <point x="247" y="-110" type="curve" smooth="yes"/>
      <point x="283" y="-110"/>
      <point x="391" y="-100"/>
      <point x="423" y="-100" type="curve" smooth="yes"/>
      <point x="469" y="-100"/>
      <point x="488" y="-120"/>
      <point x="488" y="-149" type="curve"/>
    </contour>
    <contour>
      <point x="224" y="272"/>
      <point x="252" y="298"/>
      <point x="252" y="330" type="curve" smooth="yes"/>
      <point x="252" y="362"/>
      <point x="226" y="393"/>
      <point x="197" y="398" type="curve"/>
      <point x="195" y="333" type="line"/>
      <point x="212" y="345"/>
      <point x="234" y="350"/>
      <point x="248" y="350" type="curve" smooth="yes"/>
      <point x="276" y="350"/>
      <point x="296" y="331"/>
      <point x="303" y="300" type="curve"/>
      <point x="332" y="316" type="line"/>
      <point x="309" y="383"/>
      <point x="262" y="429"/>
      <point x="206" y="429" type="curve" smooth="yes"/>
      <point x="155" y="429"/>
      <point x="118" y="392"/>
      <point x="118" y="347" type="curve" smooth="yes"/>
      <point x="118" y="306"/>
      <point x="150" y="272"/>
      <point x="189" y="272" type="curve" smooth="yes"/>
    </contour>
    <contour>
      <point x="662" y="456" type="line"/>
      <point x="662" y="521" type="line"/>
      <point x="-30" y="521" type="line"/>
      <point x="-30" y="456" type="line"/>
    </contour>
  </outline>
</glyph>
<glyph name="bNDda" format="1">
  <advance width="632"/>
  <outline>
    <contour>
      <point x="537" y="-12"/>
      <point x="616" y="72"/>
      <point x="616" y="191" type="curve" smooth="yes"/>
      <point x="616" y="284"/>
      <point x="568" y="347"/>
      <point x="509" y="397" type="curve"/>
      <point x="464" y="314"/>
      <point x="418" y="263"/>
      <point x="394" y="263" type="curve" smooth="yes"/>
      <point x="386" y="263"/>
      <point x="382" y="269"/>
      <point x="382" y="280" type="curve" smooth="yes"/>
      <point x="382" y="466" type="line"/>
      <point x="302" y="466" type="line"/>
      <point x="302" y="299" type="line" smooth="yes"/>
      <point x="302" y="236"/>
      <point x="360" y="170"/>
      <point x="419" y="170" type="curve" smooth="yes"/>
      <point x="470" y="170"/>
      <point x="530" y="220"/>
      <point x="561" y="287" type="curve"/>
      <point x="499" y="317" type="line"/>
      <point x="531" y="296"/>
      <point x="546" y="264"/>
      <point x="546" y="230" type="curve" smooth="yes"/>
      <point x="546" y="165"/>
      <point x="489" y="102"/>
      <point x="382" y="102" type="curve" smooth="yes"/>
      <point x="270" y="102"/>
      <point x="145" y="171"/>
      <point x="43" y="422" type="curve"/>
      <point x="-10" y="398" type="line"/>
      <point x="108" y="93"/>
      <point x="269" y="-12"/>
      <point x="411" y="-12" type="curve" smooth="yes"/>
    </contour>
    <contour>
      <point x="224" y="262"/>
      <point x="252" y="288"/>
      <point x="252" y="320" type="curve" smooth="yes"/>
      <point x="252" y="352"/>
      <point x="226" y="383"/>
      <point x="197" y="388" type="curve"/>
      <point x="195" y="323" type="line"/>
      <point x="212" y="335"/>
      <point x="234" y="340"/>
      <point x="248" y="340" type="curve" smooth="yes"/>
      <point x="276" y="340"/>
      <point x="296" y="321"/>
      <point x="303" y="290" type="curve"/>
      <point x="332" y="306" type="line"/>
      <point x="309" y="373"/>
      <point x="262" y="419"/>
      <point x="206" y="419" type="curve" smooth="yes"/>
      <point x="155" y="419"/>
      <point x="118" y="382"/>
      <point x="118" y="337" type="curve" smooth="yes"/>
      <point x="118" y="296"/>
      <point x="150" y="262"/>
      <point x="189" y="262" type="curve" smooth="yes"/>
    </contour>
    <contour>
      <point x="662" y="456" type="line"/>
      <point x="662" y="521" type="line"/>
      <point x="-30" y="521" type="line"/>
      <point x="-30" y="456" type="line"/>
    </contour>
  </outline>
</glyph>
<glyph name="bNDhBa" format="1">
  <advance width="570"/>
  <outline>
    <contour>
      <point x="560" y="4" type="line"/>
      <point x="541" y="19"/>
      <point x="530" y="39"/>
      <point x="530" y="62" type="curve" smooth="yes"/>
      <point x="530" y="233" type="line" smooth="yes"/>
      <point x="530" y="290"/>
      <point x="471" y="367"/>
      <point x="427" y="367" type="curve" smooth="yes"/>
      <point x="410" y="367"/>
      <point x="373" y="356"/>
      <point x="339" y="334" type="curve"/>
      <point x="374" y="249" type="line"/>
      <point x="399" y="265"/>
      <point x="431" y="279"/>
      <point x="443" y="279" type="curve" smooth="yes"/>
      <point x="450" y="279"/>
      <point x="453" y="275"/>
      <point x="453" y="263" type="curve" smooth="yes"/>
      <point x="453" y="82" type="line" smooth="yes"/>
      <point x="453" y="22"/>
      <point x="485" y="-9"/>
      <point x="532" y="-35" type="curve"/>
    </contour>
    <contour>
      <point x="383" y="-91" type="line"/>
      <point x="383" y="119" type="line"/>
      <point x="328" y="166" type="line"/>
      <point x="259" y="133"/>
      <point x="215" y="109"/>
      <point x="140" y="60" type="curve"/>
      <point x="199" y="-27" type="line"/>
      <point x="253" y="-31"/>
      <point x="309" y="-54"/>
      <point x="323" y="-91" type="curve"/>
    </contour>
    <contour>
      <point x="343" y="-59" type="line"/>
      <point x="322" y="-10"/>
      <point x="274" y="29"/>
      <point x="197" y="46" type="curve"/>
      <point x="222" y="13" type="line"/>
      <point x="275" y="51"/>
      <point x="322" y="75"/>
      <point x="364" y="91" type="curve"/>
      <point x="313" y="86" type="line"/>
      <point x="313" y="-30" type="line"/>
    </contour>
    <contour>
      <point x="277" y="111" type="line"/>
      <point x="230" y="152"/>
      <point x="169" y="180"/>
      <point x="104" y="190" type="curve"/>
      <point x="146" y="132" type="line"/>
      <point x="238" y="187"/>
      <point x="296" y="216"/>
      <point x="371" y="247" type="curve"/>
      <point x="343" y="336" type="line"/>
      <point x="279" y="311"/>
      <point x="176" y="261"/>
      <point x="64" y="191" type="curve"/>
      <point x="129" y="101" type="line"/>
      <point x="172" y="96"/>
      <point x="211" y="87"/>
      <point x="243" y="73" type="curve"/>
    </contour>
    <contour>
      <point x="137" y="242"/>
      <point x="170" y="271"/>
      <point x="170" y="310" type="curve" smooth="yes"/>
      <point x="170" y="346"/>
      <point x="143" y="376"/>
      <point x="115" y="380" type="curve"/>
      <point x="108" y="314" type="line"/>
      <point x="125" y="332"/>
      <point x="143" y="341"/>
      <point x="170" y="341" type="curve" smooth="yes"/>
      <point x="225" y="341"/>
      <point x="264" y="306"/>
      <point x="291" y="241" type="curve"/>
      <point x="334" y="257" type="line"/>
      <point x="292" y="361"/>
      <point x="219" y="432"/>
      <point x="129" y="432" type="curve" smooth="yes"/>
      <point x="56" y="432"/>
      <point x="8" y="386"/>
      <point x="8" y="330" type="curve" smooth="yes"/>
      <point x="8" y="278"/>
      <point x="50" y="242"/>
      <point x="96" y="242" type="curve" smooth="yes"/>
    </contour>
    <contour>
      <point x="383" y="101" type="line"/>
      <point x="383" y="488" type="line"/>
      <point x="303" y="487" type="line"/>
      <point x="303" y="101" type="line"/>
    </contour>
    <contour>
      <point x="600" y="456" type="line"/>
      <point x="600" y="521" type="line"/>
      <point x="-30" y="521" type="line"/>
      <point x="-30" y="456" type="line"/>
    </contour>
  </outline>
</glyph>
<glyph name="bNDhRa" format="1">
  <advance width="590"/>
  <outline>
    <contour>
      <point x="403" y="0" type="line"/>
      <point x="403" y="488" type="line"/>
      <point x="323" y="487" type="line"/>
      <point x="323" y="50" type="line"/>
      <point x="366" y="13" type="line"/>
      <point x="338" y="110"/>
      <point x="241" y="173"/>
      <point x="148" y="190" type="curve"/>
      <point x="193" y="132" type="line"/>
      <point x="274" y="187"/>
      <point x="325" y="216"/>
      <point x="391" y="247" type="curve"/>
      <point x="363" y="336" type="line"/>
      <point x="304" y="311"/>
      <point x="210" y="261"/>
      <point x="108" y="191" type="curve"/>
      <point x="173" y="99" type="line"/>
      <point x="257" y="92"/>
      <point x="333" y="50"/>
      <point x="333" y="0" type="curve"/>
    </contour>
    <contour>
      <point x="403" y="-78" type="line"/>
      <point x="403" y="95" type="line"/>
      <point x="333" y="95" type="line"/>
      <point x="333" y="-7" type="line"/>
      <point x="364" y="-55" type="line"/>
      <point x="341" y="10"/>
      <point x="287" y="54"/>
      <point x="214" y="54" type="curve" smooth="yes"/>
      <point x="192" y="54"/>
      <point x="152" y="50"/>
      <point x="135" y="50" type="curve" smooth="yes"/>
      <point x="98" y="50"/>
      <point x="78" y="67"/>
      <point x="78" y="102" type="curve" smooth="yes"/>
      <point x="78" y="119"/>
      <point x="83" y="138"/>
      <point x="89" y="151" type="curve"/>
      <point x="47" y="171" type="line"/>
      <point x="33" y="147"/>
      <point x="27" y="120"/>
      <point x="27" y="97" type="curve" smooth="yes"/>
      <point x="27" y="24"/>
      <point x="84" y="-33"/>
      <point x="168" y="-33" type="curve" smooth="yes"/>
      <point x="197" y="-33"/>
      <point x="239" y="-26"/>
      <point x="269" y="-26" type="curve" smooth="yes"/>
      <point x="319" y="-26"/>
      <point x="340" y="-45"/>
      <point x="343" y="-78" type="curve"/>
    </contour>
    <contour>
      <point x="157" y="242"/>
      <point x="190" y="271"/>
      <point x="190" y="310" type="curve" smooth="yes"/>
      <point x="190" y="346"/>
      <point x="163" y="376"/>
      <point x="135" y="380" type="curve"/>
      <point x="128" y="314" type="line"/>
      <point x="145" y="332"/>
      <point x="163" y="341"/>
      <point x="190" y="341" type="curve" smooth="yes"/>
      <point x="245" y="341"/>
      <point x="284" y="306"/>
      <point x="311" y="241" type="curve"/>
      <point x="354" y="257" type="line"/>
      <point x="312" y="361"/>
      <point x="239" y="432"/>
      <point x="149" y="432" type="curve" smooth="yes"/>
      <point x="76" y="432"/>
      <point x="28" y="386"/>
      <point x="28" y="330" type="curve" smooth="yes"/>
      <point x="28" y="278"/>
      <point x="70" y="242"/>
      <point x="116" y="242" type="curve" smooth="yes"/>
    </contour>
    <contour>
      <point x="580" y="4" type="line"/>
      <point x="561" y="19"/>
      <point x="550" y="39"/>
      <point x="550" y="62" type="curve" smooth="yes"/>
      <point x="550" y="233" type="line" smooth="yes"/>
      <point x="550" y="290"/>
      <point x="491" y="367"/>
      <point x="447" y="367" type="curve" smooth="yes"/>
      <point x="430" y="367"/>
      <point x="393" y="356"/>
      <point x="359" y="334" type="curve"/>
      <point x="394" y="249" type="line"/>
      <point x="419" y="265"/>
      <point x="451" y="279"/>
      <point x="463" y="279" type="curve" smooth="yes"/>
      <point x="470" y="279"/>
      <point x="473" y="275"/>
      <point x="473" y="263" type="curve" smooth="yes"/>
      <point x="473" y="82" type="line" smooth="yes"/>
      <point x="473" y="22"/>
      <point x="505" y="-9"/>
      <point x="552" y="-35" type="curve"/>
    </contour>
    <contour>
      <point x="620" y="456" type="line"/>
      <point x="620" y="521" type="line"/>
      <point x="-30" y="521" type="line"/>
      <point x="-30" y="456" type="line"/>
    </contour>
  </outline>
</glyph>
